<svg width="570" height="172" viewBox="0 0 570 172" fill="none" xmlns="http://www.w3.org/2000/svg">
<rect x="412" width="158" height="72" fill="#D9D9D9"/>
<rect x="206" width="158" height="72" fill="#D9D9D9"/>
<rect width="158" height="72" fill="#D9D9D9"/>
<path d="M429.534 43V32.0909H431.153V33.7955H431.295C431.523 33.2131 431.89 32.7609 432.396 32.4389C432.903 32.1122 433.511 31.9489 434.222 31.9489C434.941 31.9489 435.54 32.1122 436.018 32.4389C436.501 32.7609 436.878 33.2131 437.148 33.7955H437.261C437.541 33.232 437.96 32.7846 438.518 32.4531C439.077 32.117 439.747 31.9489 440.528 31.9489C441.504 31.9489 442.302 32.2543 442.922 32.8651C443.542 33.4711 443.852 34.4157 443.852 35.6989V43H442.176V35.6989C442.176 34.8939 441.956 34.3187 441.516 33.973C441.075 33.6274 440.557 33.4545 439.96 33.4545C439.193 33.4545 438.599 33.6866 438.178 34.1506C437.756 34.6098 437.545 35.1922 437.545 35.8977V43H435.841V35.5284C435.841 34.9081 435.64 34.4086 435.237 34.0298C434.835 33.6463 434.316 33.4545 433.682 33.4545C433.246 33.4545 432.839 33.5705 432.46 33.8026C432.086 34.0346 431.783 34.3565 431.551 34.7685C431.324 35.1757 431.21 35.6468 431.21 36.1818V43H429.534ZM450.127 43.2557C449.436 43.2557 448.808 43.1255 448.245 42.8651C447.682 42.5999 447.234 42.2188 446.903 41.7216C446.571 41.2197 446.406 40.6136 446.406 39.9034C446.406 39.2784 446.529 38.7718 446.775 38.3835C447.021 37.9905 447.35 37.6828 447.762 37.4602C448.174 37.2377 448.629 37.072 449.126 36.9631C449.628 36.8494 450.132 36.7595 450.638 36.6932C451.301 36.608 451.839 36.544 452.251 36.5014C452.667 36.4541 452.97 36.3759 453.16 36.267C453.354 36.1581 453.451 35.9687 453.451 35.6989V35.642C453.451 34.9413 453.259 34.3968 452.876 34.0085C452.497 33.6203 451.922 33.4261 451.15 33.4261C450.35 33.4261 449.722 33.6013 449.268 33.9517C448.813 34.3021 448.494 34.6761 448.309 35.0739L446.718 34.5057C447.002 33.8428 447.381 33.3267 447.854 32.9574C448.333 32.5833 448.853 32.3229 449.417 32.1761C449.985 32.0246 450.544 31.9489 451.093 31.9489C451.443 31.9489 451.846 31.9915 452.3 32.0767C452.76 32.1572 453.202 32.3253 453.629 32.581C454.059 32.8366 454.417 33.2225 454.701 33.7386C454.985 34.2547 455.127 34.946 455.127 35.8125V43H453.451V41.5227H453.366C453.252 41.7595 453.063 42.0128 452.798 42.2827C452.532 42.5526 452.18 42.7822 451.739 42.9716C451.299 43.161 450.762 43.2557 450.127 43.2557ZM450.383 41.75C451.046 41.75 451.604 41.6198 452.059 41.3594C452.518 41.099 452.864 40.7628 453.096 40.3509C453.333 39.9389 453.451 39.5057 453.451 39.0511V37.517C453.38 37.6023 453.224 37.6804 452.982 37.7514C452.746 37.8177 452.471 37.8769 452.158 37.929C451.851 37.9763 451.55 38.0189 451.256 38.0568C450.968 38.09 450.733 38.1184 450.553 38.142C450.118 38.1989 449.71 38.2912 449.332 38.419C448.958 38.5421 448.655 38.7292 448.423 38.9801C448.195 39.2263 448.082 39.5625 448.082 39.9886C448.082 40.571 448.297 41.0114 448.728 41.3097C449.164 41.6032 449.715 41.75 450.383 41.75ZM458.186 43V32.0909H459.863V43H458.186ZM459.039 30.2727C458.712 30.2727 458.43 30.1615 458.194 29.9389C457.962 29.7164 457.846 29.4489 457.846 29.1364C457.846 28.8239 457.962 28.5563 458.194 28.3338C458.43 28.1113 458.712 28 459.039 28C459.365 28 459.645 28.1113 459.877 28.3338C460.114 28.5563 460.232 28.8239 460.232 29.1364C460.232 29.4489 460.114 29.7164 459.877 29.9389C459.645 30.1615 459.365 30.2727 459.039 30.2727ZM464.609 36.4375V43H462.933V32.0909H464.552V33.7955H464.694C464.95 33.2415 465.338 32.7964 465.859 32.4602C466.379 32.1193 467.052 31.9489 467.876 31.9489C468.614 31.9489 469.261 32.1004 469.815 32.4034C470.369 32.7017 470.799 33.1562 471.107 33.767C471.415 34.3731 471.569 35.1402 471.569 36.0682V43H469.893V36.1818C469.893 35.3248 469.67 34.6572 469.225 34.179C468.78 33.696 468.169 33.4545 467.393 33.4545C466.858 33.4545 466.379 33.5705 465.958 33.8026C465.541 34.0346 465.212 34.3731 464.971 34.8182C464.729 35.2633 464.609 35.803 464.609 36.4375ZM480.257 47.0909V32.0909H481.876V33.8239H482.075C482.198 33.6345 482.368 33.393 482.586 33.0994C482.809 32.8011 483.126 32.536 483.538 32.304C483.955 32.0672 484.518 31.9489 485.228 31.9489C486.147 31.9489 486.957 32.1785 487.657 32.6378C488.358 33.0971 488.905 33.7481 489.298 34.5909C489.691 35.4337 489.887 36.428 489.887 37.5739C489.887 38.7292 489.691 39.7306 489.298 40.5781C488.905 41.4209 488.36 42.0743 487.664 42.5384C486.968 42.9976 486.166 43.2273 485.257 43.2273C484.556 43.2273 483.995 43.1113 483.574 42.8793C483.152 42.6425 482.828 42.375 482.6 42.0767C482.373 41.7737 482.198 41.5227 482.075 41.3239H481.933V47.0909H480.257ZM481.904 37.5455C481.904 38.3693 482.025 39.0961 482.267 39.7259C482.508 40.3509 482.861 40.8409 483.325 41.196C483.789 41.5464 484.357 41.7216 485.029 41.7216C485.73 41.7216 486.315 41.5369 486.784 41.1676C487.257 40.7936 487.612 40.2917 487.849 39.6619C488.091 39.0275 488.211 38.322 488.211 37.5455C488.211 36.7784 488.093 36.0871 487.856 35.4716C487.624 34.8513 487.271 34.3613 486.798 34.0014C486.329 33.6368 485.74 33.4545 485.029 33.4545C484.348 33.4545 483.775 33.6274 483.311 33.973C482.847 34.3139 482.496 34.7921 482.26 35.4077C482.023 36.0185 481.904 36.7311 481.904 37.5455ZM492.444 43V32.0909H494.064V33.7386H494.177C494.376 33.1989 494.736 32.7609 495.257 32.4247C495.778 32.0885 496.365 31.9205 497.018 31.9205C497.141 31.9205 497.295 31.9228 497.48 31.9276C497.664 31.9323 497.804 31.9394 497.899 31.9489V33.6534C497.842 33.6392 497.712 33.6179 497.508 33.5895C497.309 33.5563 497.099 33.5398 496.876 33.5398C496.346 33.5398 495.872 33.651 495.456 33.8736C495.044 34.0914 494.717 34.3944 494.475 34.7827C494.239 35.1662 494.12 35.6042 494.12 36.0966V43H492.444ZM503.985 43.2273C503.001 43.2273 502.136 42.9929 501.393 42.5241C500.654 42.0554 500.077 41.3996 499.66 40.5568C499.248 39.714 499.042 38.7292 499.042 37.6023C499.042 36.4659 499.248 35.474 499.66 34.6264C500.077 33.7789 500.654 33.1207 501.393 32.652C502.136 32.1832 503.001 31.9489 503.985 31.9489C504.97 31.9489 505.832 32.1832 506.571 32.652C507.314 33.1207 507.892 33.7789 508.304 34.6264C508.72 35.474 508.929 36.4659 508.929 37.6023C508.929 38.7292 508.72 39.714 508.304 40.5568C507.892 41.3996 507.314 42.0554 506.571 42.5241C505.832 42.9929 504.97 43.2273 503.985 43.2273ZM503.985 41.7216C504.734 41.7216 505.349 41.5298 505.832 41.1463C506.315 40.7628 506.672 40.2585 506.904 39.6335C507.136 39.0085 507.252 38.3314 507.252 37.6023C507.252 36.8731 507.136 36.1937 506.904 35.5639C506.672 34.9342 506.315 34.4252 505.832 34.0369C505.349 33.6487 504.734 33.4545 503.985 33.4545C503.237 33.4545 502.622 33.6487 502.139 34.0369C501.656 34.4252 501.298 34.9342 501.066 35.5639C500.834 36.1937 500.718 36.8731 500.718 37.6023C500.718 38.3314 500.834 39.0085 501.066 39.6335C501.298 40.2585 501.656 40.7628 502.139 41.1463C502.622 41.5298 503.237 41.7216 503.985 41.7216ZM515.919 43.2273C514.896 43.2273 514.016 42.9858 513.277 42.5028C512.538 42.0199 511.97 41.3546 511.572 40.5071C511.175 39.6596 510.976 38.6913 510.976 37.6023C510.976 36.4943 511.179 35.5166 511.587 34.669C511.999 33.8168 512.571 33.1515 513.305 32.6733C514.044 32.1903 514.906 31.9489 515.891 31.9489C516.658 31.9489 517.349 32.0909 517.964 32.375C518.58 32.6591 519.084 33.0568 519.477 33.5682C519.87 34.0795 520.114 34.6761 520.209 35.358H518.533C518.405 34.8608 518.121 34.4205 517.68 34.0369C517.245 33.6487 516.658 33.4545 515.919 33.4545C515.266 33.4545 514.693 33.625 514.2 33.9659C513.713 34.3021 513.331 34.7779 513.057 35.3935C512.787 36.0043 512.652 36.7216 512.652 37.5455C512.652 38.3883 512.785 39.1222 513.05 39.7472C513.32 40.3722 513.698 40.8575 514.186 41.2031C514.679 41.5488 515.256 41.7216 515.919 41.7216C516.355 41.7216 516.75 41.6458 517.105 41.4943C517.46 41.3428 517.761 41.125 518.007 40.8409C518.253 40.5568 518.429 40.2159 518.533 39.8182H520.209C520.114 40.4621 519.88 41.0421 519.506 41.5582C519.136 42.0696 518.646 42.4768 518.036 42.7798C517.429 43.0781 516.724 43.2273 515.919 43.2273ZM527.233 43.2273C526.182 43.2273 525.275 42.9953 524.513 42.5312C523.755 42.0625 523.17 41.4091 522.759 40.571C522.351 39.7282 522.148 38.7481 522.148 37.6307C522.148 36.5133 522.351 35.5284 522.759 34.6761C523.17 33.8191 523.743 33.1515 524.477 32.6733C525.216 32.1903 526.078 31.9489 527.062 31.9489C527.631 31.9489 528.192 32.0436 528.746 32.233C529.3 32.4223 529.804 32.7301 530.259 33.1562C530.713 33.5777 531.075 34.1364 531.345 34.8324C531.615 35.5284 531.75 36.3854 531.75 37.4034V38.1136H523.341V36.6648H530.045C530.045 36.0492 529.922 35.5 529.676 35.017C529.435 34.5341 529.089 34.1529 528.639 33.8736C528.194 33.5942 527.669 33.4545 527.062 33.4545C526.395 33.4545 525.817 33.6203 525.33 33.9517C524.847 34.2784 524.475 34.7045 524.214 35.2301C523.954 35.7557 523.824 36.3191 523.824 36.9205V37.8864C523.824 38.7102 523.966 39.4086 524.25 39.9815C524.539 40.5497 524.939 40.983 525.45 41.2812C525.962 41.5748 526.556 41.7216 527.233 41.7216C527.673 41.7216 528.071 41.66 528.426 41.5369C528.786 41.4091 529.096 41.2197 529.357 40.9688C529.617 40.7131 529.818 40.3958 529.96 40.017L531.58 40.4716C531.409 41.0208 531.123 41.5038 530.72 41.9205C530.318 42.3324 529.821 42.6544 529.229 42.8864C528.637 43.1136 527.972 43.2273 527.233 43.2273ZM542.027 34.5341L540.521 34.9602C540.427 34.7093 540.287 34.4654 540.102 34.2287C539.922 33.9872 539.676 33.7884 539.364 33.6321C539.051 33.4759 538.651 33.3977 538.163 33.3977C537.496 33.3977 536.939 33.5516 536.494 33.8594C536.054 34.1624 535.834 34.5483 535.834 35.017C535.834 35.4337 535.985 35.7628 536.288 36.0043C536.591 36.2457 537.065 36.447 537.709 36.608L539.328 37.0057C540.304 37.2424 541.03 37.6046 541.509 38.0923C541.987 38.5753 542.226 39.1979 542.226 39.9602C542.226 40.5852 542.046 41.1439 541.686 41.6364C541.331 42.1288 540.834 42.517 540.195 42.8011C539.555 43.0852 538.812 43.2273 537.964 43.2273C536.852 43.2273 535.931 42.9858 535.202 42.5028C534.473 42.0199 534.011 41.3144 533.817 40.3864L535.408 39.9886C535.559 40.5758 535.846 41.0161 536.267 41.3097C536.693 41.6032 537.25 41.75 537.936 41.75C538.717 41.75 539.338 41.5843 539.797 41.2528C540.261 40.9167 540.493 40.5142 540.493 40.0455C540.493 39.6667 540.36 39.3494 540.095 39.0938C539.83 38.8333 539.423 38.6392 538.874 38.5114L537.055 38.0852C536.056 37.8485 535.322 37.4815 534.854 36.9844C534.39 36.4825 534.158 35.8551 534.158 35.1023C534.158 34.4867 534.33 33.9422 534.676 33.4688C535.027 32.9953 535.502 32.6236 536.104 32.3537C536.71 32.0838 537.396 31.9489 538.163 31.9489C539.243 31.9489 540.09 32.1856 540.706 32.6591C541.326 33.1326 541.767 33.7576 542.027 34.5341ZM552.476 34.5341L550.971 34.9602C550.876 34.7093 550.736 34.4654 550.551 34.2287C550.372 33.9872 550.125 33.7884 549.813 33.6321C549.5 33.4759 549.1 33.3977 548.613 33.3977C547.945 33.3977 547.389 33.5516 546.944 33.8594C546.503 34.1624 546.283 34.5483 546.283 35.017C546.283 35.4337 546.435 35.7628 546.738 36.0043C547.041 36.2457 547.514 36.447 548.158 36.608L549.777 37.0057C550.753 37.2424 551.48 37.6046 551.958 38.0923C552.436 38.5753 552.675 39.1979 552.675 39.9602C552.675 40.5852 552.495 41.1439 552.135 41.6364C551.78 42.1288 551.283 42.517 550.644 42.8011C550.005 43.0852 549.261 43.2273 548.414 43.2273C547.301 43.2273 546.38 42.9858 545.651 42.5028C544.922 42.0199 544.46 41.3144 544.266 40.3864L545.857 39.9886C546.008 40.5758 546.295 41.0161 546.716 41.3097C547.142 41.6032 547.699 41.75 548.385 41.75C549.167 41.75 549.787 41.5843 550.246 41.2528C550.71 40.9167 550.942 40.5142 550.942 40.0455C550.942 39.6667 550.81 39.3494 550.544 39.0938C550.279 38.8333 549.872 38.6392 549.323 38.5114L547.505 38.0852C546.506 37.8485 545.772 37.4815 545.303 36.9844C544.839 36.4825 544.607 35.8551 544.607 35.1023C544.607 34.4867 544.78 33.9422 545.125 33.4688C545.476 32.9953 545.952 32.6236 546.553 32.3537C547.159 32.0838 547.846 31.9489 548.613 31.9489C549.692 31.9489 550.54 32.1856 551.155 32.6591C551.775 33.1326 552.216 33.7576 552.476 34.5341Z" fill="black"/>
<path d="M39.5341 31V20.0909H41.1534V21.7386H41.267C41.4659 21.1989 41.8258 20.7609 42.3466 20.4247C42.8674 20.0885 43.4545 19.9205 44.108 19.9205C44.2311 19.9205 44.3849 19.9228 44.5696 19.9276C44.7543 19.9323 44.8939 19.9394 44.9886 19.9489V21.6534C44.9318 21.6392 44.8016 21.6179 44.598 21.5895C44.3991 21.5563 44.1884 21.5398 43.9659 21.5398C43.4356 21.5398 42.9621 21.651 42.5455 21.8736C42.1335 22.0914 41.8068 22.3944 41.5653 22.7827C41.3286 23.1662 41.2102 23.6042 41.2102 24.0966V31H39.5341ZM51.2173 31.2273C50.1662 31.2273 49.2595 30.9953 48.4972 30.5312C47.7396 30.0625 47.1548 29.4091 46.7429 28.571C46.3357 27.7282 46.1321 26.7481 46.1321 25.6307C46.1321 24.5133 46.3357 23.5284 46.7429 22.6761C47.1548 21.8191 47.7277 21.1515 48.4616 20.6733C49.2003 20.1903 50.062 19.9489 51.0469 19.9489C51.6151 19.9489 52.1761 20.0436 52.7301 20.233C53.2841 20.4223 53.7884 20.7301 54.2429 21.1562C54.6974 21.5777 55.0597 22.1364 55.3295 22.8324C55.5994 23.5284 55.7344 24.3854 55.7344 25.4034V26.1136H47.3253V24.6648H54.0298C54.0298 24.0492 53.9067 23.5 53.6605 23.017C53.419 22.5341 53.0734 22.1529 52.6236 21.8736C52.1785 21.5942 51.6529 21.4545 51.0469 21.4545C50.3793 21.4545 49.8016 21.6203 49.3139 21.9517C48.831 22.2784 48.4593 22.7045 48.1989 23.2301C47.9384 23.7557 47.8082 24.3191 47.8082 24.9205V25.8864C47.8082 26.7102 47.9503 27.4086 48.2344 27.9815C48.5232 28.5497 48.9233 28.983 49.4347 29.2812C49.946 29.5748 50.5402 29.7216 51.2173 29.7216C51.6577 29.7216 52.0554 29.66 52.4105 29.5369C52.7704 29.4091 53.0805 29.2197 53.3409 28.9688C53.6013 28.7131 53.8026 28.3958 53.9446 28.017L55.5639 28.4716C55.3935 29.0208 55.107 29.5038 54.7045 29.9205C54.3021 30.3324 53.8049 30.6544 53.2131 30.8864C52.6212 31.1136 51.956 31.2273 51.2173 31.2273ZM59.9602 24.4375V31H58.2841V20.0909H59.9034V21.7955H60.0455C60.3011 21.2415 60.6894 20.7964 61.2102 20.4602C61.7311 20.1193 62.4034 19.9489 63.2273 19.9489C63.9659 19.9489 64.6122 20.1004 65.1662 20.4034C65.7202 20.7017 66.151 21.1562 66.4588 21.767C66.7666 22.3731 66.9205 23.1402 66.9205 24.0682V31H65.2443V24.1818C65.2443 23.3248 65.0218 22.6572 64.5767 22.179C64.1316 21.696 63.5208 21.4545 62.7443 21.4545C62.2093 21.4545 61.7311 21.5705 61.3097 21.8026C60.893 22.0346 60.5639 22.3731 60.3224 22.8182C60.081 23.2633 59.9602 23.803 59.9602 24.4375ZM74.1026 31.2273C73.1935 31.2273 72.391 30.9976 71.695 30.5384C70.9989 30.0743 70.4544 29.4209 70.0614 28.5781C69.6684 27.7306 69.4719 26.7292 69.4719 25.5739C69.4719 24.428 69.6684 23.4337 70.0614 22.5909C70.4544 21.7481 71.0013 21.0971 71.7021 20.6378C72.4028 20.1785 73.2125 19.9489 74.131 19.9489C74.8413 19.9489 75.4023 20.0672 75.8143 20.304C76.2309 20.536 76.5482 20.8011 76.766 21.0994C76.9885 21.393 77.1613 21.6345 77.2844 21.8239H77.4265V16.4545H79.1026V31H77.4833V29.3239H77.2844C77.1613 29.5227 76.9862 29.7737 76.7589 30.0767C76.5316 30.375 76.2073 30.6425 75.7859 30.8793C75.3645 31.1113 74.8034 31.2273 74.1026 31.2273ZM74.3299 29.7216C75.0022 29.7216 75.5704 29.5464 76.0344 29.196C76.4985 28.8409 76.8512 28.3509 77.0927 27.7259C77.3342 27.0961 77.4549 26.3693 77.4549 25.5455C77.4549 24.7311 77.3365 24.0185 77.0998 23.4077C76.863 22.7921 76.5127 22.3139 76.0487 21.973C75.5846 21.6274 75.0117 21.4545 74.3299 21.4545C73.6197 21.4545 73.0278 21.6368 72.5543 22.0014C72.0856 22.3613 71.7328 22.8513 71.4961 23.4716C71.2641 24.0871 71.1481 24.7784 71.1481 25.5455C71.1481 26.322 71.2665 27.0275 71.5032 27.6619C71.7447 28.2917 72.0998 28.7936 72.5685 29.1676C73.042 29.5369 73.6291 29.7216 74.3299 29.7216ZM86.979 31.2273C85.9279 31.2273 85.0212 30.9953 84.2589 30.5312C83.5013 30.0625 82.9165 29.4091 82.5046 28.571C82.0974 27.7282 81.8938 26.7481 81.8938 25.6307C81.8938 24.5133 82.0974 23.5284 82.5046 22.6761C82.9165 21.8191 83.4895 21.1515 84.2234 20.6733C84.962 20.1903 85.8237 19.9489 86.8086 19.9489C87.3768 19.9489 87.9379 20.0436 88.4918 20.233C89.0458 20.4223 89.5501 20.7301 90.0046 21.1562C90.4592 21.5777 90.8214 22.1364 91.0913 22.8324C91.3612 23.5284 91.4961 24.3854 91.4961 25.4034V26.1136H83.087V24.6648H89.7915C89.7915 24.0492 89.6684 23.5 89.4222 23.017C89.1808 22.5341 88.8351 22.1529 88.3853 21.8736C87.9402 21.5942 87.4147 21.4545 86.8086 21.4545C86.141 21.4545 85.5633 21.6203 85.0756 21.9517C84.5927 22.2784 84.221 22.7045 83.9606 23.2301C83.7002 23.7557 83.57 24.3191 83.57 24.9205V25.8864C83.57 26.7102 83.712 27.4086 83.9961 27.9815C84.2849 28.5497 84.685 28.983 85.1964 29.2812C85.7077 29.5748 86.302 29.7216 86.979 29.7216C87.4194 29.7216 87.8171 29.66 88.1722 29.5369C88.5321 29.4091 88.8422 29.2197 89.1026 28.9688C89.363 28.7131 89.5643 28.3958 89.7063 28.017L91.3256 28.4716C91.1552 29.0208 90.8687 29.5038 90.4663 29.9205C90.0638 30.3324 89.5666 30.6544 88.9748 30.8864C88.3829 31.1136 87.7177 31.2273 86.979 31.2273ZM94.0458 31V20.0909H95.6651V21.7386H95.7788C95.9776 21.1989 96.3375 20.7609 96.8583 20.4247C97.3791 20.0885 97.9663 19.9205 98.6197 19.9205C98.7428 19.9205 98.8967 19.9228 99.0813 19.9276C99.266 19.9323 99.4057 19.9394 99.5004 19.9489V21.6534C99.4435 21.6392 99.3133 21.6179 99.1097 21.5895C98.9109 21.5563 98.7002 21.5398 98.4776 21.5398C97.9473 21.5398 97.4738 21.651 97.0572 21.8736C96.6452 22.0914 96.3185 22.3944 96.0771 22.7827C95.8403 23.1662 95.7219 23.6042 95.7219 24.0966V31H94.0458ZM105.729 31.2273C104.678 31.2273 103.771 30.9953 103.009 30.5312C102.251 30.0625 101.667 29.4091 101.255 28.571C100.847 27.7282 100.644 26.7481 100.644 25.6307C100.644 24.5133 100.847 23.5284 101.255 22.6761C101.667 21.8191 102.239 21.1515 102.973 20.6733C103.712 20.1903 104.574 19.9489 105.559 19.9489C106.127 19.9489 106.688 20.0436 107.242 20.233C107.796 20.4223 108.3 20.7301 108.755 21.1562C109.209 21.5777 109.571 22.1364 109.841 22.8324C110.111 23.5284 110.246 24.3854 110.246 25.4034V26.1136H101.837V24.6648H108.542C108.542 24.0492 108.418 23.5 108.172 23.017C107.931 22.5341 107.585 22.1529 107.135 21.8736C106.69 21.5942 106.165 21.4545 105.559 21.4545C104.891 21.4545 104.313 21.6203 103.826 21.9517C103.343 22.2784 102.971 22.7045 102.711 23.2301C102.45 23.7557 102.32 24.3191 102.32 24.9205V25.8864C102.32 26.7102 102.462 27.4086 102.746 27.9815C103.035 28.5497 103.435 28.983 103.946 29.2812C104.458 29.5748 105.052 29.7216 105.729 29.7216C106.169 29.7216 106.567 29.66 106.922 29.5369C107.282 29.4091 107.592 29.2197 107.853 28.9688C108.113 28.7131 108.314 28.3958 108.456 28.017L110.076 28.4716C109.905 29.0208 109.619 29.5038 109.216 29.9205C108.814 30.3324 108.317 30.6544 107.725 30.8864C107.133 31.1136 106.468 31.2273 105.729 31.2273ZM112.796 31V20.0909H114.415V21.7386H114.529C114.728 21.1989 115.087 20.7609 115.608 20.4247C116.129 20.0885 116.716 19.9205 117.37 19.9205C117.493 19.9205 117.647 19.9228 117.831 19.9276C118.016 19.9323 118.156 19.9394 118.25 19.9489V21.6534C118.194 21.6392 118.063 21.6179 117.86 21.5895C117.661 21.5563 117.45 21.5398 117.228 21.5398C116.697 21.5398 116.224 21.651 115.807 21.8736C115.395 22.0914 115.069 22.3944 114.827 22.7827C114.59 23.1662 114.472 23.6042 114.472 24.0966V31H112.796ZM45.1591 59.0909V44.0909H46.7784V45.8239H46.9773C47.1004 45.6345 47.2708 45.393 47.4886 45.0994C47.7112 44.8011 48.0284 44.536 48.4403 44.304C48.857 44.0672 49.4205 43.9489 50.1307 43.9489C51.0492 43.9489 51.8589 44.1785 52.5597 44.6378C53.2604 45.0971 53.8073 45.7481 54.2003 46.5909C54.5933 47.4337 54.7898 48.428 54.7898 49.5739C54.7898 50.7292 54.5933 51.7306 54.2003 52.5781C53.8073 53.4209 53.2628 54.0743 52.5668 54.5384C51.8707 54.9976 51.0682 55.2273 50.1591 55.2273C49.4583 55.2273 48.8973 55.1113 48.4759 54.8793C48.0545 54.6425 47.7301 54.375 47.5028 54.0767C47.2756 53.7737 47.1004 53.5227 46.9773 53.3239H46.8352V59.0909H45.1591ZM46.8068 49.5455C46.8068 50.3693 46.9276 51.0961 47.169 51.7259C47.4105 52.3509 47.7633 52.8409 48.2273 53.196C48.6913 53.5464 49.2595 53.7216 49.9318 53.7216C50.6326 53.7216 51.2173 53.5369 51.6861 53.1676C52.1596 52.7936 52.5147 52.2917 52.7514 51.6619C52.9929 51.0275 53.1136 50.322 53.1136 49.5455C53.1136 48.7784 52.9953 48.0871 52.7585 47.4716C52.5265 46.8513 52.1738 46.3613 51.7003 46.0014C51.2315 45.6368 50.642 45.4545 49.9318 45.4545C49.25 45.4545 48.6771 45.6274 48.2131 45.973C47.7491 46.3139 47.3987 46.7921 47.1619 47.4077C46.9252 48.0185 46.8068 48.7311 46.8068 49.5455ZM57.3466 55V44.0909H58.9659V45.7386H59.0795C59.2784 45.1989 59.6383 44.7609 60.1591 44.4247C60.6799 44.0885 61.267 43.9205 61.9205 43.9205C62.0436 43.9205 62.1974 43.9228 62.3821 43.9276C62.5668 43.9323 62.7064 43.9394 62.8011 43.9489V45.6534C62.7443 45.6392 62.6141 45.6179 62.4105 45.5895C62.2116 45.5563 62.0009 45.5398 61.7784 45.5398C61.2481 45.5398 60.7746 45.651 60.358 45.8736C59.946 46.0914 59.6193 46.3944 59.3778 46.7827C59.1411 47.1662 59.0227 47.6042 59.0227 48.0966V55H57.3466ZM68.8878 55.2273C67.9029 55.2273 67.0388 54.9929 66.2955 54.5241C65.5568 54.0554 64.9792 53.3996 64.5625 52.5568C64.1506 51.714 63.9446 50.7292 63.9446 49.6023C63.9446 48.4659 64.1506 47.474 64.5625 46.6264C64.9792 45.7789 65.5568 45.1207 66.2955 44.652C67.0388 44.1832 67.9029 43.9489 68.8878 43.9489C69.8726 43.9489 70.7344 44.1832 71.473 44.652C72.2164 45.1207 72.794 45.7789 73.206 46.6264C73.6226 47.474 73.831 48.4659 73.831 49.6023C73.831 50.7292 73.6226 51.714 73.206 52.5568C72.794 53.3996 72.2164 54.0554 71.473 54.5241C70.7344 54.9929 69.8726 55.2273 68.8878 55.2273ZM68.8878 53.7216C69.6359 53.7216 70.2514 53.5298 70.7344 53.1463C71.2173 52.7628 71.5748 52.2585 71.8068 51.6335C72.0388 51.0085 72.1548 50.3314 72.1548 49.6023C72.1548 48.8731 72.0388 48.1937 71.8068 47.5639C71.5748 46.9342 71.2173 46.4252 70.7344 46.0369C70.2514 45.6487 69.6359 45.4545 68.8878 45.4545C68.1397 45.4545 67.5241 45.6487 67.0412 46.0369C66.5582 46.4252 66.2008 46.9342 65.9688 47.5639C65.7367 48.1937 65.6207 48.8731 65.6207 49.6023C65.6207 50.3314 65.7367 51.0085 65.9688 51.6335C66.2008 52.2585 66.5582 52.7628 67.0412 53.1463C67.5241 53.5298 68.1397 53.7216 68.8878 53.7216ZM80.8214 55.2273C79.7987 55.2273 78.918 54.9858 78.1793 54.5028C77.4407 54.0199 76.8725 53.3546 76.4748 52.5071C76.0771 51.6596 75.8782 50.6913 75.8782 49.6023C75.8782 48.4943 76.0818 47.5166 76.489 46.669C76.9009 45.8168 77.4738 45.1515 78.2077 44.6733C78.9464 44.1903 79.8081 43.9489 80.793 43.9489C81.56 43.9489 82.2513 44.0909 82.8668 44.375C83.4824 44.6591 83.9866 45.0568 84.3796 45.5682C84.7726 46.0795 85.0165 46.6761 85.1112 47.358H83.435C83.3072 46.8608 83.0231 46.4205 82.5827 46.0369C82.1471 45.6487 81.56 45.4545 80.8214 45.4545C80.168 45.4545 79.5951 45.625 79.1026 45.9659C78.6149 46.3021 78.2338 46.7779 77.9592 47.3935C77.6893 48.0043 77.5543 48.7216 77.5543 49.5455C77.5543 50.3883 77.6869 51.1222 77.9521 51.7472C78.2219 52.3722 78.6007 52.8575 79.0884 53.2031C79.5808 53.5488 80.1585 53.7216 80.8214 53.7216C81.257 53.7216 81.6523 53.6458 82.0075 53.4943C82.3626 53.3428 82.6632 53.125 82.9094 52.8409C83.1557 52.5568 83.3308 52.2159 83.435 51.8182H85.1112C85.0165 52.4621 84.7821 53.0421 84.408 53.5582C84.0387 54.0696 83.5487 54.4768 82.9379 54.7798C82.3318 55.0781 81.6263 55.2273 80.8214 55.2273ZM92.1353 55.2273C91.0842 55.2273 90.1774 54.9953 89.4151 54.5312C88.6576 54.0625 88.0728 53.4091 87.6609 52.571C87.2537 51.7282 87.0501 50.7481 87.0501 49.6307C87.0501 48.5133 87.2537 47.5284 87.6609 46.6761C88.0728 45.8191 88.6457 45.1515 89.3796 44.6733C90.1183 44.1903 90.98 43.9489 91.9648 43.9489C92.533 43.9489 93.0941 44.0436 93.6481 44.233C94.2021 44.4223 94.7063 44.7301 95.1609 45.1562C95.6154 45.5777 95.9776 46.1364 96.2475 46.8324C96.5174 47.5284 96.6523 48.3854 96.6523 49.4034V50.1136H88.2433V48.6648H94.9478C94.9478 48.0492 94.8247 47.5 94.5785 47.017C94.337 46.5341 93.9914 46.1529 93.5415 45.8736C93.0965 45.5942 92.5709 45.4545 91.9648 45.4545C91.2972 45.4545 90.7196 45.6203 90.2319 45.9517C89.7489 46.2784 89.3772 46.7045 89.1168 47.2301C88.8564 47.7557 88.7262 48.3191 88.7262 48.9205V49.8864C88.7262 50.7102 88.8683 51.4086 89.1523 51.9815C89.4412 52.5497 89.8413 52.983 90.3526 53.2812C90.864 53.5748 91.4582 53.7216 92.1353 53.7216C92.5756 53.7216 92.9734 53.66 93.3285 53.5369C93.6883 53.4091 93.9985 53.2197 94.2589 52.9688C94.5193 52.7131 94.7205 52.3958 94.8626 52.017L96.4819 52.4716C96.3114 53.0208 96.025 53.5038 95.6225 53.9205C95.2201 54.3324 94.7229 54.6544 94.131 54.8864C93.5392 55.1136 92.8739 55.2273 92.1353 55.2273ZM106.929 46.5341L105.424 46.9602C105.329 46.7093 105.189 46.4654 105.005 46.2287C104.825 45.9872 104.578 45.7884 104.266 45.6321C103.953 45.4759 103.553 45.3977 103.066 45.3977C102.398 45.3977 101.842 45.5516 101.397 45.8594C100.956 46.1624 100.736 46.5483 100.736 47.017C100.736 47.4337 100.888 47.7628 101.191 48.0043C101.494 48.2457 101.967 48.447 102.611 48.608L104.23 49.0057C105.206 49.2424 105.933 49.6046 106.411 50.0923C106.889 50.5753 107.128 51.1979 107.128 51.9602C107.128 52.5852 106.948 53.1439 106.588 53.6364C106.233 54.1288 105.736 54.517 105.097 54.8011C104.458 55.0852 103.714 55.2273 102.867 55.2273C101.754 55.2273 100.833 54.9858 100.104 54.5028C99.3749 54.0199 98.9132 53.3144 98.7191 52.3864L100.31 51.9886C100.462 52.5758 100.748 53.0161 101.169 53.3097C101.596 53.6032 102.152 53.75 102.838 53.75C103.62 53.75 104.24 53.5843 104.699 53.2528C105.163 52.9167 105.395 52.5142 105.395 52.0455C105.395 51.6667 105.263 51.3494 104.998 51.0938C104.732 50.8333 104.325 50.6392 103.776 50.5114L101.958 50.0852C100.959 49.8485 100.225 49.4815 99.756 48.9844C99.292 48.4825 99.06 47.8551 99.06 47.1023C99.06 46.4867 99.2328 45.9422 99.5785 45.4688C99.9289 44.9953 100.405 44.6236 101.006 44.3537C101.612 44.0838 102.299 43.9489 103.066 43.9489C104.145 43.9489 104.993 44.1856 105.608 44.6591C106.229 45.1326 106.669 45.7576 106.929 46.5341ZM117.379 46.5341L115.873 46.9602C115.778 46.7093 115.638 46.4654 115.454 46.2287C115.274 45.9872 115.028 45.7884 114.715 45.6321C114.403 45.4759 114.003 45.3977 113.515 45.3977C112.847 45.3977 112.291 45.5516 111.846 45.8594C111.406 46.1624 111.185 46.5483 111.185 47.017C111.185 47.4337 111.337 47.7628 111.64 48.0043C111.943 48.2457 112.416 48.447 113.06 48.608L114.68 49.0057C115.655 49.2424 116.382 49.6046 116.86 50.0923C117.338 50.5753 117.577 51.1979 117.577 51.9602C117.577 52.5852 117.397 53.1439 117.038 53.6364C116.683 54.1288 116.185 54.517 115.546 54.8011C114.907 55.0852 114.164 55.2273 113.316 55.2273C112.203 55.2273 111.282 54.9858 110.553 54.5028C109.824 54.0199 109.362 53.3144 109.168 52.3864L110.759 51.9886C110.911 52.5758 111.197 53.0161 111.619 53.3097C112.045 53.6032 112.601 53.75 113.288 53.75C114.069 53.75 114.689 53.5843 115.148 53.2528C115.612 52.9167 115.844 52.5142 115.844 52.0455C115.844 51.6667 115.712 51.3494 115.447 51.0938C115.182 50.8333 114.774 50.6392 114.225 50.5114L112.407 50.0852C111.408 49.8485 110.674 49.4815 110.205 48.9844C109.741 48.4825 109.509 47.8551 109.509 47.1023C109.509 46.4867 109.682 45.9422 110.028 45.4688C110.378 44.9953 110.854 44.6236 111.455 44.3537C112.061 44.0838 112.748 43.9489 113.515 43.9489C114.594 43.9489 115.442 44.1856 116.058 44.6591C116.678 45.1326 117.118 45.7576 117.379 46.5341Z" fill="black"/>
<path d="M250.534 47.0909V32.0909H252.153V33.8239H252.352C252.475 33.6345 252.646 33.393 252.864 33.0994C253.086 32.8011 253.403 32.536 253.815 32.304C254.232 32.0672 254.795 31.9489 255.506 31.9489C256.424 31.9489 257.234 32.1785 257.935 32.6378C258.635 33.0971 259.182 33.7481 259.575 34.5909C259.968 35.4337 260.165 36.428 260.165 37.5739C260.165 38.7292 259.968 39.7306 259.575 40.5781C259.182 41.4209 258.638 42.0743 257.942 42.5384C257.246 42.9976 256.443 43.2273 255.534 43.2273C254.833 43.2273 254.272 43.1113 253.851 42.8793C253.429 42.6425 253.105 42.375 252.878 42.0767C252.651 41.7737 252.475 41.5227 252.352 41.3239H252.21V47.0909H250.534ZM252.182 37.5455C252.182 38.3693 252.303 39.0961 252.544 39.7259C252.786 40.3509 253.138 40.8409 253.602 41.196C254.066 41.5464 254.634 41.7216 255.307 41.7216C256.008 41.7216 256.592 41.5369 257.061 41.1676C257.535 40.7936 257.89 40.2917 258.126 39.6619C258.368 39.0275 258.489 38.322 258.489 37.5455C258.489 36.7784 258.37 36.0871 258.134 35.4716C257.902 34.8513 257.549 34.3613 257.075 34.0014C256.607 33.6368 256.017 33.4545 255.307 33.4545C254.625 33.4545 254.052 33.6274 253.588 33.973C253.124 34.3139 252.774 34.7921 252.537 35.4077C252.3 36.0185 252.182 36.7311 252.182 37.5455ZM262.722 43V32.0909H264.341V33.7386H264.455C264.653 33.1989 265.013 32.7609 265.534 32.4247C266.055 32.0885 266.642 31.9205 267.295 31.9205C267.419 31.9205 267.572 31.9228 267.757 31.9276C267.942 31.9323 268.081 31.9394 268.176 31.9489V33.6534C268.119 33.6392 267.989 33.6179 267.786 33.5895C267.587 33.5563 267.376 33.5398 267.153 33.5398C266.623 33.5398 266.15 33.651 265.733 33.8736C265.321 34.0914 264.994 34.3944 264.753 34.7827C264.516 35.1662 264.398 35.6042 264.398 36.0966V43H262.722ZM274.405 43.2273C273.354 43.2273 272.447 42.9953 271.685 42.5312C270.927 42.0625 270.342 41.4091 269.93 40.571C269.523 39.7282 269.32 38.7481 269.32 37.6307C269.32 36.5133 269.523 35.5284 269.93 34.6761C270.342 33.8191 270.915 33.1515 271.649 32.6733C272.388 32.1903 273.25 31.9489 274.234 31.9489C274.803 31.9489 275.364 32.0436 275.918 32.233C276.472 32.4223 276.976 32.7301 277.43 33.1562C277.885 33.5777 278.247 34.1364 278.517 34.8324C278.787 35.5284 278.922 36.3854 278.922 37.4034V38.1136H270.513V36.6648H277.217C277.217 36.0492 277.094 35.5 276.848 35.017C276.607 34.5341 276.261 34.1529 275.811 33.8736C275.366 33.5942 274.84 33.4545 274.234 33.4545C273.567 33.4545 272.989 33.6203 272.501 33.9517C272.018 34.2784 271.647 34.7045 271.386 35.2301C271.126 35.7557 270.996 36.3191 270.996 36.9205V37.8864C270.996 38.7102 271.138 39.4086 271.422 39.9815C271.711 40.5497 272.111 40.983 272.622 41.2812C273.134 41.5748 273.728 41.7216 274.405 41.7216C274.845 41.7216 275.243 41.66 275.598 41.5369C275.958 41.4091 276.268 41.2197 276.528 40.9688C276.789 40.7131 276.99 40.3958 277.132 40.017L278.751 40.4716C278.581 41.0208 278.295 41.5038 277.892 41.9205C277.49 42.3324 276.992 42.6544 276.401 42.8864C275.809 43.1136 275.143 43.2273 274.405 43.2273ZM283.148 28.4545V43H281.472V28.4545H283.148ZM290.65 43.2273C289.665 43.2273 288.801 42.9929 288.057 42.5241C287.319 42.0554 286.741 41.3996 286.324 40.5568C285.912 39.714 285.706 38.7292 285.706 37.6023C285.706 36.4659 285.912 35.474 286.324 34.6264C286.741 33.7789 287.319 33.1207 288.057 32.652C288.801 32.1832 289.665 31.9489 290.65 31.9489C291.634 31.9489 292.496 32.1832 293.235 32.652C293.978 33.1207 294.556 33.7789 294.968 34.6264C295.384 35.474 295.593 36.4659 295.593 37.6023C295.593 38.7292 295.384 39.714 294.968 40.5568C294.556 41.3996 293.978 42.0554 293.235 42.5241C292.496 42.9929 291.634 43.2273 290.65 43.2273ZM290.65 41.7216C291.398 41.7216 292.013 41.5298 292.496 41.1463C292.979 40.7628 293.337 40.2585 293.569 39.6335C293.801 39.0085 293.917 38.3314 293.917 37.6023C293.917 36.8731 293.801 36.1937 293.569 35.5639C293.337 34.9342 292.979 34.4252 292.496 34.0369C292.013 33.6487 291.398 33.4545 290.65 33.4545C289.901 33.4545 289.286 33.6487 288.803 34.0369C288.32 34.4252 287.962 34.9342 287.73 35.5639C287.498 36.1937 287.382 36.8731 287.382 37.6023C287.382 38.3314 287.498 39.0085 287.73 39.6335C287.962 40.2585 288.32 40.7628 288.803 41.1463C289.286 41.5298 289.901 41.7216 290.65 41.7216ZM301.362 43.2557C300.67 43.2557 300.043 43.1255 299.479 42.8651C298.916 42.5999 298.469 42.2188 298.137 41.7216C297.806 41.2197 297.64 40.6136 297.64 39.9034C297.64 39.2784 297.763 38.7718 298.009 38.3835C298.255 37.9905 298.585 37.6828 298.996 37.4602C299.408 37.2377 299.863 37.072 300.36 36.9631C300.862 36.8494 301.366 36.7595 301.873 36.6932C302.536 36.608 303.073 36.544 303.485 36.5014C303.902 36.4541 304.205 36.3759 304.394 36.267C304.588 36.1581 304.685 35.9687 304.685 35.6989V35.642C304.685 34.9413 304.494 34.3968 304.11 34.0085C303.731 33.6203 303.156 33.4261 302.384 33.4261C301.584 33.4261 300.957 33.6013 300.502 33.9517C300.048 34.3021 299.728 34.6761 299.543 35.0739L297.952 34.5057C298.237 33.8428 298.615 33.3267 299.089 32.9574C299.567 32.5833 300.088 32.3229 300.651 32.1761C301.219 32.0246 301.778 31.9489 302.327 31.9489C302.678 31.9489 303.08 31.9915 303.535 32.0767C303.994 32.1572 304.437 32.3253 304.863 32.581C305.294 32.8366 305.651 33.2225 305.935 33.7386C306.219 34.2547 306.362 34.946 306.362 35.8125V43H304.685V41.5227H304.6C304.487 41.7595 304.297 42.0128 304.032 42.2827C303.767 42.5526 303.414 42.7822 302.974 42.9716C302.533 43.161 301.996 43.2557 301.362 43.2557ZM301.617 41.75C302.28 41.75 302.839 41.6198 303.293 41.3594C303.753 41.099 304.098 40.7628 304.33 40.3509C304.567 39.9389 304.685 39.5057 304.685 39.0511V37.517C304.614 37.6023 304.458 37.6804 304.217 37.7514C303.98 37.8177 303.705 37.8769 303.393 37.929C303.085 37.9763 302.784 38.0189 302.491 38.0568C302.202 38.09 301.968 38.1184 301.788 38.142C301.352 38.1989 300.945 38.2912 300.566 38.419C300.192 38.5421 299.889 38.7292 299.657 38.9801C299.43 39.2263 299.316 39.5625 299.316 39.9886C299.316 40.571 299.531 41.0114 299.962 41.3097C300.398 41.6032 300.95 41.75 301.617 41.75ZM313.54 43.2273C312.631 43.2273 311.828 42.9976 311.132 42.5384C310.436 42.0743 309.892 41.4209 309.499 40.5781C309.106 39.7306 308.909 38.7292 308.909 37.5739C308.909 36.428 309.106 35.4337 309.499 34.5909C309.892 33.7481 310.439 33.0971 311.14 32.6378C311.84 32.1785 312.65 31.9489 313.569 31.9489C314.279 31.9489 314.84 32.0672 315.252 32.304C315.668 32.536 315.986 32.8011 316.203 33.0994C316.426 33.393 316.599 33.6345 316.722 33.8239H316.864V28.4545H318.54V43H316.921V41.3239H316.722C316.599 41.5227 316.424 41.7737 316.196 42.0767C315.969 42.375 315.645 42.6425 315.223 42.8793C314.802 43.1113 314.241 43.2273 313.54 43.2273ZM313.767 41.7216C314.44 41.7216 315.008 41.5464 315.472 41.196C315.936 40.8409 316.289 40.3509 316.53 39.7259C316.772 39.0961 316.892 38.3693 316.892 37.5455C316.892 36.7311 316.774 36.0185 316.537 35.4077C316.301 34.7921 315.95 34.3139 315.486 33.973C315.022 33.6274 314.449 33.4545 313.767 33.4545C313.057 33.4545 312.465 33.6368 311.992 34.0014C311.523 34.3613 311.17 34.8513 310.934 35.4716C310.702 36.0871 310.586 36.7784 310.586 37.5455C310.586 38.322 310.704 39.0275 310.941 39.6619C311.182 40.2917 311.537 40.7936 312.006 41.1676C312.48 41.5369 313.067 41.7216 313.767 41.7216Z" fill="black"/>
<path d="M370.534 129V118.091H372.21V129H370.534ZM371.386 116.273C371.06 116.273 370.778 116.161 370.541 115.939C370.309 115.716 370.193 115.449 370.193 115.136C370.193 114.824 370.309 114.556 370.541 114.334C370.778 114.111 371.06 114 371.386 114C371.713 114 371.992 114.111 372.224 114.334C372.461 114.556 372.58 114.824 372.58 115.136C372.58 115.449 372.461 115.716 372.224 115.939C371.992 116.161 371.713 116.273 371.386 116.273ZM375.28 133.091V118.091H376.9V119.824H377.098C377.221 119.634 377.392 119.393 377.61 119.099C377.832 118.801 378.15 118.536 378.561 118.304C378.978 118.067 379.542 117.949 380.252 117.949C381.17 117.949 381.98 118.179 382.681 118.638C383.382 119.097 383.928 119.748 384.321 120.591C384.714 121.434 384.911 122.428 384.911 123.574C384.911 124.729 384.714 125.731 384.321 126.578C383.928 127.421 383.384 128.074 382.688 128.538C381.992 128.998 381.189 129.227 380.28 129.227C379.579 129.227 379.018 129.111 378.597 128.879C378.176 128.643 377.851 128.375 377.624 128.077C377.397 127.774 377.221 127.523 377.098 127.324H376.956V133.091H375.28ZM376.928 123.545C376.928 124.369 377.049 125.096 377.29 125.726C377.532 126.351 377.884 126.841 378.348 127.196C378.812 127.546 379.381 127.722 380.053 127.722C380.754 127.722 381.338 127.537 381.807 127.168C382.281 126.794 382.636 126.292 382.873 125.662C383.114 125.027 383.235 124.322 383.235 123.545C383.235 122.778 383.116 122.087 382.88 121.472C382.648 120.851 382.295 120.361 381.821 120.001C381.353 119.637 380.763 119.455 380.053 119.455C379.371 119.455 378.798 119.627 378.334 119.973C377.87 120.314 377.52 120.792 377.283 121.408C377.046 122.018 376.928 122.731 376.928 123.545ZM391.9 129.227C390.877 129.227 389.996 128.986 389.257 128.503C388.519 128.02 387.951 127.355 387.553 126.507C387.155 125.66 386.956 124.691 386.956 123.602C386.956 122.494 387.16 121.517 387.567 120.669C387.979 119.817 388.552 119.152 389.286 118.673C390.025 118.19 390.886 117.949 391.871 117.949C392.638 117.949 393.329 118.091 393.945 118.375C394.56 118.659 395.065 119.057 395.458 119.568C395.851 120.08 396.095 120.676 396.189 121.358H394.513C394.385 120.861 394.101 120.42 393.661 120.037C393.225 119.649 392.638 119.455 391.9 119.455C391.246 119.455 390.673 119.625 390.181 119.966C389.693 120.302 389.312 120.778 389.037 121.393C388.767 122.004 388.632 122.722 388.632 123.545C388.632 124.388 388.765 125.122 389.03 125.747C389.3 126.372 389.679 126.857 390.167 127.203C390.659 127.549 391.237 127.722 391.9 127.722C392.335 127.722 392.73 127.646 393.086 127.494C393.441 127.343 393.741 127.125 393.988 126.841C394.234 126.557 394.409 126.216 394.513 125.818H396.189C396.095 126.462 395.86 127.042 395.486 127.558C395.117 128.07 394.627 128.477 394.016 128.78C393.41 129.078 392.704 129.227 391.9 129.227ZM398.867 114.455H400.969L405.912 126.528H406.083L411.026 114.455H413.128V129H411.48V117.949H411.338L406.793 129H405.202L400.657 117.949H400.515V129H398.867V114.455ZM419.643 129.256C418.951 129.256 418.324 129.125 417.761 128.865C417.197 128.6 416.75 128.219 416.418 127.722C416.087 127.22 415.921 126.614 415.921 125.903C415.921 125.278 416.044 124.772 416.29 124.384C416.537 123.991 416.866 123.683 417.278 123.46C417.69 123.238 418.144 123.072 418.641 122.963C419.143 122.849 419.647 122.759 420.154 122.693C420.817 122.608 421.354 122.544 421.766 122.501C422.183 122.454 422.486 122.376 422.675 122.267C422.87 122.158 422.967 121.969 422.967 121.699V121.642C422.967 120.941 422.775 120.397 422.391 120.009C422.013 119.62 421.437 119.426 420.665 119.426C419.865 119.426 419.238 119.601 418.783 119.952C418.329 120.302 418.009 120.676 417.825 121.074L416.234 120.506C416.518 119.843 416.897 119.327 417.37 118.957C417.848 118.583 418.369 118.323 418.933 118.176C419.501 118.025 420.059 117.949 420.609 117.949C420.959 117.949 421.362 117.991 421.816 118.077C422.275 118.157 422.718 118.325 423.144 118.581C423.575 118.837 423.933 119.223 424.217 119.739C424.501 120.255 424.643 120.946 424.643 121.812V129H422.967V127.523H422.881C422.768 127.759 422.578 128.013 422.313 128.283C422.048 128.553 421.695 128.782 421.255 128.972C420.815 129.161 420.277 129.256 419.643 129.256ZM419.898 127.75C420.561 127.75 421.12 127.62 421.575 127.359C422.034 127.099 422.379 126.763 422.612 126.351C422.848 125.939 422.967 125.506 422.967 125.051V123.517C422.896 123.602 422.739 123.68 422.498 123.751C422.261 123.818 421.987 123.877 421.674 123.929C421.366 123.976 421.066 124.019 420.772 124.057C420.483 124.09 420.249 124.118 420.069 124.142C419.633 124.199 419.226 124.291 418.847 124.419C418.473 124.542 418.17 124.729 417.938 124.98C417.711 125.226 417.597 125.562 417.597 125.989C417.597 126.571 417.813 127.011 418.244 127.31C418.679 127.603 419.231 127.75 419.898 127.75ZM427.702 129V118.091H429.378V129H427.702ZM428.554 116.273C428.228 116.273 427.946 116.161 427.709 115.939C427.477 115.716 427.361 115.449 427.361 115.136C427.361 114.824 427.477 114.556 427.709 114.334C427.946 114.111 428.228 114 428.554 114C428.881 114 429.16 114.111 429.392 114.334C429.629 114.556 429.748 114.824 429.748 115.136C429.748 115.449 429.629 115.716 429.392 115.939C429.16 116.161 428.881 116.273 428.554 116.273ZM434.124 122.438V129H432.448V118.091H434.067V119.795H434.21C434.465 119.241 434.853 118.796 435.374 118.46C435.895 118.119 436.567 117.949 437.391 117.949C438.13 117.949 438.776 118.1 439.33 118.403C439.884 118.702 440.315 119.156 440.623 119.767C440.931 120.373 441.085 121.14 441.085 122.068V129H439.408V122.182C439.408 121.325 439.186 120.657 438.741 120.179C438.296 119.696 437.685 119.455 436.908 119.455C436.373 119.455 435.895 119.571 435.474 119.803C435.057 120.035 434.728 120.373 434.487 120.818C434.245 121.263 434.124 121.803 434.124 122.438ZM445.369 129.114C445.019 129.114 444.718 128.988 444.467 128.737C444.216 128.486 444.091 128.186 444.091 127.835C444.091 127.485 444.216 127.184 444.467 126.933C444.718 126.682 445.019 126.557 445.369 126.557C445.719 126.557 446.02 126.682 446.271 126.933C446.522 127.184 446.647 127.485 446.647 127.835C446.647 128.067 446.588 128.28 446.47 128.474C446.356 128.669 446.202 128.825 446.008 128.943C445.819 129.057 445.606 129.114 445.369 129.114ZM454.087 129.227C453.102 129.227 452.238 128.993 451.495 128.524C450.756 128.055 450.178 127.4 449.762 126.557C449.35 125.714 449.144 124.729 449.144 123.602C449.144 122.466 449.35 121.474 449.762 120.626C450.178 119.779 450.756 119.121 451.495 118.652C452.238 118.183 453.102 117.949 454.087 117.949C455.072 117.949 455.934 118.183 456.672 118.652C457.416 119.121 457.993 119.779 458.405 120.626C458.822 121.474 459.03 122.466 459.03 123.602C459.03 124.729 458.822 125.714 458.405 126.557C457.993 127.4 457.416 128.055 456.672 128.524C455.934 128.993 455.072 129.227 454.087 129.227ZM454.087 127.722C454.835 127.722 455.451 127.53 455.934 127.146C456.417 126.763 456.774 126.259 457.006 125.634C457.238 125.009 457.354 124.331 457.354 123.602C457.354 122.873 457.238 122.194 457.006 121.564C456.774 120.934 456.417 120.425 455.934 120.037C455.451 119.649 454.835 119.455 454.087 119.455C453.339 119.455 452.723 119.649 452.24 120.037C451.757 120.425 451.4 120.934 451.168 121.564C450.936 122.194 450.82 122.873 450.82 123.602C450.82 124.331 450.936 125.009 451.168 125.634C451.4 126.259 451.757 126.763 452.24 127.146C452.723 127.53 453.339 127.722 454.087 127.722ZM463.265 122.438V129H461.589V118.091H463.208V119.795H463.35C463.606 119.241 463.994 118.796 464.515 118.46C465.036 118.119 465.708 117.949 466.532 117.949C467.271 117.949 467.917 118.1 468.471 118.403C469.025 118.702 469.456 119.156 469.763 119.767C470.071 120.373 470.225 121.14 470.225 122.068V129H468.549V122.182C468.549 121.325 468.326 120.657 467.881 120.179C467.436 119.696 466.826 119.455 466.049 119.455C465.514 119.455 465.036 119.571 464.614 119.803C464.198 120.035 463.869 120.373 463.627 120.818C463.386 121.263 463.265 121.803 463.265 122.438Z" fill="#D9D9D9"/>
<line x1="286.5" y1="72" x2="286.5" y2="172" stroke="#71D3E9" stroke-width="3"/>
<line x1="80.5" y1="72" x2="80.5" y2="172" stroke="#71D3E9" stroke-width="3"/>
<path d="M492.055 137.066C492.644 136.483 492.649 135.533 492.066 134.945L482.566 125.352C481.983 124.764 481.034 124.759 480.445 125.342C479.856 125.925 479.852 126.875 480.435 127.463L488.879 135.99L480.352 144.434C479.764 145.017 479.759 145.966 480.342 146.555C480.925 147.144 481.875 147.148 482.463 146.565L492.055 137.066ZM284.993 136.5L490.993 137.5L491.007 134.5L285.007 133.5L284.993 136.5Z" fill="#71D3E9"/>
<path d="M286.055 105.066C286.644 104.483 286.649 103.533 286.066 102.945L276.566 93.3523C275.983 92.7637 275.034 92.7591 274.445 93.342C273.856 93.925 273.852 94.8747 274.435 95.4633L282.879 103.99L274.352 112.434C273.764 113.017 273.759 113.966 274.342 114.555C274.925 115.144 275.875 115.148 276.463 114.565L286.055 105.066ZM78.9927 104.5L284.993 105.5L285.007 102.5L79.0073 101.5L78.9927 104.5Z" fill="#71D3E9"/>
<line x1="489.5" y1="172" x2="489.5" y2="72" stroke="#71D3E9" stroke-width="3"/>
<path d="M108.159 98V87.0909H109.835V98H108.159ZM109.011 85.2727C108.685 85.2727 108.403 85.1615 108.166 84.9389C107.934 84.7164 107.818 84.4489 107.818 84.1364C107.818 83.8239 107.934 83.5563 108.166 83.3338C108.403 83.1113 108.685 83 109.011 83C109.338 83 109.617 83.1113 109.849 83.3338C110.086 83.5563 110.205 83.8239 110.205 84.1364C110.205 84.4489 110.086 84.7164 109.849 84.9389C109.617 85.1615 109.338 85.2727 109.011 85.2727ZM112.905 102.091V87.0909H114.525V88.8239H114.723C114.846 88.6345 115.017 88.393 115.235 88.0994C115.457 87.8011 115.775 87.536 116.186 87.304C116.603 87.0672 117.167 86.9489 117.877 86.9489C118.795 86.9489 119.605 87.1785 120.306 87.6378C121.007 88.0971 121.553 88.7481 121.946 89.5909C122.339 90.4337 122.536 91.428 122.536 92.5739C122.536 93.7292 122.339 94.7306 121.946 95.5781C121.553 96.4209 121.009 97.0743 120.313 97.5384C119.617 97.9976 118.814 98.2273 117.905 98.2273C117.204 98.2273 116.643 98.1113 116.222 97.8793C115.801 97.6425 115.476 97.375 115.249 97.0767C115.022 96.7737 114.846 96.5227 114.723 96.3239H114.581V102.091H112.905ZM114.553 92.5455C114.553 93.3693 114.674 94.0961 114.915 94.7259C115.157 95.3509 115.509 95.8409 115.973 96.196C116.437 96.5464 117.006 96.7216 117.678 96.7216C118.379 96.7216 118.963 96.5369 119.432 96.1676C119.906 95.7936 120.261 95.2917 120.498 94.6619C120.739 94.0275 120.86 93.322 120.86 92.5455C120.86 91.7784 120.741 91.0871 120.505 90.4716C120.273 89.8513 119.92 89.3613 119.446 89.0014C118.978 88.6368 118.388 88.4545 117.678 88.4545C116.996 88.4545 116.423 88.6274 115.959 88.973C115.495 89.3139 115.145 89.7921 114.908 90.4077C114.671 91.0185 114.553 91.7311 114.553 92.5455ZM129.525 98.2273C128.502 98.2273 127.621 97.9858 126.882 97.5028C126.144 97.0199 125.576 96.3546 125.178 95.5071C124.78 94.6596 124.581 93.6913 124.581 92.6023C124.581 91.4943 124.785 90.5166 125.192 89.669C125.604 88.8168 126.177 88.1515 126.911 87.6733C127.65 87.1903 128.511 86.9489 129.496 86.9489C130.263 86.9489 130.954 87.0909 131.57 87.375C132.185 87.6591 132.69 88.0568 133.083 88.5682C133.476 89.0795 133.72 89.6761 133.814 90.358H132.138C132.01 89.8608 131.726 89.4205 131.286 89.0369C130.85 88.6487 130.263 88.4545 129.525 88.4545C128.871 88.4545 128.298 88.625 127.806 88.9659C127.318 89.3021 126.937 89.7779 126.662 90.3935C126.392 91.0043 126.257 91.7216 126.257 92.5455C126.257 93.3883 126.39 94.1222 126.655 94.7472C126.925 95.3722 127.304 95.8575 127.792 96.2031C128.284 96.5488 128.862 96.7216 129.525 96.7216C129.96 96.7216 130.355 96.6458 130.711 96.4943C131.066 96.3428 131.366 96.125 131.613 95.8409C131.859 95.5568 132.034 95.2159 132.138 94.8182H133.814C133.72 95.4621 133.485 96.0421 133.111 96.5582C132.742 97.0696 132.252 97.4768 131.641 97.7798C131.035 98.0781 130.329 98.2273 129.525 98.2273ZM136.492 98V83.4545H141.407C142.543 83.4545 143.476 83.6487 144.205 84.0369C144.934 84.4205 145.474 84.9484 145.824 85.6207C146.175 86.2931 146.35 87.0578 146.35 87.9148C146.35 88.7718 146.175 89.5317 145.824 90.1946C145.474 90.8575 144.936 91.3783 144.212 91.7571C143.488 92.1312 142.562 92.3182 141.435 92.3182H137.458V90.7273H141.378C142.155 90.7273 142.78 90.6136 143.253 90.3864C143.731 90.1591 144.077 89.8371 144.29 89.4205C144.508 88.9991 144.617 88.4972 144.617 87.9148C144.617 87.3324 144.508 86.8234 144.29 86.3878C144.072 85.9522 143.724 85.616 143.246 85.3793C142.768 85.1378 142.136 85.017 141.35 85.017H138.253V98H136.492ZM143.338 91.4659L146.918 98H144.873L141.35 91.4659H143.338ZM153.514 98.2273C152.463 98.2273 151.556 97.9953 150.794 97.5312C150.036 97.0625 149.452 96.4091 149.04 95.571C148.633 94.7282 148.429 93.7481 148.429 92.6307C148.429 91.5133 148.633 90.5284 149.04 89.6761C149.452 88.8191 150.025 88.1515 150.759 87.6733C151.497 87.1903 152.359 86.9489 153.344 86.9489C153.912 86.9489 154.473 87.0436 155.027 87.233C155.581 87.4223 156.085 87.7301 156.54 88.1562C156.994 88.5777 157.357 89.1364 157.626 89.8324C157.896 90.5284 158.031 91.3854 158.031 92.4034V93.1136H149.622V91.6648H156.327C156.327 91.0492 156.204 90.5 155.957 90.017C155.716 89.5341 155.37 89.1529 154.92 88.8736C154.475 88.5942 153.95 88.4545 153.344 88.4545C152.676 88.4545 152.098 88.6203 151.611 88.9517C151.128 89.2784 150.756 89.7045 150.496 90.2301C150.235 90.7557 150.105 91.3191 150.105 91.9205V92.8864C150.105 93.7102 150.247 94.4086 150.531 94.9815C150.82 95.5497 151.22 95.983 151.732 96.2812C152.243 96.5748 152.837 96.7216 153.514 96.7216C153.955 96.7216 154.352 96.66 154.707 96.5369C155.067 96.4091 155.377 96.2197 155.638 95.9688C155.898 95.7131 156.099 95.3958 156.241 95.017L157.861 95.4716C157.69 96.0208 157.404 96.5038 157.001 96.9205C156.599 97.3324 156.102 97.6544 155.51 97.8864C154.918 98.1136 154.253 98.2273 153.514 98.2273ZM162.257 91.4375V98H160.581V87.0909H162.2V88.7955H162.342C162.598 88.2415 162.986 87.7964 163.507 87.4602C164.028 87.1193 164.7 86.9489 165.524 86.9489C166.263 86.9489 166.909 87.1004 167.463 87.4034C168.017 87.7017 168.448 88.1562 168.756 88.767C169.063 89.3731 169.217 90.1402 169.217 91.0682V98H167.541V91.1818C167.541 90.3248 167.319 89.6572 166.874 89.179C166.429 88.696 165.818 88.4545 165.041 88.4545C164.506 88.4545 164.028 88.5705 163.607 88.8026C163.19 89.0346 162.861 89.3731 162.619 89.8182C162.378 90.2633 162.257 90.803 162.257 91.4375ZM176.4 98.2273C175.49 98.2273 174.688 97.9976 173.992 97.5384C173.296 97.0743 172.751 96.4209 172.358 95.5781C171.965 94.7306 171.769 93.7292 171.769 92.5739C171.769 91.428 171.965 90.4337 172.358 89.5909C172.751 88.7481 173.298 88.0971 173.999 87.6378C174.7 87.1785 175.509 86.9489 176.428 86.9489C177.138 86.9489 177.699 87.0672 178.111 87.304C178.528 87.536 178.845 87.8011 179.063 88.0994C179.285 88.393 179.458 88.6345 179.581 88.8239H179.723V83.4545H181.4V98H179.78V96.3239H179.581C179.458 96.5227 179.283 96.7737 179.056 97.0767C178.828 97.375 178.504 97.6425 178.083 97.8793C177.661 98.1113 177.1 98.2273 176.4 98.2273ZM176.627 96.7216C177.299 96.7216 177.867 96.5464 178.331 96.196C178.795 95.8409 179.148 95.3509 179.39 94.7259C179.631 94.0961 179.752 93.3693 179.752 92.5455C179.752 91.7311 179.633 91.0185 179.397 90.4077C179.16 89.7921 178.81 89.3139 178.346 88.973C177.882 88.6274 177.309 88.4545 176.627 88.4545C175.917 88.4545 175.325 88.6368 174.851 89.0014C174.382 89.3613 174.03 89.8513 173.793 90.4716C173.561 91.0871 173.445 91.7784 173.445 92.5455C173.445 93.322 173.563 94.0275 173.8 94.6619C174.042 95.2917 174.397 95.7936 174.865 96.1676C175.339 96.5369 175.926 96.7216 176.627 96.7216ZM189.276 98.2273C188.225 98.2273 187.318 97.9953 186.556 97.5312C185.798 97.0625 185.213 96.4091 184.801 95.571C184.394 94.7282 184.191 93.7481 184.191 92.6307C184.191 91.5133 184.394 90.5284 184.801 89.6761C185.213 88.8191 185.786 88.1515 186.52 87.6733C187.259 87.1903 188.121 86.9489 189.105 86.9489C189.674 86.9489 190.235 87.0436 190.789 87.233C191.343 87.4223 191.847 87.7301 192.301 88.1562C192.756 88.5777 193.118 89.1364 193.388 89.8324C193.658 90.5284 193.793 91.3854 193.793 92.4034V93.1136H185.384V91.6648H192.088C192.088 91.0492 191.965 90.5 191.719 90.017C191.478 89.5341 191.132 89.1529 190.682 88.8736C190.237 88.5942 189.712 88.4545 189.105 88.4545C188.438 88.4545 187.86 88.6203 187.373 88.9517C186.89 89.2784 186.518 89.7045 186.257 90.2301C185.997 90.7557 185.867 91.3191 185.867 91.9205V92.8864C185.867 93.7102 186.009 94.4086 186.293 94.9815C186.582 95.5497 186.982 95.983 187.493 96.2812C188.005 96.5748 188.599 96.7216 189.276 96.7216C189.716 96.7216 190.114 96.66 190.469 96.5369C190.829 96.4091 191.139 96.2197 191.4 95.9688C191.66 95.7131 191.861 95.3958 192.003 95.017L193.623 95.4716C193.452 96.0208 193.166 96.5038 192.763 96.9205C192.361 97.3324 191.864 97.6544 191.272 97.8864C190.68 98.1136 190.015 98.2273 189.276 98.2273ZM196.343 98V87.0909H197.962V88.7386H198.076C198.275 88.1989 198.634 87.7609 199.155 87.4247C199.676 87.0885 200.263 86.9205 200.917 86.9205C201.04 86.9205 201.194 86.9228 201.378 86.9276C201.563 86.9323 201.703 86.9394 201.797 86.9489V88.6534C201.74 88.6392 201.61 88.6179 201.407 88.5895C201.208 88.5563 200.997 88.5398 200.775 88.5398C200.244 88.5398 199.771 88.651 199.354 88.8736C198.942 89.0914 198.615 89.3944 198.374 89.7827C198.137 90.1662 198.019 90.6042 198.019 91.0966V98H196.343ZM208.026 98.2273C206.975 98.2273 206.068 97.9953 205.306 97.5312C204.548 97.0625 203.963 96.4091 203.551 95.571C203.144 94.7282 202.941 93.7481 202.941 92.6307C202.941 91.5133 203.144 90.5284 203.551 89.6761C203.963 88.8191 204.536 88.1515 205.27 87.6733C206.009 87.1903 206.871 86.9489 207.855 86.9489C208.424 86.9489 208.985 87.0436 209.539 87.233C210.093 87.4223 210.597 87.7301 211.051 88.1562C211.506 88.5777 211.868 89.1364 212.138 89.8324C212.408 90.5284 212.543 91.3854 212.543 92.4034V93.1136H204.134V91.6648H210.838C210.838 91.0492 210.715 90.5 210.469 90.017C210.228 89.5341 209.882 89.1529 209.432 88.8736C208.987 88.5942 208.462 88.4545 207.855 88.4545C207.188 88.4545 206.61 88.6203 206.123 88.9517C205.64 89.2784 205.268 89.7045 205.007 90.2301C204.747 90.7557 204.617 91.3191 204.617 91.9205V92.8864C204.617 93.7102 204.759 94.4086 205.043 94.9815C205.332 95.5497 205.732 95.983 206.243 96.2812C206.755 96.5748 207.349 96.7216 208.026 96.7216C208.466 96.7216 208.864 96.66 209.219 96.5369C209.579 96.4091 209.889 96.2197 210.15 95.9688C210.41 95.7131 210.611 95.3958 210.753 95.017L212.373 95.4716C212.202 96.0208 211.916 96.5038 211.513 96.9205C211.111 97.3324 210.614 97.6544 210.022 97.8864C209.43 98.1136 208.765 98.2273 208.026 98.2273ZM215.093 98V87.0909H216.712V88.7386H216.826C217.025 88.1989 217.384 87.7609 217.905 87.4247C218.426 87.0885 219.013 86.9205 219.667 86.9205C219.79 86.9205 219.944 86.9228 220.128 86.9276C220.313 86.9323 220.453 86.9394 220.547 86.9489V88.6534C220.49 88.6392 220.36 88.6179 220.157 88.5895C219.958 88.5563 219.747 88.5398 219.525 88.5398C218.994 88.5398 218.521 88.651 218.104 88.8736C217.692 89.0914 217.365 89.3944 217.124 89.7827C216.887 90.1662 216.769 90.6042 216.769 91.0966V98H215.093ZM222.506 98.1136C222.155 98.1136 221.855 97.9882 221.604 97.7372C221.353 97.4863 221.227 97.1856 221.227 96.8352C221.227 96.4848 221.353 96.1842 221.604 95.9332C221.855 95.6823 222.155 95.5568 222.506 95.5568C222.856 95.5568 223.157 95.6823 223.408 95.9332C223.659 96.1842 223.784 96.4848 223.784 96.8352C223.784 97.0672 223.725 97.2803 223.607 97.4744C223.493 97.6686 223.339 97.8248 223.145 97.9432C222.955 98.0568 222.742 98.1136 222.506 98.1136ZM234.519 89.5341L233.013 89.9602C232.919 89.7093 232.779 89.4654 232.594 89.2287C232.415 88.9872 232.168 88.7884 231.856 88.6321C231.543 88.4759 231.143 88.3977 230.656 88.3977C229.988 88.3977 229.432 88.5516 228.987 88.8594C228.546 89.1624 228.326 89.5483 228.326 90.017C228.326 90.4337 228.478 90.7628 228.781 91.0043C229.084 91.2457 229.557 91.447 230.201 91.608L231.82 92.0057C232.796 92.2424 233.522 92.6046 234.001 93.0923C234.479 93.5753 234.718 94.1979 234.718 94.9602C234.718 95.5852 234.538 96.1439 234.178 96.6364C233.823 97.1288 233.326 97.517 232.687 97.8011C232.048 98.0852 231.304 98.2273 230.457 98.2273C229.344 98.2273 228.423 97.9858 227.694 97.5028C226.965 97.0199 226.503 96.3144 226.309 95.3864L227.9 94.9886C228.051 95.5758 228.338 96.0161 228.759 96.3097C229.185 96.6032 229.742 96.75 230.428 96.75C231.21 96.75 231.83 96.5843 232.289 96.2528C232.753 95.9167 232.985 95.5142 232.985 95.0455C232.985 94.6667 232.853 94.3494 232.587 94.0938C232.322 93.8333 231.915 93.6392 231.366 93.5114L229.548 93.0852C228.549 92.8485 227.815 92.4815 227.346 91.9844C226.882 91.4825 226.65 90.8551 226.65 90.1023C226.65 89.4867 226.823 88.9422 227.168 88.4688C227.519 87.9953 227.995 87.6236 228.596 87.3537C229.202 87.0838 229.888 86.9489 230.656 86.9489C231.735 86.9489 232.583 87.1856 233.198 87.6591C233.818 88.1326 234.259 88.7576 234.519 89.5341ZM241.815 98.2273C240.764 98.2273 239.857 97.9953 239.095 97.5312C238.337 97.0625 237.752 96.4091 237.341 95.571C236.933 94.7282 236.73 93.7481 236.73 92.6307C236.73 91.5133 236.933 90.5284 237.341 89.6761C237.752 88.8191 238.325 88.1515 239.059 87.6733C239.798 87.1903 240.66 86.9489 241.645 86.9489C242.213 86.9489 242.774 87.0436 243.328 87.233C243.882 87.4223 244.386 87.7301 244.841 88.1562C245.295 88.5777 245.657 89.1364 245.927 89.8324C246.197 90.5284 246.332 91.3854 246.332 92.4034V93.1136H237.923V91.6648H244.627C244.627 91.0492 244.504 90.5 244.258 90.017C244.017 89.5341 243.671 89.1529 243.221 88.8736C242.776 88.5942 242.251 88.4545 241.645 88.4545C240.977 88.4545 240.399 88.6203 239.912 88.9517C239.429 89.2784 239.057 89.7045 238.797 90.2301C238.536 90.7557 238.406 91.3191 238.406 91.9205V92.8864C238.406 93.7102 238.548 94.4086 238.832 94.9815C239.121 95.5497 239.521 95.983 240.032 96.2812C240.544 96.5748 241.138 96.7216 241.815 96.7216C242.255 96.7216 242.653 96.66 243.008 96.5369C243.368 96.4091 243.678 96.2197 243.939 95.9688C244.199 95.7131 244.4 95.3958 244.542 95.017L246.162 95.4716C245.991 96.0208 245.705 96.5038 245.302 96.9205C244.9 97.3324 244.403 97.6544 243.811 97.8864C243.219 98.1136 242.554 98.2273 241.815 98.2273ZM250.558 91.4375V98H248.882V87.0909H250.501V88.7955H250.643C250.899 88.2415 251.287 87.7964 251.808 87.4602C252.329 87.1193 253.001 86.9489 253.825 86.9489C254.564 86.9489 255.21 87.1004 255.764 87.4034C256.318 87.7017 256.749 88.1562 257.056 88.767C257.364 89.3731 257.518 90.1402 257.518 91.0682V98H255.842V91.1818C255.842 90.3248 255.619 89.6572 255.174 89.179C254.729 88.696 254.118 88.4545 253.342 88.4545C252.807 88.4545 252.329 88.5705 251.907 88.8026C251.491 89.0346 251.162 89.3731 250.92 89.8182C250.679 90.2633 250.558 90.803 250.558 91.4375ZM264.7 98.2273C263.791 98.2273 262.989 97.9976 262.293 97.5384C261.597 97.0743 261.052 96.4209 260.659 95.5781C260.266 94.7306 260.07 93.7292 260.07 92.5739C260.07 91.428 260.266 90.4337 260.659 89.5909C261.052 88.7481 261.599 88.0971 262.3 87.6378C263 87.1785 263.81 86.9489 264.729 86.9489C265.439 86.9489 266 87.0672 266.412 87.304C266.829 87.536 267.146 87.8011 267.364 88.0994C267.586 88.393 267.759 88.6345 267.882 88.8239H268.024V83.4545H269.7V98H268.081V96.3239H267.882C267.759 96.5227 267.584 96.7737 267.357 97.0767C267.129 97.375 266.805 97.6425 266.384 97.8793C265.962 98.1113 265.401 98.2273 264.7 98.2273ZM264.928 96.7216C265.6 96.7216 266.168 96.5464 266.632 96.196C267.096 95.8409 267.449 95.3509 267.69 94.7259C267.932 94.0961 268.053 93.3693 268.053 92.5455C268.053 91.7311 267.934 91.0185 267.697 90.4077C267.461 89.7921 267.11 89.3139 266.646 88.973C266.182 88.6274 265.609 88.4545 264.928 88.4545C264.217 88.4545 263.625 88.6368 263.152 89.0014C262.683 89.3613 262.33 89.8513 262.094 90.4716C261.862 91.0871 261.746 91.7784 261.746 92.5455C261.746 93.322 261.864 94.0275 262.101 94.6619C262.342 95.2917 262.697 95.7936 263.166 96.1676C263.64 96.5369 264.227 96.7216 264.928 96.7216Z" fill="#D9D9D9"/>
</svg>
