<svg width="570" height="234" viewBox="0 0 570 234" fill="none" xmlns="http://www.w3.org/2000/svg">
<rect x="412" width="158" height="72" fill="#D9D9D9"/>
<rect x="206" width="158" height="72" fill="#D9D9D9"/>
<rect width="158" height="72" fill="#D9D9D9"/>
<path d="M429.534 43V32.0909H431.153V33.7955H431.295C431.523 33.2131 431.89 32.7609 432.396 32.4389C432.903 32.1122 433.511 31.9489 434.222 31.9489C434.941 31.9489 435.54 32.1122 436.018 32.4389C436.501 32.7609 436.878 33.2131 437.148 33.7955H437.261C437.541 33.232 437.96 32.7846 438.518 32.4531C439.077 32.117 439.747 31.9489 440.528 31.9489C441.504 31.9489 442.302 32.2543 442.922 32.8651C443.542 33.4711 443.852 34.4157 443.852 35.6989V43H442.176V35.6989C442.176 34.8939 441.956 34.3187 441.516 33.973C441.075 33.6274 440.557 33.4545 439.96 33.4545C439.193 33.4545 438.599 33.6866 438.178 34.1506C437.756 34.6098 437.545 35.1922 437.545 35.8977V43H435.841V35.5284C435.841 34.9081 435.64 34.4086 435.237 34.0298C434.835 33.6463 434.316 33.4545 433.682 33.4545C433.246 33.4545 432.839 33.5705 432.46 33.8026C432.086 34.0346 431.783 34.3565 431.551 34.7685C431.324 35.1757 431.21 35.6468 431.21 36.1818V43H429.534ZM450.127 43.2557C449.436 43.2557 448.808 43.1255 448.245 42.8651C447.682 42.5999 447.234 42.2188 446.903 41.7216C446.571 41.2197 446.406 40.6136 446.406 39.9034C446.406 39.2784 446.529 38.7718 446.775 38.3835C447.021 37.9905 447.35 37.6828 447.762 37.4602C448.174 37.2377 448.629 37.072 449.126 36.9631C449.628 36.8494 450.132 36.7595 450.638 36.6932C451.301 36.608 451.839 36.544 452.251 36.5014C452.667 36.4541 452.97 36.3759 453.16 36.267C453.354 36.1581 453.451 35.9687 453.451 35.6989V35.642C453.451 34.9413 453.259 34.3968 452.876 34.0085C452.497 33.6203 451.922 33.4261 451.15 33.4261C450.35 33.4261 449.722 33.6013 449.268 33.9517C448.813 34.3021 448.494 34.6761 448.309 35.0739L446.718 34.5057C447.002 33.8428 447.381 33.3267 447.854 32.9574C448.333 32.5833 448.853 32.3229 449.417 32.1761C449.985 32.0246 450.544 31.9489 451.093 31.9489C451.443 31.9489 451.846 31.9915 452.3 32.0767C452.76 32.1572 453.202 32.3253 453.629 32.581C454.059 32.8366 454.417 33.2225 454.701 33.7386C454.985 34.2547 455.127 34.946 455.127 35.8125V43H453.451V41.5227H453.366C453.252 41.7595 453.063 42.0128 452.798 42.2827C452.532 42.5526 452.18 42.7822 451.739 42.9716C451.299 43.161 450.762 43.2557 450.127 43.2557ZM450.383 41.75C451.046 41.75 451.604 41.6198 452.059 41.3594C452.518 41.099 452.864 40.7628 453.096 40.3509C453.333 39.9389 453.451 39.5057 453.451 39.0511V37.517C453.38 37.6023 453.224 37.6804 452.982 37.7514C452.746 37.8177 452.471 37.8769 452.158 37.929C451.851 37.9763 451.55 38.0189 451.256 38.0568C450.968 38.09 450.733 38.1184 450.553 38.142C450.118 38.1989 449.71 38.2912 449.332 38.419C448.958 38.5421 448.655 38.7292 448.423 38.9801C448.195 39.2263 448.082 39.5625 448.082 39.9886C448.082 40.571 448.297 41.0114 448.728 41.3097C449.164 41.6032 449.715 41.75 450.383 41.75ZM458.186 43V32.0909H459.863V43H458.186ZM459.039 30.2727C458.712 30.2727 458.43 30.1615 458.194 29.9389C457.962 29.7164 457.846 29.4489 457.846 29.1364C457.846 28.8239 457.962 28.5563 458.194 28.3338C458.43 28.1113 458.712 28 459.039 28C459.365 28 459.645 28.1113 459.877 28.3338C460.114 28.5563 460.232 28.8239 460.232 29.1364C460.232 29.4489 460.114 29.7164 459.877 29.9389C459.645 30.1615 459.365 30.2727 459.039 30.2727ZM464.609 36.4375V43H462.933V32.0909H464.552V33.7955H464.694C464.95 33.2415 465.338 32.7964 465.859 32.4602C466.379 32.1193 467.052 31.9489 467.876 31.9489C468.614 31.9489 469.261 32.1004 469.815 32.4034C470.369 32.7017 470.799 33.1562 471.107 33.767C471.415 34.3731 471.569 35.1402 471.569 36.0682V43H469.893V36.1818C469.893 35.3248 469.67 34.6572 469.225 34.179C468.78 33.696 468.169 33.4545 467.393 33.4545C466.858 33.4545 466.379 33.5705 465.958 33.8026C465.541 34.0346 465.212 34.3731 464.971 34.8182C464.729 35.2633 464.609 35.803 464.609 36.4375ZM480.257 47.0909V32.0909H481.876V33.8239H482.075C482.198 33.6345 482.368 33.393 482.586 33.0994C482.809 32.8011 483.126 32.536 483.538 32.304C483.955 32.0672 484.518 31.9489 485.228 31.9489C486.147 31.9489 486.957 32.1785 487.657 32.6378C488.358 33.0971 488.905 33.7481 489.298 34.5909C489.691 35.4337 489.887 36.428 489.887 37.5739C489.887 38.7292 489.691 39.7306 489.298 40.5781C488.905 41.4209 488.36 42.0743 487.664 42.5384C486.968 42.9976 486.166 43.2273 485.257 43.2273C484.556 43.2273 483.995 43.1113 483.574 42.8793C483.152 42.6425 482.828 42.375 482.6 42.0767C482.373 41.7737 482.198 41.5227 482.075 41.3239H481.933V47.0909H480.257ZM481.904 37.5455C481.904 38.3693 482.025 39.0961 482.267 39.7259C482.508 40.3509 482.861 40.8409 483.325 41.196C483.789 41.5464 484.357 41.7216 485.029 41.7216C485.73 41.7216 486.315 41.5369 486.784 41.1676C487.257 40.7936 487.612 40.2917 487.849 39.6619C488.091 39.0275 488.211 38.322 488.211 37.5455C488.211 36.7784 488.093 36.0871 487.856 35.4716C487.624 34.8513 487.271 34.3613 486.798 34.0014C486.329 33.6368 485.74 33.4545 485.029 33.4545C484.348 33.4545 483.775 33.6274 483.311 33.973C482.847 34.3139 482.496 34.7921 482.26 35.4077C482.023 36.0185 481.904 36.7311 481.904 37.5455ZM492.444 43V32.0909H494.064V33.7386H494.177C494.376 33.1989 494.736 32.7609 495.257 32.4247C495.778 32.0885 496.365 31.9205 497.018 31.9205C497.141 31.9205 497.295 31.9228 497.48 31.9276C497.664 31.9323 497.804 31.9394 497.899 31.9489V33.6534C497.842 33.6392 497.712 33.6179 497.508 33.5895C497.309 33.5563 497.099 33.5398 496.876 33.5398C496.346 33.5398 495.872 33.651 495.456 33.8736C495.044 34.0914 494.717 34.3944 494.475 34.7827C494.239 35.1662 494.12 35.6042 494.12 36.0966V43H492.444ZM503.985 43.2273C503.001 43.2273 502.136 42.9929 501.393 42.5241C500.654 42.0554 500.077 41.3996 499.66 40.5568C499.248 39.714 499.042 38.7292 499.042 37.6023C499.042 36.4659 499.248 35.474 499.66 34.6264C500.077 33.7789 500.654 33.1207 501.393 32.652C502.136 32.1832 503.001 31.9489 503.985 31.9489C504.97 31.9489 505.832 32.1832 506.571 32.652C507.314 33.1207 507.892 33.7789 508.304 34.6264C508.72 35.474 508.929 36.4659 508.929 37.6023C508.929 38.7292 508.72 39.714 508.304 40.5568C507.892 41.3996 507.314 42.0554 506.571 42.5241C505.832 42.9929 504.97 43.2273 503.985 43.2273ZM503.985 41.7216C504.734 41.7216 505.349 41.5298 505.832 41.1463C506.315 40.7628 506.672 40.2585 506.904 39.6335C507.136 39.0085 507.252 38.3314 507.252 37.6023C507.252 36.8731 507.136 36.1937 506.904 35.5639C506.672 34.9342 506.315 34.4252 505.832 34.0369C505.349 33.6487 504.734 33.4545 503.985 33.4545C503.237 33.4545 502.622 33.6487 502.139 34.0369C501.656 34.4252 501.298 34.9342 501.066 35.5639C500.834 36.1937 500.718 36.8731 500.718 37.6023C500.718 38.3314 500.834 39.0085 501.066 39.6335C501.298 40.2585 501.656 40.7628 502.139 41.1463C502.622 41.5298 503.237 41.7216 503.985 41.7216ZM515.919 43.2273C514.896 43.2273 514.016 42.9858 513.277 42.5028C512.538 42.0199 511.97 41.3546 511.572 40.5071C511.175 39.6596 510.976 38.6913 510.976 37.6023C510.976 36.4943 511.179 35.5166 511.587 34.669C511.999 33.8168 512.571 33.1515 513.305 32.6733C514.044 32.1903 514.906 31.9489 515.891 31.9489C516.658 31.9489 517.349 32.0909 517.964 32.375C518.58 32.6591 519.084 33.0568 519.477 33.5682C519.87 34.0795 520.114 34.6761 520.209 35.358H518.533C518.405 34.8608 518.121 34.4205 517.68 34.0369C517.245 33.6487 516.658 33.4545 515.919 33.4545C515.266 33.4545 514.693 33.625 514.2 33.9659C513.713 34.3021 513.331 34.7779 513.057 35.3935C512.787 36.0043 512.652 36.7216 512.652 37.5455C512.652 38.3883 512.785 39.1222 513.05 39.7472C513.32 40.3722 513.698 40.8575 514.186 41.2031C514.679 41.5488 515.256 41.7216 515.919 41.7216C516.355 41.7216 516.75 41.6458 517.105 41.4943C517.46 41.3428 517.761 41.125 518.007 40.8409C518.253 40.5568 518.429 40.2159 518.533 39.8182H520.209C520.114 40.4621 519.88 41.0421 519.506 41.5582C519.136 42.0696 518.646 42.4768 518.036 42.7798C517.429 43.0781 516.724 43.2273 515.919 43.2273ZM527.233 43.2273C526.182 43.2273 525.275 42.9953 524.513 42.5312C523.755 42.0625 523.17 41.4091 522.759 40.571C522.351 39.7282 522.148 38.7481 522.148 37.6307C522.148 36.5133 522.351 35.5284 522.759 34.6761C523.17 33.8191 523.743 33.1515 524.477 32.6733C525.216 32.1903 526.078 31.9489 527.062 31.9489C527.631 31.9489 528.192 32.0436 528.746 32.233C529.3 32.4223 529.804 32.7301 530.259 33.1562C530.713 33.5777 531.075 34.1364 531.345 34.8324C531.615 35.5284 531.75 36.3854 531.75 37.4034V38.1136H523.341V36.6648H530.045C530.045 36.0492 529.922 35.5 529.676 35.017C529.435 34.5341 529.089 34.1529 528.639 33.8736C528.194 33.5942 527.669 33.4545 527.062 33.4545C526.395 33.4545 525.817 33.6203 525.33 33.9517C524.847 34.2784 524.475 34.7045 524.214 35.2301C523.954 35.7557 523.824 36.3191 523.824 36.9205V37.8864C523.824 38.7102 523.966 39.4086 524.25 39.9815C524.539 40.5497 524.939 40.983 525.45 41.2812C525.962 41.5748 526.556 41.7216 527.233 41.7216C527.673 41.7216 528.071 41.66 528.426 41.5369C528.786 41.4091 529.096 41.2197 529.357 40.9688C529.617 40.7131 529.818 40.3958 529.96 40.017L531.58 40.4716C531.409 41.0208 531.123 41.5038 530.72 41.9205C530.318 42.3324 529.821 42.6544 529.229 42.8864C528.637 43.1136 527.972 43.2273 527.233 43.2273ZM542.027 34.5341L540.521 34.9602C540.427 34.7093 540.287 34.4654 540.102 34.2287C539.922 33.9872 539.676 33.7884 539.364 33.6321C539.051 33.4759 538.651 33.3977 538.163 33.3977C537.496 33.3977 536.939 33.5516 536.494 33.8594C536.054 34.1624 535.834 34.5483 535.834 35.017C535.834 35.4337 535.985 35.7628 536.288 36.0043C536.591 36.2457 537.065 36.447 537.709 36.608L539.328 37.0057C540.304 37.2424 541.03 37.6046 541.509 38.0923C541.987 38.5753 542.226 39.1979 542.226 39.9602C542.226 40.5852 542.046 41.1439 541.686 41.6364C541.331 42.1288 540.834 42.517 540.195 42.8011C539.555 43.0852 538.812 43.2273 537.964 43.2273C536.852 43.2273 535.931 42.9858 535.202 42.5028C534.473 42.0199 534.011 41.3144 533.817 40.3864L535.408 39.9886C535.559 40.5758 535.846 41.0161 536.267 41.3097C536.693 41.6032 537.25 41.75 537.936 41.75C538.717 41.75 539.338 41.5843 539.797 41.2528C540.261 40.9167 540.493 40.5142 540.493 40.0455C540.493 39.6667 540.36 39.3494 540.095 39.0938C539.83 38.8333 539.423 38.6392 538.874 38.5114L537.055 38.0852C536.056 37.8485 535.322 37.4815 534.854 36.9844C534.39 36.4825 534.158 35.8551 534.158 35.1023C534.158 34.4867 534.33 33.9422 534.676 33.4688C535.027 32.9953 535.502 32.6236 536.104 32.3537C536.71 32.0838 537.396 31.9489 538.163 31.9489C539.243 31.9489 540.09 32.1856 540.706 32.6591C541.326 33.1326 541.767 33.7576 542.027 34.5341ZM552.476 34.5341L550.971 34.9602C550.876 34.7093 550.736 34.4654 550.551 34.2287C550.372 33.9872 550.125 33.7884 549.813 33.6321C549.5 33.4759 549.1 33.3977 548.613 33.3977C547.945 33.3977 547.389 33.5516 546.944 33.8594C546.503 34.1624 546.283 34.5483 546.283 35.017C546.283 35.4337 546.435 35.7628 546.738 36.0043C547.041 36.2457 547.514 36.447 548.158 36.608L549.777 37.0057C550.753 37.2424 551.48 37.6046 551.958 38.0923C552.436 38.5753 552.675 39.1979 552.675 39.9602C552.675 40.5852 552.495 41.1439 552.135 41.6364C551.78 42.1288 551.283 42.517 550.644 42.8011C550.005 43.0852 549.261 43.2273 548.414 43.2273C547.301 43.2273 546.38 42.9858 545.651 42.5028C544.922 42.0199 544.46 41.3144 544.266 40.3864L545.857 39.9886C546.008 40.5758 546.295 41.0161 546.716 41.3097C547.142 41.6032 547.699 41.75 548.385 41.75C549.167 41.75 549.787 41.5843 550.246 41.2528C550.71 40.9167 550.942 40.5142 550.942 40.0455C550.942 39.6667 550.81 39.3494 550.544 39.0938C550.279 38.8333 549.872 38.6392 549.323 38.5114L547.505 38.0852C546.506 37.8485 545.772 37.4815 545.303 36.9844C544.839 36.4825 544.607 35.8551 544.607 35.1023C544.607 34.4867 544.78 33.9422 545.125 33.4688C545.476 32.9953 545.952 32.6236 546.553 32.3537C547.159 32.0838 547.846 31.9489 548.613 31.9489C549.692 31.9489 550.54 32.1856 551.155 32.6591C551.775 33.1326 552.216 33.7576 552.476 34.5341Z" fill="black"/>
<path d="M39.5341 31V20.0909H41.1534V21.7386H41.267C41.4659 21.1989 41.8258 20.7609 42.3466 20.4247C42.8674 20.0885 43.4545 19.9205 44.108 19.9205C44.2311 19.9205 44.3849 19.9228 44.5696 19.9276C44.7543 19.9323 44.8939 19.9394 44.9886 19.9489V21.6534C44.9318 21.6392 44.8016 21.6179 44.598 21.5895C44.3991 21.5563 44.1884 21.5398 43.9659 21.5398C43.4356 21.5398 42.9621 21.651 42.5455 21.8736C42.1335 22.0914 41.8068 22.3944 41.5653 22.7827C41.3286 23.1662 41.2102 23.6042 41.2102 24.0966V31H39.5341ZM51.2173 31.2273C50.1662 31.2273 49.2595 30.9953 48.4972 30.5312C47.7396 30.0625 47.1548 29.4091 46.7429 28.571C46.3357 27.7282 46.1321 26.7481 46.1321 25.6307C46.1321 24.5133 46.3357 23.5284 46.7429 22.6761C47.1548 21.8191 47.7277 21.1515 48.4616 20.6733C49.2003 20.1903 50.062 19.9489 51.0469 19.9489C51.6151 19.9489 52.1761 20.0436 52.7301 20.233C53.2841 20.4223 53.7884 20.7301 54.2429 21.1562C54.6974 21.5777 55.0597 22.1364 55.3295 22.8324C55.5994 23.5284 55.7344 24.3854 55.7344 25.4034V26.1136H47.3253V24.6648H54.0298C54.0298 24.0492 53.9067 23.5 53.6605 23.017C53.419 22.5341 53.0734 22.1529 52.6236 21.8736C52.1785 21.5942 51.6529 21.4545 51.0469 21.4545C50.3793 21.4545 49.8016 21.6203 49.3139 21.9517C48.831 22.2784 48.4593 22.7045 48.1989 23.2301C47.9384 23.7557 47.8082 24.3191 47.8082 24.9205V25.8864C47.8082 26.7102 47.9503 27.4086 48.2344 27.9815C48.5232 28.5497 48.9233 28.983 49.4347 29.2812C49.946 29.5748 50.5402 29.7216 51.2173 29.7216C51.6577 29.7216 52.0554 29.66 52.4105 29.5369C52.7704 29.4091 53.0805 29.2197 53.3409 28.9688C53.6013 28.7131 53.8026 28.3958 53.9446 28.017L55.5639 28.4716C55.3935 29.0208 55.107 29.5038 54.7045 29.9205C54.3021 30.3324 53.8049 30.6544 53.2131 30.8864C52.6212 31.1136 51.956 31.2273 51.2173 31.2273ZM59.9602 24.4375V31H58.2841V20.0909H59.9034V21.7955H60.0455C60.3011 21.2415 60.6894 20.7964 61.2102 20.4602C61.7311 20.1193 62.4034 19.9489 63.2273 19.9489C63.9659 19.9489 64.6122 20.1004 65.1662 20.4034C65.7202 20.7017 66.151 21.1562 66.4588 21.767C66.7666 22.3731 66.9205 23.1402 66.9205 24.0682V31H65.2443V24.1818C65.2443 23.3248 65.0218 22.6572 64.5767 22.179C64.1316 21.696 63.5208 21.4545 62.7443 21.4545C62.2093 21.4545 61.7311 21.5705 61.3097 21.8026C60.893 22.0346 60.5639 22.3731 60.3224 22.8182C60.081 23.2633 59.9602 23.803 59.9602 24.4375ZM74.1026 31.2273C73.1935 31.2273 72.391 30.9976 71.695 30.5384C70.9989 30.0743 70.4544 29.4209 70.0614 28.5781C69.6684 27.7306 69.4719 26.7292 69.4719 25.5739C69.4719 24.428 69.6684 23.4337 70.0614 22.5909C70.4544 21.7481 71.0013 21.0971 71.7021 20.6378C72.4028 20.1785 73.2125 19.9489 74.131 19.9489C74.8413 19.9489 75.4023 20.0672 75.8143 20.304C76.2309 20.536 76.5482 20.8011 76.766 21.0994C76.9885 21.393 77.1613 21.6345 77.2844 21.8239H77.4265V16.4545H79.1026V31H77.4833V29.3239H77.2844C77.1613 29.5227 76.9862 29.7737 76.7589 30.0767C76.5316 30.375 76.2073 30.6425 75.7859 30.8793C75.3645 31.1113 74.8034 31.2273 74.1026 31.2273ZM74.3299 29.7216C75.0022 29.7216 75.5704 29.5464 76.0344 29.196C76.4985 28.8409 76.8512 28.3509 77.0927 27.7259C77.3342 27.0961 77.4549 26.3693 77.4549 25.5455C77.4549 24.7311 77.3365 24.0185 77.0998 23.4077C76.863 22.7921 76.5127 22.3139 76.0487 21.973C75.5846 21.6274 75.0117 21.4545 74.3299 21.4545C73.6197 21.4545 73.0278 21.6368 72.5543 22.0014C72.0856 22.3613 71.7328 22.8513 71.4961 23.4716C71.2641 24.0871 71.1481 24.7784 71.1481 25.5455C71.1481 26.322 71.2665 27.0275 71.5032 27.6619C71.7447 28.2917 72.0998 28.7936 72.5685 29.1676C73.042 29.5369 73.6291 29.7216 74.3299 29.7216ZM86.979 31.2273C85.9279 31.2273 85.0212 30.9953 84.2589 30.5312C83.5013 30.0625 82.9165 29.4091 82.5046 28.571C82.0974 27.7282 81.8938 26.7481 81.8938 25.6307C81.8938 24.5133 82.0974 23.5284 82.5046 22.6761C82.9165 21.8191 83.4895 21.1515 84.2234 20.6733C84.962 20.1903 85.8237 19.9489 86.8086 19.9489C87.3768 19.9489 87.9379 20.0436 88.4918 20.233C89.0458 20.4223 89.5501 20.7301 90.0046 21.1562C90.4592 21.5777 90.8214 22.1364 91.0913 22.8324C91.3612 23.5284 91.4961 24.3854 91.4961 25.4034V26.1136H83.087V24.6648H89.7915C89.7915 24.0492 89.6684 23.5 89.4222 23.017C89.1808 22.5341 88.8351 22.1529 88.3853 21.8736C87.9402 21.5942 87.4147 21.4545 86.8086 21.4545C86.141 21.4545 85.5633 21.6203 85.0756 21.9517C84.5927 22.2784 84.221 22.7045 83.9606 23.2301C83.7002 23.7557 83.57 24.3191 83.57 24.9205V25.8864C83.57 26.7102 83.712 27.4086 83.9961 27.9815C84.2849 28.5497 84.685 28.983 85.1964 29.2812C85.7077 29.5748 86.302 29.7216 86.979 29.7216C87.4194 29.7216 87.8171 29.66 88.1722 29.5369C88.5321 29.4091 88.8422 29.2197 89.1026 28.9688C89.363 28.7131 89.5643 28.3958 89.7063 28.017L91.3256 28.4716C91.1552 29.0208 90.8687 29.5038 90.4663 29.9205C90.0638 30.3324 89.5666 30.6544 88.9748 30.8864C88.3829 31.1136 87.7177 31.2273 86.979 31.2273ZM94.0458 31V20.0909H95.6651V21.7386H95.7788C95.9776 21.1989 96.3375 20.7609 96.8583 20.4247C97.3791 20.0885 97.9663 19.9205 98.6197 19.9205C98.7428 19.9205 98.8967 19.9228 99.0813 19.9276C99.266 19.9323 99.4057 19.9394 99.5004 19.9489V21.6534C99.4435 21.6392 99.3133 21.6179 99.1097 21.5895C98.9109 21.5563 98.7002 21.5398 98.4776 21.5398C97.9473 21.5398 97.4738 21.651 97.0572 21.8736C96.6452 22.0914 96.3185 22.3944 96.0771 22.7827C95.8403 23.1662 95.7219 23.6042 95.7219 24.0966V31H94.0458ZM105.729 31.2273C104.678 31.2273 103.771 30.9953 103.009 30.5312C102.251 30.0625 101.667 29.4091 101.255 28.571C100.847 27.7282 100.644 26.7481 100.644 25.6307C100.644 24.5133 100.847 23.5284 101.255 22.6761C101.667 21.8191 102.239 21.1515 102.973 20.6733C103.712 20.1903 104.574 19.9489 105.559 19.9489C106.127 19.9489 106.688 20.0436 107.242 20.233C107.796 20.4223 108.3 20.7301 108.755 21.1562C109.209 21.5777 109.571 22.1364 109.841 22.8324C110.111 23.5284 110.246 24.3854 110.246 25.4034V26.1136H101.837V24.6648H108.542C108.542 24.0492 108.418 23.5 108.172 23.017C107.931 22.5341 107.585 22.1529 107.135 21.8736C106.69 21.5942 106.165 21.4545 105.559 21.4545C104.891 21.4545 104.313 21.6203 103.826 21.9517C103.343 22.2784 102.971 22.7045 102.711 23.2301C102.45 23.7557 102.32 24.3191 102.32 24.9205V25.8864C102.32 26.7102 102.462 27.4086 102.746 27.9815C103.035 28.5497 103.435 28.983 103.946 29.2812C104.458 29.5748 105.052 29.7216 105.729 29.7216C106.169 29.7216 106.567 29.66 106.922 29.5369C107.282 29.4091 107.592 29.2197 107.853 28.9688C108.113 28.7131 108.314 28.3958 108.456 28.017L110.076 28.4716C109.905 29.0208 109.619 29.5038 109.216 29.9205C108.814 30.3324 108.317 30.6544 107.725 30.8864C107.133 31.1136 106.468 31.2273 105.729 31.2273ZM112.796 31V20.0909H114.415V21.7386H114.529C114.728 21.1989 115.087 20.7609 115.608 20.4247C116.129 20.0885 116.716 19.9205 117.37 19.9205C117.493 19.9205 117.647 19.9228 117.831 19.9276C118.016 19.9323 118.156 19.9394 118.25 19.9489V21.6534C118.194 21.6392 118.063 21.6179 117.86 21.5895C117.661 21.5563 117.45 21.5398 117.228 21.5398C116.697 21.5398 116.224 21.651 115.807 21.8736C115.395 22.0914 115.069 22.3944 114.827 22.7827C114.59 23.1662 114.472 23.6042 114.472 24.0966V31H112.796ZM45.1591 59.0909V44.0909H46.7784V45.8239H46.9773C47.1004 45.6345 47.2708 45.393 47.4886 45.0994C47.7112 44.8011 48.0284 44.536 48.4403 44.304C48.857 44.0672 49.4205 43.9489 50.1307 43.9489C51.0492 43.9489 51.8589 44.1785 52.5597 44.6378C53.2604 45.0971 53.8073 45.7481 54.2003 46.5909C54.5933 47.4337 54.7898 48.428 54.7898 49.5739C54.7898 50.7292 54.5933 51.7306 54.2003 52.5781C53.8073 53.4209 53.2628 54.0743 52.5668 54.5384C51.8707 54.9976 51.0682 55.2273 50.1591 55.2273C49.4583 55.2273 48.8973 55.1113 48.4759 54.8793C48.0545 54.6425 47.7301 54.375 47.5028 54.0767C47.2756 53.7737 47.1004 53.5227 46.9773 53.3239H46.8352V59.0909H45.1591ZM46.8068 49.5455C46.8068 50.3693 46.9276 51.0961 47.169 51.7259C47.4105 52.3509 47.7633 52.8409 48.2273 53.196C48.6913 53.5464 49.2595 53.7216 49.9318 53.7216C50.6326 53.7216 51.2173 53.5369 51.6861 53.1676C52.1596 52.7936 52.5147 52.2917 52.7514 51.6619C52.9929 51.0275 53.1136 50.322 53.1136 49.5455C53.1136 48.7784 52.9953 48.0871 52.7585 47.4716C52.5265 46.8513 52.1738 46.3613 51.7003 46.0014C51.2315 45.6368 50.642 45.4545 49.9318 45.4545C49.25 45.4545 48.6771 45.6274 48.2131 45.973C47.7491 46.3139 47.3987 46.7921 47.1619 47.4077C46.9252 48.0185 46.8068 48.7311 46.8068 49.5455ZM57.3466 55V44.0909H58.9659V45.7386H59.0795C59.2784 45.1989 59.6383 44.7609 60.1591 44.4247C60.6799 44.0885 61.267 43.9205 61.9205 43.9205C62.0436 43.9205 62.1974 43.9228 62.3821 43.9276C62.5668 43.9323 62.7064 43.9394 62.8011 43.9489V45.6534C62.7443 45.6392 62.6141 45.6179 62.4105 45.5895C62.2116 45.5563 62.0009 45.5398 61.7784 45.5398C61.2481 45.5398 60.7746 45.651 60.358 45.8736C59.946 46.0914 59.6193 46.3944 59.3778 46.7827C59.1411 47.1662 59.0227 47.6042 59.0227 48.0966V55H57.3466ZM68.8878 55.2273C67.9029 55.2273 67.0388 54.9929 66.2955 54.5241C65.5568 54.0554 64.9792 53.3996 64.5625 52.5568C64.1506 51.714 63.9446 50.7292 63.9446 49.6023C63.9446 48.4659 64.1506 47.474 64.5625 46.6264C64.9792 45.7789 65.5568 45.1207 66.2955 44.652C67.0388 44.1832 67.9029 43.9489 68.8878 43.9489C69.8726 43.9489 70.7344 44.1832 71.473 44.652C72.2164 45.1207 72.794 45.7789 73.206 46.6264C73.6226 47.474 73.831 48.4659 73.831 49.6023C73.831 50.7292 73.6226 51.714 73.206 52.5568C72.794 53.3996 72.2164 54.0554 71.473 54.5241C70.7344 54.9929 69.8726 55.2273 68.8878 55.2273ZM68.8878 53.7216C69.6359 53.7216 70.2514 53.5298 70.7344 53.1463C71.2173 52.7628 71.5748 52.2585 71.8068 51.6335C72.0388 51.0085 72.1548 50.3314 72.1548 49.6023C72.1548 48.8731 72.0388 48.1937 71.8068 47.5639C71.5748 46.9342 71.2173 46.4252 70.7344 46.0369C70.2514 45.6487 69.6359 45.4545 68.8878 45.4545C68.1397 45.4545 67.5241 45.6487 67.0412 46.0369C66.5582 46.4252 66.2008 46.9342 65.9688 47.5639C65.7367 48.1937 65.6207 48.8731 65.6207 49.6023C65.6207 50.3314 65.7367 51.0085 65.9688 51.6335C66.2008 52.2585 66.5582 52.7628 67.0412 53.1463C67.5241 53.5298 68.1397 53.7216 68.8878 53.7216ZM80.8214 55.2273C79.7987 55.2273 78.918 54.9858 78.1793 54.5028C77.4407 54.0199 76.8725 53.3546 76.4748 52.5071C76.0771 51.6596 75.8782 50.6913 75.8782 49.6023C75.8782 48.4943 76.0818 47.5166 76.489 46.669C76.9009 45.8168 77.4738 45.1515 78.2077 44.6733C78.9464 44.1903 79.8081 43.9489 80.793 43.9489C81.56 43.9489 82.2513 44.0909 82.8668 44.375C83.4824 44.6591 83.9866 45.0568 84.3796 45.5682C84.7726 46.0795 85.0165 46.6761 85.1112 47.358H83.435C83.3072 46.8608 83.0231 46.4205 82.5827 46.0369C82.1471 45.6487 81.56 45.4545 80.8214 45.4545C80.168 45.4545 79.5951 45.625 79.1026 45.9659C78.6149 46.3021 78.2338 46.7779 77.9592 47.3935C77.6893 48.0043 77.5543 48.7216 77.5543 49.5455C77.5543 50.3883 77.6869 51.1222 77.9521 51.7472C78.2219 52.3722 78.6007 52.8575 79.0884 53.2031C79.5808 53.5488 80.1585 53.7216 80.8214 53.7216C81.257 53.7216 81.6523 53.6458 82.0075 53.4943C82.3626 53.3428 82.6632 53.125 82.9094 52.8409C83.1557 52.5568 83.3308 52.2159 83.435 51.8182H85.1112C85.0165 52.4621 84.7821 53.0421 84.408 53.5582C84.0387 54.0696 83.5487 54.4768 82.9379 54.7798C82.3318 55.0781 81.6263 55.2273 80.8214 55.2273ZM92.1353 55.2273C91.0842 55.2273 90.1774 54.9953 89.4151 54.5312C88.6576 54.0625 88.0728 53.4091 87.6609 52.571C87.2537 51.7282 87.0501 50.7481 87.0501 49.6307C87.0501 48.5133 87.2537 47.5284 87.6609 46.6761C88.0728 45.8191 88.6457 45.1515 89.3796 44.6733C90.1183 44.1903 90.98 43.9489 91.9648 43.9489C92.533 43.9489 93.0941 44.0436 93.6481 44.233C94.2021 44.4223 94.7063 44.7301 95.1609 45.1562C95.6154 45.5777 95.9776 46.1364 96.2475 46.8324C96.5174 47.5284 96.6523 48.3854 96.6523 49.4034V50.1136H88.2433V48.6648H94.9478C94.9478 48.0492 94.8247 47.5 94.5785 47.017C94.337 46.5341 93.9914 46.1529 93.5415 45.8736C93.0965 45.5942 92.5709 45.4545 91.9648 45.4545C91.2972 45.4545 90.7196 45.6203 90.2319 45.9517C89.7489 46.2784 89.3772 46.7045 89.1168 47.2301C88.8564 47.7557 88.7262 48.3191 88.7262 48.9205V49.8864C88.7262 50.7102 88.8683 51.4086 89.1523 51.9815C89.4412 52.5497 89.8413 52.983 90.3526 53.2812C90.864 53.5748 91.4582 53.7216 92.1353 53.7216C92.5756 53.7216 92.9734 53.66 93.3285 53.5369C93.6883 53.4091 93.9985 53.2197 94.2589 52.9688C94.5193 52.7131 94.7205 52.3958 94.8626 52.017L96.4819 52.4716C96.3114 53.0208 96.025 53.5038 95.6225 53.9205C95.2201 54.3324 94.7229 54.6544 94.131 54.8864C93.5392 55.1136 92.8739 55.2273 92.1353 55.2273ZM106.929 46.5341L105.424 46.9602C105.329 46.7093 105.189 46.4654 105.005 46.2287C104.825 45.9872 104.578 45.7884 104.266 45.6321C103.953 45.4759 103.553 45.3977 103.066 45.3977C102.398 45.3977 101.842 45.5516 101.397 45.8594C100.956 46.1624 100.736 46.5483 100.736 47.017C100.736 47.4337 100.888 47.7628 101.191 48.0043C101.494 48.2457 101.967 48.447 102.611 48.608L104.23 49.0057C105.206 49.2424 105.933 49.6046 106.411 50.0923C106.889 50.5753 107.128 51.1979 107.128 51.9602C107.128 52.5852 106.948 53.1439 106.588 53.6364C106.233 54.1288 105.736 54.517 105.097 54.8011C104.458 55.0852 103.714 55.2273 102.867 55.2273C101.754 55.2273 100.833 54.9858 100.104 54.5028C99.3749 54.0199 98.9132 53.3144 98.7191 52.3864L100.31 51.9886C100.462 52.5758 100.748 53.0161 101.169 53.3097C101.596 53.6032 102.152 53.75 102.838 53.75C103.62 53.75 104.24 53.5843 104.699 53.2528C105.163 52.9167 105.395 52.5142 105.395 52.0455C105.395 51.6667 105.263 51.3494 104.998 51.0938C104.732 50.8333 104.325 50.6392 103.776 50.5114L101.958 50.0852C100.959 49.8485 100.225 49.4815 99.756 48.9844C99.292 48.4825 99.06 47.8551 99.06 47.1023C99.06 46.4867 99.2328 45.9422 99.5785 45.4688C99.9289 44.9953 100.405 44.6236 101.006 44.3537C101.612 44.0838 102.299 43.9489 103.066 43.9489C104.145 43.9489 104.993 44.1856 105.608 44.6591C106.229 45.1326 106.669 45.7576 106.929 46.5341ZM117.379 46.5341L115.873 46.9602C115.778 46.7093 115.638 46.4654 115.454 46.2287C115.274 45.9872 115.028 45.7884 114.715 45.6321C114.403 45.4759 114.003 45.3977 113.515 45.3977C112.847 45.3977 112.291 45.5516 111.846 45.8594C111.406 46.1624 111.185 46.5483 111.185 47.017C111.185 47.4337 111.337 47.7628 111.64 48.0043C111.943 48.2457 112.416 48.447 113.06 48.608L114.68 49.0057C115.655 49.2424 116.382 49.6046 116.86 50.0923C117.338 50.5753 117.577 51.1979 117.577 51.9602C117.577 52.5852 117.397 53.1439 117.038 53.6364C116.683 54.1288 116.185 54.517 115.546 54.8011C114.907 55.0852 114.164 55.2273 113.316 55.2273C112.203 55.2273 111.282 54.9858 110.553 54.5028C109.824 54.0199 109.362 53.3144 109.168 52.3864L110.759 51.9886C110.911 52.5758 111.197 53.0161 111.619 53.3097C112.045 53.6032 112.601 53.75 113.288 53.75C114.069 53.75 114.689 53.5843 115.148 53.2528C115.612 52.9167 115.844 52.5142 115.844 52.0455C115.844 51.6667 115.712 51.3494 115.447 51.0938C115.182 50.8333 114.774 50.6392 114.225 50.5114L112.407 50.0852C111.408 49.8485 110.674 49.4815 110.205 48.9844C109.741 48.4825 109.509 47.8551 109.509 47.1023C109.509 46.4867 109.682 45.9422 110.028 45.4688C110.378 44.9953 110.854 44.6236 111.455 44.3537C112.061 44.0838 112.748 43.9489 113.515 43.9489C114.594 43.9489 115.442 44.1856 116.058 44.6591C116.678 45.1326 117.118 45.7576 117.379 46.5341Z" fill="black"/>
<path d="M250.534 47.0909V32.0909H252.153V33.8239H252.352C252.475 33.6345 252.646 33.393 252.864 33.0994C253.086 32.8011 253.403 32.536 253.815 32.304C254.232 32.0672 254.795 31.9489 255.506 31.9489C256.424 31.9489 257.234 32.1785 257.935 32.6378C258.635 33.0971 259.182 33.7481 259.575 34.5909C259.968 35.4337 260.165 36.428 260.165 37.5739C260.165 38.7292 259.968 39.7306 259.575 40.5781C259.182 41.4209 258.638 42.0743 257.942 42.5384C257.246 42.9976 256.443 43.2273 255.534 43.2273C254.833 43.2273 254.272 43.1113 253.851 42.8793C253.429 42.6425 253.105 42.375 252.878 42.0767C252.651 41.7737 252.475 41.5227 252.352 41.3239H252.21V47.0909H250.534ZM252.182 37.5455C252.182 38.3693 252.303 39.0961 252.544 39.7259C252.786 40.3509 253.138 40.8409 253.602 41.196C254.066 41.5464 254.634 41.7216 255.307 41.7216C256.008 41.7216 256.592 41.5369 257.061 41.1676C257.535 40.7936 257.89 40.2917 258.126 39.6619C258.368 39.0275 258.489 38.322 258.489 37.5455C258.489 36.7784 258.37 36.0871 258.134 35.4716C257.902 34.8513 257.549 34.3613 257.075 34.0014C256.607 33.6368 256.017 33.4545 255.307 33.4545C254.625 33.4545 254.052 33.6274 253.588 33.973C253.124 34.3139 252.774 34.7921 252.537 35.4077C252.3 36.0185 252.182 36.7311 252.182 37.5455ZM262.722 43V32.0909H264.341V33.7386H264.455C264.653 33.1989 265.013 32.7609 265.534 32.4247C266.055 32.0885 266.642 31.9205 267.295 31.9205C267.419 31.9205 267.572 31.9228 267.757 31.9276C267.942 31.9323 268.081 31.9394 268.176 31.9489V33.6534C268.119 33.6392 267.989 33.6179 267.786 33.5895C267.587 33.5563 267.376 33.5398 267.153 33.5398C266.623 33.5398 266.15 33.651 265.733 33.8736C265.321 34.0914 264.994 34.3944 264.753 34.7827C264.516 35.1662 264.398 35.6042 264.398 36.0966V43H262.722ZM274.405 43.2273C273.354 43.2273 272.447 42.9953 271.685 42.5312C270.927 42.0625 270.342 41.4091 269.93 40.571C269.523 39.7282 269.32 38.7481 269.32 37.6307C269.32 36.5133 269.523 35.5284 269.93 34.6761C270.342 33.8191 270.915 33.1515 271.649 32.6733C272.388 32.1903 273.25 31.9489 274.234 31.9489C274.803 31.9489 275.364 32.0436 275.918 32.233C276.472 32.4223 276.976 32.7301 277.43 33.1562C277.885 33.5777 278.247 34.1364 278.517 34.8324C278.787 35.5284 278.922 36.3854 278.922 37.4034V38.1136H270.513V36.6648H277.217C277.217 36.0492 277.094 35.5 276.848 35.017C276.607 34.5341 276.261 34.1529 275.811 33.8736C275.366 33.5942 274.84 33.4545 274.234 33.4545C273.567 33.4545 272.989 33.6203 272.501 33.9517C272.018 34.2784 271.647 34.7045 271.386 35.2301C271.126 35.7557 270.996 36.3191 270.996 36.9205V37.8864C270.996 38.7102 271.138 39.4086 271.422 39.9815C271.711 40.5497 272.111 40.983 272.622 41.2812C273.134 41.5748 273.728 41.7216 274.405 41.7216C274.845 41.7216 275.243 41.66 275.598 41.5369C275.958 41.4091 276.268 41.2197 276.528 40.9688C276.789 40.7131 276.99 40.3958 277.132 40.017L278.751 40.4716C278.581 41.0208 278.295 41.5038 277.892 41.9205C277.49 42.3324 276.992 42.6544 276.401 42.8864C275.809 43.1136 275.143 43.2273 274.405 43.2273ZM283.148 28.4545V43H281.472V28.4545H283.148ZM290.65 43.2273C289.665 43.2273 288.801 42.9929 288.057 42.5241C287.319 42.0554 286.741 41.3996 286.324 40.5568C285.912 39.714 285.706 38.7292 285.706 37.6023C285.706 36.4659 285.912 35.474 286.324 34.6264C286.741 33.7789 287.319 33.1207 288.057 32.652C288.801 32.1832 289.665 31.9489 290.65 31.9489C291.634 31.9489 292.496 32.1832 293.235 32.652C293.978 33.1207 294.556 33.7789 294.968 34.6264C295.384 35.474 295.593 36.4659 295.593 37.6023C295.593 38.7292 295.384 39.714 294.968 40.5568C294.556 41.3996 293.978 42.0554 293.235 42.5241C292.496 42.9929 291.634 43.2273 290.65 43.2273ZM290.65 41.7216C291.398 41.7216 292.013 41.5298 292.496 41.1463C292.979 40.7628 293.337 40.2585 293.569 39.6335C293.801 39.0085 293.917 38.3314 293.917 37.6023C293.917 36.8731 293.801 36.1937 293.569 35.5639C293.337 34.9342 292.979 34.4252 292.496 34.0369C292.013 33.6487 291.398 33.4545 290.65 33.4545C289.901 33.4545 289.286 33.6487 288.803 34.0369C288.32 34.4252 287.962 34.9342 287.73 35.5639C287.498 36.1937 287.382 36.8731 287.382 37.6023C287.382 38.3314 287.498 39.0085 287.73 39.6335C287.962 40.2585 288.32 40.7628 288.803 41.1463C289.286 41.5298 289.901 41.7216 290.65 41.7216ZM301.362 43.2557C300.67 43.2557 300.043 43.1255 299.479 42.8651C298.916 42.5999 298.469 42.2188 298.137 41.7216C297.806 41.2197 297.64 40.6136 297.64 39.9034C297.64 39.2784 297.763 38.7718 298.009 38.3835C298.255 37.9905 298.585 37.6828 298.996 37.4602C299.408 37.2377 299.863 37.072 300.36 36.9631C300.862 36.8494 301.366 36.7595 301.873 36.6932C302.536 36.608 303.073 36.544 303.485 36.5014C303.902 36.4541 304.205 36.3759 304.394 36.267C304.588 36.1581 304.685 35.9687 304.685 35.6989V35.642C304.685 34.9413 304.494 34.3968 304.11 34.0085C303.731 33.6203 303.156 33.4261 302.384 33.4261C301.584 33.4261 300.957 33.6013 300.502 33.9517C300.048 34.3021 299.728 34.6761 299.543 35.0739L297.952 34.5057C298.237 33.8428 298.615 33.3267 299.089 32.9574C299.567 32.5833 300.088 32.3229 300.651 32.1761C301.219 32.0246 301.778 31.9489 302.327 31.9489C302.678 31.9489 303.08 31.9915 303.535 32.0767C303.994 32.1572 304.437 32.3253 304.863 32.581C305.294 32.8366 305.651 33.2225 305.935 33.7386C306.219 34.2547 306.362 34.946 306.362 35.8125V43H304.685V41.5227H304.6C304.487 41.7595 304.297 42.0128 304.032 42.2827C303.767 42.5526 303.414 42.7822 302.974 42.9716C302.533 43.161 301.996 43.2557 301.362 43.2557ZM301.617 41.75C302.28 41.75 302.839 41.6198 303.293 41.3594C303.753 41.099 304.098 40.7628 304.33 40.3509C304.567 39.9389 304.685 39.5057 304.685 39.0511V37.517C304.614 37.6023 304.458 37.6804 304.217 37.7514C303.98 37.8177 303.705 37.8769 303.393 37.929C303.085 37.9763 302.784 38.0189 302.491 38.0568C302.202 38.09 301.968 38.1184 301.788 38.142C301.352 38.1989 300.945 38.2912 300.566 38.419C300.192 38.5421 299.889 38.7292 299.657 38.9801C299.43 39.2263 299.316 39.5625 299.316 39.9886C299.316 40.571 299.531 41.0114 299.962 41.3097C300.398 41.6032 300.95 41.75 301.617 41.75ZM313.54 43.2273C312.631 43.2273 311.828 42.9976 311.132 42.5384C310.436 42.0743 309.892 41.4209 309.499 40.5781C309.106 39.7306 308.909 38.7292 308.909 37.5739C308.909 36.428 309.106 35.4337 309.499 34.5909C309.892 33.7481 310.439 33.0971 311.14 32.6378C311.84 32.1785 312.65 31.9489 313.569 31.9489C314.279 31.9489 314.84 32.0672 315.252 32.304C315.668 32.536 315.986 32.8011 316.203 33.0994C316.426 33.393 316.599 33.6345 316.722 33.8239H316.864V28.4545H318.54V43H316.921V41.3239H316.722C316.599 41.5227 316.424 41.7737 316.196 42.0767C315.969 42.375 315.645 42.6425 315.223 42.8793C314.802 43.1113 314.241 43.2273 313.54 43.2273ZM313.767 41.7216C314.44 41.7216 315.008 41.5464 315.472 41.196C315.936 40.8409 316.289 40.3509 316.53 39.7259C316.772 39.0961 316.892 38.3693 316.892 37.5455C316.892 36.7311 316.774 36.0185 316.537 35.4077C316.301 34.7921 315.95 34.3139 315.486 33.973C315.022 33.6274 314.449 33.4545 313.767 33.4545C313.057 33.4545 312.465 33.6368 311.992 34.0014C311.523 34.3613 311.17 34.8513 310.934 35.4716C310.702 36.0871 310.586 36.7784 310.586 37.5455C310.586 38.322 310.704 39.0275 310.941 39.6619C311.182 40.2917 311.537 40.7936 312.006 41.1676C312.48 41.5369 313.067 41.7216 313.767 41.7216Z" fill="black"/>
<path d="M330.534 129V118.091H332.21V129H330.534ZM331.386 116.273C331.06 116.273 330.778 116.161 330.541 115.939C330.309 115.716 330.193 115.449 330.193 115.136C330.193 114.824 330.309 114.556 330.541 114.334C330.778 114.111 331.06 114 331.386 114C331.713 114 331.992 114.111 332.224 114.334C332.461 114.556 332.58 114.824 332.58 115.136C332.58 115.449 332.461 115.716 332.224 115.939C331.992 116.161 331.713 116.273 331.386 116.273ZM335.28 133.091V118.091H336.9V119.824H337.098C337.221 119.634 337.392 119.393 337.61 119.099C337.832 118.801 338.15 118.536 338.561 118.304C338.978 118.067 339.542 117.949 340.252 117.949C341.17 117.949 341.98 118.179 342.681 118.638C343.382 119.097 343.928 119.748 344.321 120.591C344.714 121.434 344.911 122.428 344.911 123.574C344.911 124.729 344.714 125.731 344.321 126.578C343.928 127.421 343.384 128.074 342.688 128.538C341.992 128.998 341.189 129.227 340.28 129.227C339.579 129.227 339.018 129.111 338.597 128.879C338.176 128.643 337.851 128.375 337.624 128.077C337.397 127.774 337.221 127.523 337.098 127.324H336.956V133.091H335.28ZM336.928 123.545C336.928 124.369 337.049 125.096 337.29 125.726C337.532 126.351 337.884 126.841 338.348 127.196C338.812 127.546 339.381 127.722 340.053 127.722C340.754 127.722 341.338 127.537 341.807 127.168C342.281 126.794 342.636 126.292 342.873 125.662C343.114 125.027 343.235 124.322 343.235 123.545C343.235 122.778 343.116 122.087 342.88 121.472C342.648 120.851 342.295 120.361 341.821 120.001C341.353 119.637 340.763 119.455 340.053 119.455C339.371 119.455 338.798 119.627 338.334 119.973C337.87 120.314 337.52 120.792 337.283 121.408C337.046 122.018 336.928 122.731 336.928 123.545ZM351.9 129.227C350.877 129.227 349.996 128.986 349.257 128.503C348.519 128.02 347.951 127.355 347.553 126.507C347.155 125.66 346.956 124.691 346.956 123.602C346.956 122.494 347.16 121.517 347.567 120.669C347.979 119.817 348.552 119.152 349.286 118.673C350.025 118.19 350.886 117.949 351.871 117.949C352.638 117.949 353.329 118.091 353.945 118.375C354.56 118.659 355.065 119.057 355.458 119.568C355.851 120.08 356.095 120.676 356.189 121.358H354.513C354.385 120.861 354.101 120.42 353.661 120.037C353.225 119.649 352.638 119.455 351.9 119.455C351.246 119.455 350.673 119.625 350.181 119.966C349.693 120.302 349.312 120.778 349.037 121.393C348.767 122.004 348.632 122.722 348.632 123.545C348.632 124.388 348.765 125.122 349.03 125.747C349.3 126.372 349.679 126.857 350.167 127.203C350.659 127.549 351.237 127.722 351.9 127.722C352.335 127.722 352.73 127.646 353.086 127.494C353.441 127.343 353.741 127.125 353.988 126.841C354.234 126.557 354.409 126.216 354.513 125.818H356.189C356.095 126.462 355.86 127.042 355.486 127.558C355.117 128.07 354.627 128.477 354.016 128.78C353.41 129.078 352.704 129.227 351.9 129.227ZM358.867 114.455H360.969L365.912 126.528H366.083L371.026 114.455H373.128V129H371.48V117.949H371.338L366.793 129H365.202L360.657 117.949H360.515V129H358.867V114.455ZM379.643 129.256C378.951 129.256 378.324 129.125 377.761 128.865C377.197 128.6 376.75 128.219 376.418 127.722C376.087 127.22 375.921 126.614 375.921 125.903C375.921 125.278 376.044 124.772 376.29 124.384C376.537 123.991 376.866 123.683 377.278 123.46C377.69 123.238 378.144 123.072 378.641 122.963C379.143 122.849 379.647 122.759 380.154 122.693C380.817 122.608 381.354 122.544 381.766 122.501C382.183 122.454 382.486 122.376 382.675 122.267C382.87 122.158 382.967 121.969 382.967 121.699V121.642C382.967 120.941 382.775 120.397 382.391 120.009C382.013 119.62 381.437 119.426 380.665 119.426C379.865 119.426 379.238 119.601 378.783 119.952C378.329 120.302 378.009 120.676 377.825 121.074L376.234 120.506C376.518 119.843 376.897 119.327 377.37 118.957C377.848 118.583 378.369 118.323 378.933 118.176C379.501 118.025 380.059 117.949 380.609 117.949C380.959 117.949 381.362 117.991 381.816 118.077C382.275 118.157 382.718 118.325 383.144 118.581C383.575 118.837 383.933 119.223 384.217 119.739C384.501 120.255 384.643 120.946 384.643 121.812V129H382.967V127.523H382.881C382.768 127.759 382.578 128.013 382.313 128.283C382.048 128.553 381.695 128.782 381.255 128.972C380.815 129.161 380.277 129.256 379.643 129.256ZM379.898 127.75C380.561 127.75 381.12 127.62 381.575 127.359C382.034 127.099 382.379 126.763 382.612 126.351C382.848 125.939 382.967 125.506 382.967 125.051V123.517C382.896 123.602 382.739 123.68 382.498 123.751C382.261 123.818 381.987 123.877 381.674 123.929C381.366 123.976 381.066 124.019 380.772 124.057C380.483 124.09 380.249 124.118 380.069 124.142C379.633 124.199 379.226 124.291 378.847 124.419C378.473 124.542 378.17 124.729 377.938 124.98C377.711 125.226 377.597 125.562 377.597 125.989C377.597 126.571 377.813 127.011 378.244 127.31C378.679 127.603 379.231 127.75 379.898 127.75ZM387.702 129V118.091H389.378V129H387.702ZM388.554 116.273C388.228 116.273 387.946 116.161 387.709 115.939C387.477 115.716 387.361 115.449 387.361 115.136C387.361 114.824 387.477 114.556 387.709 114.334C387.946 114.111 388.228 114 388.554 114C388.881 114 389.16 114.111 389.392 114.334C389.629 114.556 389.748 114.824 389.748 115.136C389.748 115.449 389.629 115.716 389.392 115.939C389.16 116.161 388.881 116.273 388.554 116.273ZM394.124 122.438V129H392.448V118.091H394.067V119.795H394.21C394.465 119.241 394.853 118.796 395.374 118.46C395.895 118.119 396.567 117.949 397.391 117.949C398.13 117.949 398.776 118.1 399.33 118.403C399.884 118.702 400.315 119.156 400.623 119.767C400.931 120.373 401.085 121.14 401.085 122.068V129H399.408V122.182C399.408 121.325 399.186 120.657 398.741 120.179C398.296 119.696 397.685 119.455 396.908 119.455C396.373 119.455 395.895 119.571 395.474 119.803C395.057 120.035 394.728 120.373 394.487 120.818C394.245 121.263 394.124 121.803 394.124 122.438ZM405.369 129.114C405.019 129.114 404.718 128.988 404.467 128.737C404.216 128.486 404.091 128.186 404.091 127.835C404.091 127.485 404.216 127.184 404.467 126.933C404.718 126.682 405.019 126.557 405.369 126.557C405.719 126.557 406.02 126.682 406.271 126.933C406.522 127.184 406.647 127.485 406.647 127.835C406.647 128.067 406.588 128.28 406.47 128.474C406.356 128.669 406.202 128.825 406.008 128.943C405.819 129.057 405.606 129.114 405.369 129.114ZM411.331 122.438V129H409.655V114.455H411.331V119.795H411.473C411.729 119.232 412.113 118.785 412.624 118.453C413.14 118.117 413.827 117.949 414.684 117.949C415.427 117.949 416.078 118.098 416.637 118.396C417.195 118.69 417.629 119.142 417.936 119.753C418.249 120.359 418.405 121.131 418.405 122.068V129H416.729V122.182C416.729 121.315 416.504 120.645 416.054 120.172C415.609 119.694 414.991 119.455 414.201 119.455C413.651 119.455 413.159 119.571 412.723 119.803C412.292 120.035 411.952 120.373 411.701 120.818C411.454 121.263 411.331 121.803 411.331 122.438ZM424.682 129.256C423.991 129.256 423.363 129.125 422.8 128.865C422.236 128.6 421.789 128.219 421.457 127.722C421.126 127.22 420.96 126.614 420.96 125.903C420.96 125.278 421.083 124.772 421.33 124.384C421.576 123.991 421.905 123.683 422.317 123.46C422.729 123.238 423.183 123.072 423.68 122.963C424.182 122.849 424.687 122.759 425.193 122.693C425.856 122.608 426.393 122.544 426.805 122.501C427.222 122.454 427.525 122.376 427.714 122.267C427.909 122.158 428.006 121.969 428.006 121.699V121.642C428.006 120.941 427.814 120.397 427.43 120.009C427.052 119.62 426.476 119.426 425.705 119.426C424.904 119.426 424.277 119.601 423.822 119.952C423.368 120.302 423.048 120.676 422.864 121.074L421.273 120.506C421.557 119.843 421.936 119.327 422.409 118.957C422.887 118.583 423.408 118.323 423.972 118.176C424.54 118.025 425.098 117.949 425.648 117.949C425.998 117.949 426.401 117.991 426.855 118.077C427.314 118.157 427.757 118.325 428.183 118.581C428.614 118.837 428.972 119.223 429.256 119.739C429.54 120.255 429.682 120.946 429.682 121.812V129H428.006V127.523H427.92C427.807 127.759 427.617 128.013 427.352 128.283C427.087 128.553 426.734 128.782 426.294 128.972C425.854 129.161 425.316 129.256 424.682 129.256ZM424.938 127.75C425.6 127.75 426.159 127.62 426.614 127.359C427.073 127.099 427.419 126.763 427.651 126.351C427.887 125.939 428.006 125.506 428.006 125.051V123.517C427.935 123.602 427.778 123.68 427.537 123.751C427.3 123.818 427.026 123.877 426.713 123.929C426.405 123.976 426.105 124.019 425.811 124.057C425.522 124.09 425.288 124.118 425.108 124.142C424.672 124.199 424.265 124.291 423.886 124.419C423.512 124.542 423.209 124.729 422.977 124.98C422.75 125.226 422.636 125.562 422.636 125.989C422.636 126.571 422.852 127.011 423.283 127.31C423.718 127.603 424.27 127.75 424.938 127.75ZM434.417 122.438V129H432.741V118.091H434.36V119.795H434.502C434.758 119.241 435.146 118.796 435.667 118.46C436.188 118.119 436.86 117.949 437.684 117.949C438.423 117.949 439.069 118.1 439.623 118.403C440.177 118.702 440.608 119.156 440.916 119.767C441.224 120.373 441.377 121.14 441.377 122.068V129H439.701V122.182C439.701 121.325 439.479 120.657 439.034 120.179C438.589 119.696 437.978 119.455 437.201 119.455C436.666 119.455 436.188 119.571 435.767 119.803C435.35 120.035 435.021 120.373 434.779 120.818C434.538 121.263 434.417 121.803 434.417 122.438ZM448.56 129.227C447.651 129.227 446.848 128.998 446.152 128.538C445.456 128.074 444.911 127.421 444.518 126.578C444.125 125.731 443.929 124.729 443.929 123.574C443.929 122.428 444.125 121.434 444.518 120.591C444.911 119.748 445.458 119.097 446.159 118.638C446.86 118.179 447.67 117.949 448.588 117.949C449.298 117.949 449.859 118.067 450.271 118.304C450.688 118.536 451.005 118.801 451.223 119.099C451.446 119.393 451.618 119.634 451.741 119.824H451.884V114.455H453.56V129H451.94V127.324H451.741C451.618 127.523 451.443 127.774 451.216 128.077C450.989 128.375 450.664 128.643 450.243 128.879C449.821 129.111 449.26 129.227 448.56 129.227ZM448.787 127.722C449.459 127.722 450.027 127.546 450.491 127.196C450.955 126.841 451.308 126.351 451.55 125.726C451.791 125.096 451.912 124.369 451.912 123.545C451.912 122.731 451.794 122.018 451.557 121.408C451.32 120.792 450.97 120.314 450.506 119.973C450.042 119.627 449.469 119.455 448.787 119.455C448.077 119.455 447.485 119.637 447.011 120.001C446.543 120.361 446.19 120.851 445.953 121.472C445.721 122.087 445.605 122.778 445.605 123.545C445.605 124.322 445.723 125.027 445.96 125.662C446.202 126.292 446.557 126.794 447.026 127.168C447.499 127.537 448.086 127.722 448.787 127.722ZM458.538 114.455V129H456.862V114.455H458.538ZM466.182 129.227C465.131 129.227 464.224 128.995 463.462 128.531C462.704 128.062 462.12 127.409 461.708 126.571C461.301 125.728 461.097 124.748 461.097 123.631C461.097 122.513 461.301 121.528 461.708 120.676C462.12 119.819 462.693 119.152 463.426 118.673C464.165 118.19 465.027 117.949 466.012 117.949C466.58 117.949 467.141 118.044 467.695 118.233C468.249 118.422 468.753 118.73 469.208 119.156C469.662 119.578 470.025 120.136 470.294 120.832C470.564 121.528 470.699 122.385 470.699 123.403V124.114H462.29V122.665H468.995C468.995 122.049 468.872 121.5 468.625 121.017C468.384 120.534 468.038 120.153 467.588 119.874C467.143 119.594 466.618 119.455 466.012 119.455C465.344 119.455 464.766 119.62 464.279 119.952C463.796 120.278 463.424 120.705 463.164 121.23C462.903 121.756 462.773 122.319 462.773 122.92V123.886C462.773 124.71 462.915 125.409 463.199 125.982C463.488 126.55 463.888 126.983 464.4 127.281C464.911 127.575 465.505 127.722 466.182 127.722C466.623 127.722 467.02 127.66 467.375 127.537C467.735 127.409 468.045 127.22 468.306 126.969C468.566 126.713 468.767 126.396 468.909 126.017L470.529 126.472C470.358 127.021 470.072 127.504 469.669 127.92C469.267 128.332 468.77 128.654 468.178 128.886C467.586 129.114 466.921 129.227 466.182 129.227Z" fill="#D9D9D9"/>
<path d="M365.534 168V157.091H367.153V158.739H367.267C367.466 158.199 367.826 157.761 368.347 157.425C368.867 157.089 369.455 156.92 370.108 156.92C370.231 156.92 370.385 156.923 370.57 156.928C370.754 156.932 370.894 156.939 370.989 156.949V158.653C370.932 158.639 370.802 158.618 370.598 158.589C370.399 158.556 370.188 158.54 369.966 158.54C369.436 158.54 368.962 158.651 368.545 158.874C368.134 159.091 367.807 159.394 367.565 159.783C367.329 160.166 367.21 160.604 367.21 161.097V168H365.534ZM377.217 168.227C376.166 168.227 375.259 167.995 374.497 167.531C373.74 167.062 373.155 166.409 372.743 165.571C372.336 164.728 372.132 163.748 372.132 162.631C372.132 161.513 372.336 160.528 372.743 159.676C373.155 158.819 373.728 158.152 374.462 157.673C375.2 157.19 376.062 156.949 377.047 156.949C377.615 156.949 378.176 157.044 378.73 157.233C379.284 157.422 379.788 157.73 380.243 158.156C380.697 158.578 381.06 159.136 381.33 159.832C381.599 160.528 381.734 161.385 381.734 162.403V163.114H373.325V161.665H380.03C380.03 161.049 379.907 160.5 379.661 160.017C379.419 159.534 379.073 159.153 378.624 158.874C378.179 158.594 377.653 158.455 377.047 158.455C376.379 158.455 375.802 158.62 375.314 158.952C374.831 159.278 374.459 159.705 374.199 160.23C373.938 160.756 373.808 161.319 373.808 161.92V162.886C373.808 163.71 373.95 164.409 374.234 164.982C374.523 165.55 374.923 165.983 375.435 166.281C375.946 166.575 376.54 166.722 377.217 166.722C377.658 166.722 378.055 166.66 378.411 166.537C378.77 166.409 379.08 166.22 379.341 165.969C379.601 165.713 379.803 165.396 379.945 165.017L381.564 165.472C381.393 166.021 381.107 166.504 380.705 166.92C380.302 167.332 379.805 167.654 379.213 167.886C378.621 168.114 377.956 168.227 377.217 168.227ZM389.028 157.091V158.511H383.375V157.091H389.028ZM385.023 154.477H386.699V164.875C386.699 165.348 386.768 165.704 386.905 165.94C387.047 166.172 387.227 166.329 387.445 166.409C387.667 166.485 387.902 166.523 388.148 166.523C388.332 166.523 388.484 166.513 388.602 166.494C388.721 166.471 388.815 166.452 388.886 166.438L389.227 167.943C389.114 167.986 388.955 168.028 388.751 168.071C388.548 168.118 388.29 168.142 387.977 168.142C387.504 168.142 387.04 168.04 386.585 167.837C386.135 167.633 385.761 167.323 385.463 166.906C385.17 166.49 385.023 165.964 385.023 165.33V154.477ZM398.425 163.54V157.091H400.101V168H398.425V166.153H398.311C398.055 166.707 397.658 167.179 397.118 167.567C396.578 167.95 395.896 168.142 395.072 168.142C394.391 168.142 393.785 167.993 393.254 167.695C392.724 167.392 392.307 166.937 392.004 166.331C391.701 165.72 391.55 164.951 391.55 164.023V157.091H393.226V163.909C393.226 164.705 393.448 165.339 393.893 165.812C394.343 166.286 394.916 166.523 395.612 166.523C396.029 166.523 396.453 166.416 396.884 166.203C397.319 165.99 397.684 165.663 397.977 165.223C398.276 164.783 398.425 164.222 398.425 163.54ZM403.171 168V157.091H404.79V158.739H404.904C405.103 158.199 405.462 157.761 405.983 157.425C406.504 157.089 407.091 156.92 407.745 156.92C407.868 156.92 408.022 156.923 408.206 156.928C408.391 156.932 408.531 156.939 408.625 156.949V158.653C408.569 158.639 408.438 158.618 408.235 158.589C408.036 158.556 407.825 158.54 407.603 158.54C407.072 158.54 406.599 158.651 406.182 158.874C405.77 159.091 405.444 159.394 405.202 159.783C404.965 160.166 404.847 160.604 404.847 161.097V168H403.171ZM412.288 161.438V168H410.612V157.091H412.232V158.795H412.374C412.629 158.241 413.018 157.796 413.538 157.46C414.059 157.119 414.732 156.949 415.555 156.949C416.294 156.949 416.94 157.1 417.494 157.403C418.048 157.702 418.479 158.156 418.787 158.767C419.095 159.373 419.249 160.14 419.249 161.068V168H417.572V161.182C417.572 160.325 417.35 159.657 416.905 159.179C416.46 158.696 415.849 158.455 415.072 158.455C414.537 158.455 414.059 158.571 413.638 158.803C413.221 159.035 412.892 159.373 412.651 159.818C412.409 160.263 412.288 160.803 412.288 161.438ZM427.936 168V157.091H429.556V158.739H429.669C429.868 158.199 430.228 157.761 430.749 157.425C431.27 157.089 431.857 156.92 432.51 156.92C432.633 156.92 432.787 156.923 432.972 156.928C433.157 156.932 433.296 156.939 433.391 156.949V158.653C433.334 158.639 433.204 158.618 433 158.589C432.801 158.556 432.591 158.54 432.368 158.54C431.838 158.54 431.364 158.651 430.948 158.874C430.536 159.091 430.209 159.394 429.968 159.783C429.731 160.166 429.613 160.604 429.613 161.097V168H427.936ZM439.62 168.227C438.569 168.227 437.662 167.995 436.9 167.531C436.142 167.062 435.557 166.409 435.145 165.571C434.738 164.728 434.534 163.748 434.534 162.631C434.534 161.513 434.738 160.528 435.145 159.676C435.557 158.819 436.13 158.152 436.864 157.673C437.603 157.19 438.464 156.949 439.449 156.949C440.017 156.949 440.578 157.044 441.132 157.233C441.686 157.422 442.191 157.73 442.645 158.156C443.1 158.578 443.462 159.136 443.732 159.832C444.002 160.528 444.137 161.385 444.137 162.403V163.114H435.728V161.665H442.432C442.432 161.049 442.309 160.5 442.063 160.017C441.821 159.534 441.476 159.153 441.026 158.874C440.581 158.594 440.055 158.455 439.449 158.455C438.782 158.455 438.204 158.62 437.716 158.952C437.233 159.278 436.862 159.705 436.601 160.23C436.341 160.756 436.211 161.319 436.211 161.92V162.886C436.211 163.71 436.353 164.409 436.637 164.982C436.926 165.55 437.326 165.983 437.837 166.281C438.348 166.575 438.943 166.722 439.62 166.722C440.06 166.722 440.458 166.66 440.813 166.537C441.173 166.409 441.483 166.22 441.743 165.969C442.004 165.713 442.205 165.396 442.347 165.017L443.966 165.472C443.796 166.021 443.509 166.504 443.107 166.92C442.704 167.332 442.207 167.654 441.615 167.886C441.024 168.114 440.358 168.227 439.62 168.227ZM454.414 159.534L452.908 159.96C452.813 159.709 452.674 159.465 452.489 159.229C452.309 158.987 452.063 158.788 451.75 158.632C451.438 158.476 451.038 158.398 450.55 158.398C449.882 158.398 449.326 158.552 448.881 158.859C448.441 159.162 448.221 159.548 448.221 160.017C448.221 160.434 448.372 160.763 448.675 161.004C448.978 161.246 449.452 161.447 450.096 161.608L451.715 162.006C452.69 162.242 453.417 162.605 453.895 163.092C454.373 163.575 454.613 164.198 454.613 164.96C454.613 165.585 454.433 166.144 454.073 166.636C453.718 167.129 453.221 167.517 452.581 167.801C451.942 168.085 451.199 168.227 450.351 168.227C449.239 168.227 448.318 167.986 447.588 167.503C446.859 167.02 446.398 166.314 446.203 165.386L447.794 164.989C447.946 165.576 448.232 166.016 448.654 166.31C449.08 166.603 449.636 166.75 450.323 166.75C451.104 166.75 451.724 166.584 452.184 166.253C452.648 165.917 452.88 165.514 452.88 165.045C452.88 164.667 452.747 164.349 452.482 164.094C452.217 163.833 451.81 163.639 451.26 163.511L449.442 163.085C448.443 162.848 447.709 162.482 447.24 161.984C446.776 161.482 446.544 160.855 446.544 160.102C446.544 159.487 446.717 158.942 447.063 158.469C447.413 157.995 447.889 157.624 448.49 157.354C449.096 157.084 449.783 156.949 450.55 156.949C451.63 156.949 452.477 157.186 453.093 157.659C453.713 158.133 454.153 158.758 454.414 159.534ZM464.011 163.54V157.091H465.687V168H464.011V166.153H463.897C463.641 166.707 463.244 167.179 462.704 167.567C462.164 167.95 461.482 168.142 460.658 168.142C459.977 168.142 459.371 167.993 458.84 167.695C458.31 167.392 457.893 166.937 457.59 166.331C457.287 165.72 457.136 164.951 457.136 164.023V157.091H458.812V163.909C458.812 164.705 459.034 165.339 459.479 165.812C459.929 166.286 460.502 166.523 461.198 166.523C461.615 166.523 462.039 166.416 462.469 166.203C462.905 165.99 463.27 165.663 463.563 165.223C463.862 164.783 464.011 164.222 464.011 163.54ZM470.433 153.455V168H468.757V153.455H470.433ZM478.247 157.091V158.511H472.594V157.091H478.247ZM474.241 154.477H475.918V164.875C475.918 165.348 475.986 165.704 476.124 165.94C476.266 166.172 476.446 166.329 476.663 166.409C476.886 166.485 477.12 166.523 477.366 166.523C477.551 166.523 477.703 166.513 477.821 166.494C477.939 166.471 478.034 166.452 478.105 166.438L478.446 167.943C478.332 167.986 478.174 168.028 477.97 168.071C477.767 168.118 477.509 168.142 477.196 168.142C476.723 168.142 476.259 168.04 475.804 167.837C475.354 167.633 474.98 167.323 474.682 166.906C474.388 166.49 474.241 165.964 474.241 165.33V154.477Z" fill="#D9D9D9"/>
<path d="M159.534 206V195.091H161.153V196.739H161.267C161.466 196.199 161.826 195.761 162.347 195.425C162.867 195.089 163.455 194.92 164.108 194.92C164.231 194.92 164.385 194.923 164.57 194.928C164.754 194.932 164.894 194.939 164.989 194.949V196.653C164.932 196.639 164.802 196.618 164.598 196.589C164.399 196.556 164.188 196.54 163.966 196.54C163.436 196.54 162.962 196.651 162.545 196.874C162.134 197.091 161.807 197.394 161.565 197.783C161.329 198.166 161.21 198.604 161.21 199.097V206H159.534ZM171.217 206.227C170.166 206.227 169.259 205.995 168.497 205.531C167.74 205.062 167.155 204.409 166.743 203.571C166.336 202.728 166.132 201.748 166.132 200.631C166.132 199.513 166.336 198.528 166.743 197.676C167.155 196.819 167.728 196.152 168.462 195.673C169.2 195.19 170.062 194.949 171.047 194.949C171.615 194.949 172.176 195.044 172.73 195.233C173.284 195.422 173.788 195.73 174.243 196.156C174.697 196.578 175.06 197.136 175.33 197.832C175.599 198.528 175.734 199.385 175.734 200.403V201.114H167.325V199.665H174.03C174.03 199.049 173.907 198.5 173.661 198.017C173.419 197.534 173.073 197.153 172.624 196.874C172.179 196.594 171.653 196.455 171.047 196.455C170.379 196.455 169.802 196.62 169.314 196.952C168.831 197.278 168.459 197.705 168.199 198.23C167.938 198.756 167.808 199.319 167.808 199.92V200.886C167.808 201.71 167.95 202.409 168.234 202.982C168.523 203.55 168.923 203.983 169.435 204.281C169.946 204.575 170.54 204.722 171.217 204.722C171.658 204.722 172.055 204.66 172.411 204.537C172.77 204.409 173.08 204.22 173.341 203.969C173.601 203.713 173.803 203.396 173.945 203.017L175.564 203.472C175.393 204.021 175.107 204.504 174.705 204.92C174.302 205.332 173.805 205.654 173.213 205.886C172.621 206.114 171.956 206.227 171.217 206.227ZM183.028 195.091V196.511H177.375V195.091H183.028ZM179.023 192.477H180.699V202.875C180.699 203.348 180.768 203.704 180.905 203.94C181.047 204.172 181.227 204.329 181.445 204.409C181.667 204.485 181.902 204.523 182.148 204.523C182.332 204.523 182.484 204.513 182.602 204.494C182.721 204.471 182.815 204.452 182.886 204.438L183.227 205.943C183.114 205.986 182.955 206.028 182.751 206.071C182.548 206.118 182.29 206.142 181.977 206.142C181.504 206.142 181.04 206.04 180.585 205.837C180.135 205.633 179.761 205.323 179.463 204.906C179.17 204.49 179.023 203.964 179.023 203.33V192.477ZM192.425 201.54V195.091H194.101V206H192.425V204.153H192.311C192.055 204.707 191.658 205.179 191.118 205.567C190.578 205.95 189.896 206.142 189.072 206.142C188.391 206.142 187.785 205.993 187.254 205.695C186.724 205.392 186.307 204.937 186.004 204.331C185.701 203.72 185.55 202.951 185.55 202.023V195.091H187.226V201.909C187.226 202.705 187.448 203.339 187.893 203.812C188.343 204.286 188.916 204.523 189.612 204.523C190.029 204.523 190.453 204.416 190.884 204.203C191.319 203.99 191.684 203.663 191.977 203.223C192.276 202.783 192.425 202.222 192.425 201.54ZM197.171 206V195.091H198.79V196.739H198.904C199.103 196.199 199.462 195.761 199.983 195.425C200.504 195.089 201.091 194.92 201.745 194.92C201.868 194.92 202.022 194.923 202.206 194.928C202.391 194.932 202.531 194.939 202.625 194.949V196.653C202.569 196.639 202.438 196.618 202.235 196.589C202.036 196.556 201.825 196.54 201.603 196.54C201.072 196.54 200.599 196.651 200.182 196.874C199.77 197.091 199.444 197.394 199.202 197.783C198.965 198.166 198.847 198.604 198.847 199.097V206H197.171ZM206.288 199.438V206H204.612V195.091H206.232V196.795H206.374C206.629 196.241 207.018 195.796 207.538 195.46C208.059 195.119 208.732 194.949 209.555 194.949C210.294 194.949 210.94 195.1 211.494 195.403C212.048 195.702 212.479 196.156 212.787 196.767C213.095 197.373 213.249 198.14 213.249 199.068V206H211.572V199.182C211.572 198.325 211.35 197.657 210.905 197.179C210.46 196.696 209.849 196.455 209.072 196.455C208.537 196.455 208.059 196.571 207.638 196.803C207.221 197.035 206.892 197.373 206.651 197.818C206.409 198.263 206.288 198.803 206.288 199.438ZM221.936 206V195.091H223.556V196.739H223.669C223.868 196.199 224.228 195.761 224.749 195.425C225.27 195.089 225.857 194.92 226.51 194.92C226.633 194.92 226.787 194.923 226.972 194.928C227.157 194.932 227.296 194.939 227.391 194.949V196.653C227.334 196.639 227.204 196.618 227 196.589C226.801 196.556 226.591 196.54 226.368 196.54C225.838 196.54 225.364 196.651 224.948 196.874C224.536 197.091 224.209 197.394 223.968 197.783C223.731 198.166 223.613 198.604 223.613 199.097V206H221.936ZM233.62 206.227C232.569 206.227 231.662 205.995 230.9 205.531C230.142 205.062 229.557 204.409 229.145 203.571C228.738 202.728 228.534 201.748 228.534 200.631C228.534 199.513 228.738 198.528 229.145 197.676C229.557 196.819 230.13 196.152 230.864 195.673C231.603 195.19 232.464 194.949 233.449 194.949C234.017 194.949 234.578 195.044 235.132 195.233C235.686 195.422 236.191 195.73 236.645 196.156C237.1 196.578 237.462 197.136 237.732 197.832C238.002 198.528 238.137 199.385 238.137 200.403V201.114H229.728V199.665H236.432C236.432 199.049 236.309 198.5 236.063 198.017C235.821 197.534 235.476 197.153 235.026 196.874C234.581 196.594 234.055 196.455 233.449 196.455C232.782 196.455 232.204 196.62 231.716 196.952C231.233 197.278 230.862 197.705 230.601 198.23C230.341 198.756 230.211 199.319 230.211 199.92V200.886C230.211 201.71 230.353 202.409 230.637 202.982C230.926 203.55 231.326 203.983 231.837 204.281C232.348 204.575 232.943 204.722 233.62 204.722C234.06 204.722 234.458 204.66 234.813 204.537C235.173 204.409 235.483 204.22 235.743 203.969C236.004 203.713 236.205 203.396 236.347 203.017L237.966 203.472C237.796 204.021 237.509 204.504 237.107 204.92C236.704 205.332 236.207 205.654 235.615 205.886C235.024 206.114 234.358 206.227 233.62 206.227ZM248.414 197.534L246.908 197.96C246.813 197.709 246.674 197.465 246.489 197.229C246.309 196.987 246.063 196.788 245.75 196.632C245.438 196.476 245.038 196.398 244.55 196.398C243.882 196.398 243.326 196.552 242.881 196.859C242.441 197.162 242.221 197.548 242.221 198.017C242.221 198.434 242.372 198.763 242.675 199.004C242.978 199.246 243.452 199.447 244.096 199.608L245.715 200.006C246.69 200.242 247.417 200.605 247.895 201.092C248.373 201.575 248.613 202.198 248.613 202.96C248.613 203.585 248.433 204.144 248.073 204.636C247.718 205.129 247.221 205.517 246.581 205.801C245.942 206.085 245.199 206.227 244.351 206.227C243.239 206.227 242.318 205.986 241.588 205.503C240.859 205.02 240.398 204.314 240.203 203.386L241.794 202.989C241.946 203.576 242.232 204.016 242.654 204.31C243.08 204.603 243.636 204.75 244.323 204.75C245.104 204.75 245.724 204.584 246.184 204.253C246.648 203.917 246.88 203.514 246.88 203.045C246.88 202.667 246.747 202.349 246.482 202.094C246.217 201.833 245.81 201.639 245.26 201.511L243.442 201.085C242.443 200.848 241.709 200.482 241.24 199.984C240.776 199.482 240.544 198.855 240.544 198.102C240.544 197.487 240.717 196.942 241.063 196.469C241.413 195.995 241.889 195.624 242.49 195.354C243.096 195.084 243.783 194.949 244.55 194.949C245.63 194.949 246.477 195.186 247.093 195.659C247.713 196.133 248.153 196.758 248.414 197.534ZM258.011 201.54V195.091H259.687V206H258.011V204.153H257.897C257.641 204.707 257.244 205.179 256.704 205.567C256.164 205.95 255.482 206.142 254.658 206.142C253.977 206.142 253.371 205.993 252.84 205.695C252.31 205.392 251.893 204.937 251.59 204.331C251.287 203.72 251.136 202.951 251.136 202.023V195.091H252.812V201.909C252.812 202.705 253.034 203.339 253.479 203.812C253.929 204.286 254.502 204.523 255.198 204.523C255.615 204.523 256.039 204.416 256.469 204.203C256.905 203.99 257.27 203.663 257.563 203.223C257.862 202.783 258.011 202.222 258.011 201.54ZM264.433 191.455V206H262.757V191.455H264.433ZM272.247 195.091V196.511H266.594V195.091H272.247ZM268.241 192.477H269.918V202.875C269.918 203.348 269.986 203.704 270.124 203.94C270.266 204.172 270.446 204.329 270.663 204.409C270.886 204.485 271.12 204.523 271.366 204.523C271.551 204.523 271.703 204.513 271.821 204.494C271.939 204.471 272.034 204.452 272.105 204.438L272.446 205.943C272.332 205.986 272.174 206.028 271.97 206.071C271.767 206.118 271.509 206.142 271.196 206.142C270.723 206.142 270.259 206.04 269.804 205.837C269.354 205.633 268.98 205.323 268.682 204.906C268.388 204.49 268.241 203.964 268.241 203.33V192.477Z" fill="#D9D9D9"/>
<line x1="286.5" y1="72" x2="286.5" y2="234" stroke="#71D3E9" stroke-width="3"/>
<line x1="80.5" y1="72" x2="80.5" y2="234" stroke="#71D3E9" stroke-width="3"/>
<path d="M488.061 135.056C488.646 134.47 488.646 133.52 488.061 132.934L478.514 123.389C477.929 122.803 476.979 122.803 476.393 123.389C475.807 123.974 475.807 124.924 476.393 125.51L484.879 133.995L476.394 142.481C475.808 143.066 475.808 144.016 476.394 144.602C476.979 145.188 477.929 145.188 478.515 144.602L488.061 135.056ZM285 135.5L487 135.495L487 132.495L285 132.5L285 135.5Z" fill="#71D3E9"/>
<path d="M286.055 105.066C286.644 104.483 286.649 103.533 286.066 102.945L276.566 93.3523C275.983 92.7637 275.034 92.7591 274.445 93.342C273.856 93.925 273.852 94.8747 274.435 95.4633L282.879 103.99L274.352 112.434C273.764 113.017 273.759 113.966 274.342 114.555C274.925 115.144 275.875 115.148 276.463 114.565L286.055 105.066ZM78.9927 104.5L284.993 105.5L285.007 102.5L79.0073 101.5L78.9927 104.5Z" fill="#71D3E9"/>
<line x1="489.5" y1="234" x2="489.5" y2="72" stroke="#71D3E9" stroke-width="3"/>
<path d="M93.1591 98V87.0909H94.8352V98H93.1591ZM94.0114 85.2727C93.6847 85.2727 93.4029 85.1615 93.1662 84.9389C92.9342 84.7164 92.8182 84.4489 92.8182 84.1364C92.8182 83.8239 92.9342 83.5563 93.1662 83.3338C93.4029 83.1113 93.6847 83 94.0114 83C94.3381 83 94.6174 83.1113 94.8494 83.3338C95.0862 83.5563 95.2045 83.8239 95.2045 84.1364C95.2045 84.4489 95.0862 84.7164 94.8494 84.9389C94.6174 85.1615 94.3381 85.2727 94.0114 85.2727ZM97.9052 102.091V87.0909H99.5245V88.8239H99.7234C99.8465 88.6345 100.017 88.393 100.235 88.0994C100.457 87.8011 100.775 87.536 101.186 87.304C101.603 87.0672 102.167 86.9489 102.877 86.9489C103.795 86.9489 104.605 87.1785 105.306 87.6378C106.007 88.0971 106.553 88.7481 106.946 89.5909C107.339 90.4337 107.536 91.428 107.536 92.5739C107.536 93.7292 107.339 94.7306 106.946 95.5781C106.553 96.4209 106.009 97.0743 105.313 97.5384C104.617 97.9976 103.814 98.2273 102.905 98.2273C102.204 98.2273 101.643 98.1113 101.222 97.8793C100.801 97.6425 100.476 97.375 100.249 97.0767C100.022 96.7737 99.8465 96.5227 99.7234 96.3239H99.5813V102.091H97.9052ZM99.5529 92.5455C99.5529 93.3693 99.6737 94.0961 99.9151 94.7259C100.157 95.3509 100.509 95.8409 100.973 96.196C101.437 96.5464 102.006 96.7216 102.678 96.7216C103.379 96.7216 103.963 96.5369 104.432 96.1676C104.906 95.7936 105.261 95.2917 105.498 94.6619C105.739 94.0275 105.86 93.322 105.86 92.5455C105.86 91.7784 105.741 91.0871 105.505 90.4716C105.273 89.8513 104.92 89.3613 104.446 89.0014C103.978 88.6368 103.388 88.4545 102.678 88.4545C101.996 88.4545 101.423 88.6274 100.959 88.973C100.495 89.3139 100.145 89.7921 99.908 90.4077C99.6713 91.0185 99.5529 91.7311 99.5529 92.5455ZM114.525 98.2273C113.502 98.2273 112.621 97.9858 111.882 97.5028C111.144 97.0199 110.576 96.3546 110.178 95.5071C109.78 94.6596 109.581 93.6913 109.581 92.6023C109.581 91.4943 109.785 90.5166 110.192 89.669C110.604 88.8168 111.177 88.1515 111.911 87.6733C112.65 87.1903 113.511 86.9489 114.496 86.9489C115.263 86.9489 115.954 87.0909 116.57 87.375C117.185 87.6591 117.69 88.0568 118.083 88.5682C118.476 89.0795 118.72 89.6761 118.814 90.358H117.138C117.01 89.8608 116.726 89.4205 116.286 89.0369C115.85 88.6487 115.263 88.4545 114.525 88.4545C113.871 88.4545 113.298 88.625 112.806 88.9659C112.318 89.3021 111.937 89.7779 111.662 90.3935C111.392 91.0043 111.257 91.7216 111.257 92.5455C111.257 93.3883 111.39 94.1222 111.655 94.7472C111.925 95.3722 112.304 95.8575 112.792 96.2031C113.284 96.5488 113.862 96.7216 114.525 96.7216C114.96 96.7216 115.355 96.6458 115.711 96.4943C116.066 96.3428 116.366 96.125 116.613 95.8409C116.859 95.5568 117.034 95.2159 117.138 94.8182H118.814C118.72 95.4621 118.485 96.0421 118.111 96.5582C117.742 97.0696 117.252 97.4768 116.641 97.7798C116.035 98.0781 115.329 98.2273 114.525 98.2273ZM121.492 98V83.4545H126.407C127.543 83.4545 128.476 83.6487 129.205 84.0369C129.934 84.4205 130.474 84.9484 130.824 85.6207C131.175 86.2931 131.35 87.0578 131.35 87.9148C131.35 88.7718 131.175 89.5317 130.824 90.1946C130.474 90.8575 129.936 91.3783 129.212 91.7571C128.488 92.1312 127.562 92.3182 126.435 92.3182H122.458V90.7273H126.378C127.155 90.7273 127.78 90.6136 128.253 90.3864C128.731 90.1591 129.077 89.8371 129.29 89.4205C129.508 88.9991 129.617 88.4972 129.617 87.9148C129.617 87.3324 129.508 86.8234 129.29 86.3878C129.072 85.9522 128.724 85.616 128.246 85.3793C127.768 85.1378 127.136 85.017 126.35 85.017H123.253V98H121.492ZM128.338 91.4659L131.918 98H129.873L126.35 91.4659H128.338ZM138.514 98.2273C137.463 98.2273 136.556 97.9953 135.794 97.5312C135.036 97.0625 134.452 96.4091 134.04 95.571C133.633 94.7282 133.429 93.7481 133.429 92.6307C133.429 91.5133 133.633 90.5284 134.04 89.6761C134.452 88.8191 135.025 88.1515 135.759 87.6733C136.497 87.1903 137.359 86.9489 138.344 86.9489C138.912 86.9489 139.473 87.0436 140.027 87.233C140.581 87.4223 141.085 87.7301 141.54 88.1562C141.994 88.5777 142.357 89.1364 142.626 89.8324C142.896 90.5284 143.031 91.3854 143.031 92.4034V93.1136H134.622V91.6648H141.327C141.327 91.0492 141.204 90.5 140.957 90.017C140.716 89.5341 140.37 89.1529 139.92 88.8736C139.475 88.5942 138.95 88.4545 138.344 88.4545C137.676 88.4545 137.098 88.6203 136.611 88.9517C136.128 89.2784 135.756 89.7045 135.496 90.2301C135.235 90.7557 135.105 91.3191 135.105 91.9205V92.8864C135.105 93.7102 135.247 94.4086 135.531 94.9815C135.82 95.5497 136.22 95.983 136.732 96.2812C137.243 96.5748 137.837 96.7216 138.514 96.7216C138.955 96.7216 139.352 96.66 139.707 96.5369C140.067 96.4091 140.377 96.2197 140.638 95.9688C140.898 95.7131 141.099 95.3958 141.241 95.017L142.861 95.4716C142.69 96.0208 142.404 96.5038 142.001 96.9205C141.599 97.3324 141.102 97.6544 140.51 97.8864C139.918 98.1136 139.253 98.2273 138.514 98.2273ZM147.257 91.4375V98H145.581V87.0909H147.2V88.7955H147.342C147.598 88.2415 147.986 87.7964 148.507 87.4602C149.028 87.1193 149.7 86.9489 150.524 86.9489C151.263 86.9489 151.909 87.1004 152.463 87.4034C153.017 87.7017 153.448 88.1562 153.756 88.767C154.063 89.3731 154.217 90.1402 154.217 91.0682V98H152.541V91.1818C152.541 90.3248 152.319 89.6572 151.874 89.179C151.429 88.696 150.818 88.4545 150.041 88.4545C149.506 88.4545 149.028 88.5705 148.607 88.8026C148.19 89.0346 147.861 89.3731 147.619 89.8182C147.378 90.2633 147.257 90.803 147.257 91.4375ZM161.4 98.2273C160.49 98.2273 159.688 97.9976 158.992 97.5384C158.296 97.0743 157.751 96.4209 157.358 95.5781C156.965 94.7306 156.769 93.7292 156.769 92.5739C156.769 91.428 156.965 90.4337 157.358 89.5909C157.751 88.7481 158.298 88.0971 158.999 87.6378C159.7 87.1785 160.509 86.9489 161.428 86.9489C162.138 86.9489 162.699 87.0672 163.111 87.304C163.528 87.536 163.845 87.8011 164.063 88.0994C164.285 88.393 164.458 88.6345 164.581 88.8239H164.723V83.4545H166.4V98H164.78V96.3239H164.581C164.458 96.5227 164.283 96.7737 164.056 97.0767C163.828 97.375 163.504 97.6425 163.083 97.8793C162.661 98.1113 162.1 98.2273 161.4 98.2273ZM161.627 96.7216C162.299 96.7216 162.867 96.5464 163.331 96.196C163.795 95.8409 164.148 95.3509 164.39 94.7259C164.631 94.0961 164.752 93.3693 164.752 92.5455C164.752 91.7311 164.633 91.0185 164.397 90.4077C164.16 89.7921 163.81 89.3139 163.346 88.973C162.882 88.6274 162.309 88.4545 161.627 88.4545C160.917 88.4545 160.325 88.6368 159.851 89.0014C159.382 89.3613 159.03 89.8513 158.793 90.4716C158.561 91.0871 158.445 91.7784 158.445 92.5455C158.445 93.322 158.563 94.0275 158.8 94.6619C159.042 95.2917 159.397 95.7936 159.865 96.1676C160.339 96.5369 160.926 96.7216 161.627 96.7216ZM174.276 98.2273C173.225 98.2273 172.318 97.9953 171.556 97.5312C170.798 97.0625 170.213 96.4091 169.801 95.571C169.394 94.7282 169.191 93.7481 169.191 92.6307C169.191 91.5133 169.394 90.5284 169.801 89.6761C170.213 88.8191 170.786 88.1515 171.52 87.6733C172.259 87.1903 173.121 86.9489 174.105 86.9489C174.674 86.9489 175.235 87.0436 175.789 87.233C176.343 87.4223 176.847 87.7301 177.301 88.1562C177.756 88.5777 178.118 89.1364 178.388 89.8324C178.658 90.5284 178.793 91.3854 178.793 92.4034V93.1136H170.384V91.6648H177.088C177.088 91.0492 176.965 90.5 176.719 90.017C176.478 89.5341 176.132 89.1529 175.682 88.8736C175.237 88.5942 174.712 88.4545 174.105 88.4545C173.438 88.4545 172.86 88.6203 172.373 88.9517C171.89 89.2784 171.518 89.7045 171.257 90.2301C170.997 90.7557 170.867 91.3191 170.867 91.9205V92.8864C170.867 93.7102 171.009 94.4086 171.293 94.9815C171.582 95.5497 171.982 95.983 172.493 96.2812C173.005 96.5748 173.599 96.7216 174.276 96.7216C174.716 96.7216 175.114 96.66 175.469 96.5369C175.829 96.4091 176.139 96.2197 176.4 95.9688C176.66 95.7131 176.861 95.3958 177.003 95.017L178.623 95.4716C178.452 96.0208 178.166 96.5038 177.763 96.9205C177.361 97.3324 176.864 97.6544 176.272 97.8864C175.68 98.1136 175.015 98.2273 174.276 98.2273ZM181.343 98V87.0909H182.962V88.7386H183.076C183.275 88.1989 183.634 87.7609 184.155 87.4247C184.676 87.0885 185.263 86.9205 185.917 86.9205C186.04 86.9205 186.194 86.9228 186.378 86.9276C186.563 86.9323 186.703 86.9394 186.797 86.9489V88.6534C186.74 88.6392 186.61 88.6179 186.407 88.5895C186.208 88.5563 185.997 88.5398 185.775 88.5398C185.244 88.5398 184.771 88.651 184.354 88.8736C183.942 89.0914 183.615 89.3944 183.374 89.7827C183.137 90.1662 183.019 90.6042 183.019 91.0966V98H181.343ZM193.026 98.2273C191.975 98.2273 191.068 97.9953 190.306 97.5312C189.548 97.0625 188.963 96.4091 188.551 95.571C188.144 94.7282 187.941 93.7481 187.941 92.6307C187.941 91.5133 188.144 90.5284 188.551 89.6761C188.963 88.8191 189.536 88.1515 190.27 87.6733C191.009 87.1903 191.871 86.9489 192.855 86.9489C193.424 86.9489 193.985 87.0436 194.539 87.233C195.093 87.4223 195.597 87.7301 196.051 88.1562C196.506 88.5777 196.868 89.1364 197.138 89.8324C197.408 90.5284 197.543 91.3854 197.543 92.4034V93.1136H189.134V91.6648H195.838C195.838 91.0492 195.715 90.5 195.469 90.017C195.228 89.5341 194.882 89.1529 194.432 88.8736C193.987 88.5942 193.462 88.4545 192.855 88.4545C192.188 88.4545 191.61 88.6203 191.123 88.9517C190.64 89.2784 190.268 89.7045 190.007 90.2301C189.747 90.7557 189.617 91.3191 189.617 91.9205V92.8864C189.617 93.7102 189.759 94.4086 190.043 94.9815C190.332 95.5497 190.732 95.983 191.243 96.2812C191.755 96.5748 192.349 96.7216 193.026 96.7216C193.466 96.7216 193.864 96.66 194.219 96.5369C194.579 96.4091 194.889 96.2197 195.15 95.9688C195.41 95.7131 195.611 95.3958 195.753 95.017L197.373 95.4716C197.202 96.0208 196.916 96.5038 196.513 96.9205C196.111 97.3324 195.614 97.6544 195.022 97.8864C194.43 98.1136 193.765 98.2273 193.026 98.2273ZM200.093 98V87.0909H201.712V88.7386H201.826C202.025 88.1989 202.384 87.7609 202.905 87.4247C203.426 87.0885 204.013 86.9205 204.667 86.9205C204.79 86.9205 204.944 86.9228 205.128 86.9276C205.313 86.9323 205.453 86.9394 205.547 86.9489V88.6534C205.49 88.6392 205.36 88.6179 205.157 88.5895C204.958 88.5563 204.747 88.5398 204.525 88.5398C203.994 88.5398 203.521 88.651 203.104 88.8736C202.692 89.0914 202.365 89.3944 202.124 89.7827C201.887 90.1662 201.769 90.6042 201.769 91.0966V98H200.093ZM207.506 98.1136C207.155 98.1136 206.855 97.9882 206.604 97.7372C206.353 97.4863 206.227 97.1856 206.227 96.8352C206.227 96.4848 206.353 96.1842 206.604 95.9332C206.855 95.6823 207.155 95.5568 207.506 95.5568C207.856 95.5568 208.157 95.6823 208.408 95.9332C208.659 96.1842 208.784 96.4848 208.784 96.8352C208.784 97.0672 208.725 97.2803 208.607 97.4744C208.493 97.6686 208.339 97.8248 208.145 97.9432C207.955 98.0568 207.742 98.1136 207.506 98.1136ZM211.792 98V87.0909H213.468V98H211.792ZM212.644 85.2727C212.317 85.2727 212.036 85.1615 211.799 84.9389C211.567 84.7164 211.451 84.4489 211.451 84.1364C211.451 83.8239 211.567 83.5563 211.799 83.3338C212.036 83.1113 212.317 83 212.644 83C212.971 83 213.25 83.1113 213.482 83.3338C213.719 83.5563 213.837 83.8239 213.837 84.1364C213.837 84.4489 213.719 84.7164 213.482 84.9389C213.25 85.1615 212.971 85.2727 212.644 85.2727ZM218.214 91.4375V98H216.538V87.0909H218.157V88.7955H218.299C218.555 88.2415 218.943 87.7964 219.464 87.4602C219.985 87.1193 220.657 86.9489 221.481 86.9489C222.22 86.9489 222.866 87.1004 223.42 87.4034C223.974 87.7017 224.405 88.1562 224.713 88.767C225.02 89.3731 225.174 90.1402 225.174 91.0682V98H223.498V91.1818C223.498 90.3248 223.276 89.6572 222.831 89.179C222.386 88.696 221.775 88.4545 220.998 88.4545C220.463 88.4545 219.985 88.5705 219.564 88.8026C219.147 89.0346 218.818 89.3731 218.576 89.8182C218.335 90.2633 218.214 90.803 218.214 91.4375ZM236.767 87.0909L232.733 98H231.028L226.994 87.0909H228.812L231.824 95.7841H231.938L234.949 87.0909H236.767ZM243.021 98.2273C242.036 98.2273 241.172 97.9929 240.428 97.5241C239.69 97.0554 239.112 96.3996 238.695 95.5568C238.283 94.714 238.077 93.7292 238.077 92.6023C238.077 91.4659 238.283 90.474 238.695 89.6264C239.112 88.7789 239.69 88.1207 240.428 87.652C241.172 87.1832 242.036 86.9489 243.021 86.9489C244.005 86.9489 244.867 87.1832 245.606 87.652C246.349 88.1207 246.927 88.7789 247.339 89.6264C247.755 90.474 247.964 91.4659 247.964 92.6023C247.964 93.7292 247.755 94.714 247.339 95.5568C246.927 96.3996 246.349 97.0554 245.606 97.5241C244.867 97.9929 244.005 98.2273 243.021 98.2273ZM243.021 96.7216C243.769 96.7216 244.384 96.5298 244.867 96.1463C245.35 95.7628 245.708 95.2585 245.94 94.6335C246.172 94.0085 246.288 93.3314 246.288 92.6023C246.288 91.8731 246.172 91.1937 245.94 90.5639C245.708 89.9342 245.35 89.4252 244.867 89.0369C244.384 88.6487 243.769 88.4545 243.021 88.4545C242.272 88.4545 241.657 88.6487 241.174 89.0369C240.691 89.4252 240.334 89.9342 240.102 90.5639C239.87 91.1937 239.754 91.8731 239.754 92.6023C239.754 93.3314 239.87 94.0085 240.102 94.6335C240.334 95.2585 240.691 95.7628 241.174 96.1463C241.657 96.5298 242.272 96.7216 243.021 96.7216ZM252.085 94.0227L252.056 91.9489H252.397L257.17 87.0909H259.244L254.159 92.233H254.017L252.085 94.0227ZM250.522 98V83.4545H252.199V98H250.522ZM257.454 98L253.193 92.6023L254.386 91.4375L259.585 98H257.454ZM265.526 98.2273C264.475 98.2273 263.568 97.9953 262.806 97.5312C262.048 97.0625 261.463 96.4091 261.051 95.571C260.644 94.7282 260.441 93.7481 260.441 92.6307C260.441 91.5133 260.644 90.5284 261.051 89.6761C261.463 88.8191 262.036 88.1515 262.77 87.6733C263.509 87.1903 264.371 86.9489 265.355 86.9489C265.924 86.9489 266.485 87.0436 267.039 87.233C267.593 87.4223 268.097 87.7301 268.551 88.1562C269.006 88.5777 269.368 89.1364 269.638 89.8324C269.908 90.5284 270.043 91.3854 270.043 92.4034V93.1136H261.634V91.6648H268.338C268.338 91.0492 268.215 90.5 267.969 90.017C267.728 89.5341 267.382 89.1529 266.932 88.8736C266.487 88.5942 265.962 88.4545 265.355 88.4545C264.688 88.4545 264.11 88.6203 263.623 88.9517C263.14 89.2784 262.768 89.7045 262.507 90.2301C262.247 90.7557 262.117 91.3191 262.117 91.9205V92.8864C262.117 93.7102 262.259 94.4086 262.543 94.9815C262.832 95.5497 263.232 95.983 263.743 96.2812C264.255 96.5748 264.849 96.7216 265.526 96.7216C265.966 96.7216 266.364 96.66 266.719 96.5369C267.079 96.4091 267.389 96.2197 267.65 95.9688C267.91 95.7131 268.111 95.3958 268.253 95.017L269.873 95.4716C269.702 96.0208 269.416 96.5038 269.013 96.9205C268.611 97.3324 268.114 97.6544 267.522 97.8864C266.93 98.1136 266.265 98.2273 265.526 98.2273Z" fill="#D9D9D9"/>
<path d="M287.939 171.939C287.354 172.525 287.354 173.475 287.939 174.061L297.485 183.607C298.071 184.192 299.021 184.192 299.607 183.607C300.192 183.021 300.192 182.071 299.607 181.485L291.121 173L299.607 164.515C300.192 163.929 300.192 162.979 299.607 162.393C299.021 161.808 298.071 161.808 297.485 162.393L287.939 171.939ZM491 171.5L289 171.5V174.5L491 174.5V171.5Z" fill="#71D3E9"/>
<path d="M81.9393 209.939C81.3536 210.525 81.3536 211.475 81.9393 212.061L91.4853 221.607C92.0711 222.192 93.0208 222.192 93.6066 221.607C94.1924 221.021 94.1924 220.071 93.6066 219.485L85.1213 211L93.6066 202.515C94.1924 201.929 94.1924 200.979 93.6066 200.393C93.0208 199.808 92.0711 199.808 91.4853 200.393L81.9393 209.939ZM285 209.5L83 209.5V212.5L285 212.5V209.5Z" fill="#71D3E9"/>
</svg>
