<svg width="641" height="172" viewBox="0 0 641 172" fill="none" xmlns="http://www.w3.org/2000/svg">
<rect x="483" width="158" height="72" fill="#D9D9D9"/>
<rect x="277" width="158" height="72" fill="#D9D9D9"/>
<rect width="158" height="72" fill="#D9D9D9"/>
<path d="M522.534 31V20.0909H524.153V21.7386H524.267C524.466 21.1989 524.826 20.7609 525.347 20.4247C525.867 20.0885 526.455 19.9205 527.108 19.9205C527.231 19.9205 527.385 19.9228 527.57 19.9276C527.754 19.9323 527.894 19.9394 527.989 19.9489V21.6534C527.932 21.6392 527.802 21.6179 527.598 21.5895C527.399 21.5563 527.188 21.5398 526.966 21.5398C526.436 21.5398 525.962 21.651 525.545 21.8736C525.134 22.0914 524.807 22.3944 524.565 22.7827C524.329 23.1662 524.21 23.6042 524.21 24.0966V31H522.534ZM534.217 31.2273C533.166 31.2273 532.259 30.9953 531.497 30.5312C530.74 30.0625 530.155 29.4091 529.743 28.571C529.336 27.7282 529.132 26.7481 529.132 25.6307C529.132 24.5133 529.336 23.5284 529.743 22.6761C530.155 21.8191 530.728 21.1515 531.462 20.6733C532.2 20.1903 533.062 19.9489 534.047 19.9489C534.615 19.9489 535.176 20.0436 535.73 20.233C536.284 20.4223 536.788 20.7301 537.243 21.1562C537.697 21.5777 538.06 22.1364 538.33 22.8324C538.599 23.5284 538.734 24.3854 538.734 25.4034V26.1136H530.325V24.6648H537.03C537.03 24.0492 536.907 23.5 536.661 23.017C536.419 22.5341 536.073 22.1529 535.624 21.8736C535.179 21.5942 534.653 21.4545 534.047 21.4545C533.379 21.4545 532.802 21.6203 532.314 21.9517C531.831 22.2784 531.459 22.7045 531.199 23.2301C530.938 23.7557 530.808 24.3191 530.808 24.9205V25.8864C530.808 26.7102 530.95 27.4086 531.234 27.9815C531.523 28.5497 531.923 28.983 532.435 29.2812C532.946 29.5748 533.54 29.7216 534.217 29.7216C534.658 29.7216 535.055 29.66 535.411 29.5369C535.77 29.4091 536.08 29.2197 536.341 28.9688C536.601 28.7131 536.803 28.3958 536.945 28.017L538.564 28.4716C538.393 29.0208 538.107 29.5038 537.705 29.9205C537.302 30.3324 536.805 30.6544 536.213 30.8864C535.621 31.1136 534.956 31.2273 534.217 31.2273ZM542.96 24.4375V31H541.284V20.0909H542.903V21.7955H543.045C543.301 21.2415 543.689 20.7964 544.21 20.4602C544.731 20.1193 545.403 19.9489 546.227 19.9489C546.966 19.9489 547.612 20.1004 548.166 20.4034C548.72 20.7017 549.151 21.1562 549.459 21.767C549.767 22.3731 549.92 23.1402 549.92 24.0682V31H548.244V24.1818C548.244 23.3248 548.022 22.6572 547.577 22.179C547.132 21.696 546.521 21.4545 545.744 21.4545C545.209 21.4545 544.731 21.5705 544.31 21.8026C543.893 22.0346 543.564 22.3731 543.322 22.8182C543.081 23.2633 542.96 23.803 542.96 24.4375ZM557.103 31.2273C556.194 31.2273 555.391 30.9976 554.695 30.5384C553.999 30.0743 553.454 29.4209 553.061 28.5781C552.668 27.7306 552.472 26.7292 552.472 25.5739C552.472 24.428 552.668 23.4337 553.061 22.5909C553.454 21.7481 554.001 21.0971 554.702 20.6378C555.403 20.1785 556.212 19.9489 557.131 19.9489C557.841 19.9489 558.402 20.0672 558.814 20.304C559.231 20.536 559.548 20.8011 559.766 21.0994C559.989 21.393 560.161 21.6345 560.284 21.8239H560.426V16.4545H562.103V31H560.483V29.3239H560.284C560.161 29.5227 559.986 29.7737 559.759 30.0767C559.532 30.375 559.207 30.6425 558.786 30.8793C558.364 31.1113 557.803 31.2273 557.103 31.2273ZM557.33 29.7216C558.002 29.7216 558.57 29.5464 559.034 29.196C559.498 28.8409 559.851 28.3509 560.093 27.7259C560.334 27.0961 560.455 26.3693 560.455 25.5455C560.455 24.7311 560.337 24.0185 560.1 23.4077C559.863 22.7921 559.513 22.3139 559.049 21.973C558.585 21.6274 558.012 21.4545 557.33 21.4545C556.62 21.4545 556.028 21.6368 555.554 22.0014C555.086 22.3613 554.733 22.8513 554.496 23.4716C554.264 24.0871 554.148 24.7784 554.148 25.5455C554.148 26.322 554.266 27.0275 554.503 27.6619C554.745 28.2917 555.1 28.7936 555.569 29.1676C556.042 29.5369 556.629 29.7216 557.33 29.7216ZM569.979 31.2273C568.928 31.2273 568.021 30.9953 567.259 30.5312C566.501 30.0625 565.917 29.4091 565.505 28.571C565.097 27.7282 564.894 26.7481 564.894 25.6307C564.894 24.5133 565.097 23.5284 565.505 22.6761C565.917 21.8191 566.489 21.1515 567.223 20.6733C567.962 20.1903 568.824 19.9489 569.809 19.9489C570.377 19.9489 570.938 20.0436 571.492 20.233C572.046 20.4223 572.55 20.7301 573.005 21.1562C573.459 21.5777 573.821 22.1364 574.091 22.8324C574.361 23.5284 574.496 24.3854 574.496 25.4034V26.1136H566.087V24.6648H572.792C572.792 24.0492 572.668 23.5 572.422 23.017C572.181 22.5341 571.835 22.1529 571.385 21.8736C570.94 21.5942 570.415 21.4545 569.809 21.4545C569.141 21.4545 568.563 21.6203 568.076 21.9517C567.593 22.2784 567.221 22.7045 566.961 23.2301C566.7 23.7557 566.57 24.3191 566.57 24.9205V25.8864C566.57 26.7102 566.712 27.4086 566.996 27.9815C567.285 28.5497 567.685 28.983 568.196 29.2812C568.708 29.5748 569.302 29.7216 569.979 29.7216C570.419 29.7216 570.817 29.66 571.172 29.5369C571.532 29.4091 571.842 29.2197 572.103 28.9688C572.363 28.7131 572.564 28.3958 572.706 28.017L574.326 28.4716C574.155 29.0208 573.869 29.5038 573.466 29.9205C573.064 30.3324 572.567 30.6544 571.975 30.8864C571.383 31.1136 570.718 31.2273 569.979 31.2273ZM577.046 31V20.0909H578.665V21.7386H578.779C578.978 21.1989 579.337 20.7609 579.858 20.4247C580.379 20.0885 580.966 19.9205 581.62 19.9205C581.743 19.9205 581.897 19.9228 582.081 19.9276C582.266 19.9323 582.406 19.9394 582.5 19.9489V21.6534C582.444 21.6392 582.313 21.6179 582.11 21.5895C581.911 21.5563 581.7 21.5398 581.478 21.5398C580.947 21.5398 580.474 21.651 580.057 21.8736C579.645 22.0914 579.319 22.3944 579.077 22.7827C578.84 23.1662 578.722 23.6042 578.722 24.0966V31H577.046ZM588.729 31.2273C587.678 31.2273 586.771 30.9953 586.009 30.5312C585.251 30.0625 584.667 29.4091 584.255 28.571C583.847 27.7282 583.644 26.7481 583.644 25.6307C583.644 24.5133 583.847 23.5284 584.255 22.6761C584.667 21.8191 585.239 21.1515 585.973 20.6733C586.712 20.1903 587.574 19.9489 588.559 19.9489C589.127 19.9489 589.688 20.0436 590.242 20.233C590.796 20.4223 591.3 20.7301 591.755 21.1562C592.209 21.5777 592.571 22.1364 592.841 22.8324C593.111 23.5284 593.246 24.3854 593.246 25.4034V26.1136H584.837V24.6648H591.542C591.542 24.0492 591.418 23.5 591.172 23.017C590.931 22.5341 590.585 22.1529 590.135 21.8736C589.69 21.5942 589.165 21.4545 588.559 21.4545C587.891 21.4545 587.313 21.6203 586.826 21.9517C586.343 22.2784 585.971 22.7045 585.711 23.2301C585.45 23.7557 585.32 24.3191 585.32 24.9205V25.8864C585.32 26.7102 585.462 27.4086 585.746 27.9815C586.035 28.5497 586.435 28.983 586.946 29.2812C587.458 29.5748 588.052 29.7216 588.729 29.7216C589.169 29.7216 589.567 29.66 589.922 29.5369C590.282 29.4091 590.592 29.2197 590.853 28.9688C591.113 28.7131 591.314 28.3958 591.456 28.017L593.076 28.4716C592.905 29.0208 592.619 29.5038 592.216 29.9205C591.814 30.3324 591.317 30.6544 590.725 30.8864C590.133 31.1136 589.468 31.2273 588.729 31.2273ZM595.796 31V20.0909H597.415V21.7386H597.529C597.728 21.1989 598.087 20.7609 598.608 20.4247C599.129 20.0885 599.716 19.9205 600.37 19.9205C600.493 19.9205 600.647 19.9228 600.831 19.9276C601.016 19.9323 601.156 19.9394 601.25 19.9489V21.6534C601.194 21.6392 601.063 21.6179 600.86 21.5895C600.661 21.5563 600.45 21.5398 600.228 21.5398C599.697 21.5398 599.224 21.651 598.807 21.8736C598.395 22.0914 598.069 22.3944 597.827 22.7827C597.59 23.1662 597.472 23.6042 597.472 24.0966V31H595.796ZM528.159 59.0909V44.0909H529.778V45.8239H529.977C530.1 45.6345 530.271 45.393 530.489 45.0994C530.711 44.8011 531.028 44.536 531.44 44.304C531.857 44.0672 532.42 43.9489 533.131 43.9489C534.049 43.9489 534.859 44.1785 535.56 44.6378C536.26 45.0971 536.807 45.7481 537.2 46.5909C537.593 47.4337 537.79 48.428 537.79 49.5739C537.79 50.7292 537.593 51.7306 537.2 52.5781C536.807 53.4209 536.263 54.0743 535.567 54.5384C534.871 54.9976 534.068 55.2273 533.159 55.2273C532.458 55.2273 531.897 55.1113 531.476 54.8793C531.054 54.6425 530.73 54.375 530.503 54.0767C530.276 53.7737 530.1 53.5227 529.977 53.3239H529.835V59.0909H528.159ZM529.807 49.5455C529.807 50.3693 529.928 51.0961 530.169 51.7259C530.411 52.3509 530.763 52.8409 531.227 53.196C531.691 53.5464 532.259 53.7216 532.932 53.7216C533.633 53.7216 534.217 53.5369 534.686 53.1676C535.16 52.7936 535.515 52.2917 535.751 51.6619C535.993 51.0275 536.114 50.322 536.114 49.5455C536.114 48.7784 535.995 48.0871 535.759 47.4716C535.527 46.8513 535.174 46.3613 534.7 46.0014C534.232 45.6368 533.642 45.4545 532.932 45.4545C532.25 45.4545 531.677 45.6274 531.213 45.973C530.749 46.3139 530.399 46.7921 530.162 47.4077C529.925 48.0185 529.807 48.7311 529.807 49.5455ZM540.347 55V44.0909H541.966V45.7386H542.08C542.278 45.1989 542.638 44.7609 543.159 44.4247C543.68 44.0885 544.267 43.9205 544.92 43.9205C545.044 43.9205 545.197 43.9228 545.382 43.9276C545.567 43.9323 545.706 43.9394 545.801 43.9489V45.6534C545.744 45.6392 545.614 45.6179 545.411 45.5895C545.212 45.5563 545.001 45.5398 544.778 45.5398C544.248 45.5398 543.775 45.651 543.358 45.8736C542.946 46.0914 542.619 46.3944 542.378 46.7827C542.141 47.1662 542.023 47.6042 542.023 48.0966V55H540.347ZM551.888 55.2273C550.903 55.2273 550.039 54.9929 549.295 54.5241C548.557 54.0554 547.979 53.3996 547.562 52.5568C547.151 51.714 546.945 50.7292 546.945 49.6023C546.945 48.4659 547.151 47.474 547.562 46.6264C547.979 45.7789 548.557 45.1207 549.295 44.652C550.039 44.1832 550.903 43.9489 551.888 43.9489C552.873 43.9489 553.734 44.1832 554.473 44.652C555.216 45.1207 555.794 45.7789 556.206 46.6264C556.623 47.474 556.831 48.4659 556.831 49.6023C556.831 50.7292 556.623 51.714 556.206 52.5568C555.794 53.3996 555.216 54.0554 554.473 54.5241C553.734 54.9929 552.873 55.2273 551.888 55.2273ZM551.888 53.7216C552.636 53.7216 553.251 53.5298 553.734 53.1463C554.217 52.7628 554.575 52.2585 554.807 51.6335C555.039 51.0085 555.155 50.3314 555.155 49.6023C555.155 48.8731 555.039 48.1937 554.807 47.5639C554.575 46.9342 554.217 46.4252 553.734 46.0369C553.251 45.6487 552.636 45.4545 551.888 45.4545C551.14 45.4545 550.524 45.6487 550.041 46.0369C549.558 46.4252 549.201 46.9342 548.969 47.5639C548.737 48.1937 548.621 48.8731 548.621 49.6023C548.621 50.3314 548.737 51.0085 548.969 51.6335C549.201 52.2585 549.558 52.7628 550.041 53.1463C550.524 53.5298 551.14 53.7216 551.888 53.7216ZM563.821 55.2273C562.799 55.2273 561.918 54.9858 561.179 54.5028C560.441 54.0199 559.873 53.3546 559.475 52.5071C559.077 51.6596 558.878 50.6913 558.878 49.6023C558.878 48.4943 559.082 47.5166 559.489 46.669C559.901 45.8168 560.474 45.1515 561.208 44.6733C561.946 44.1903 562.808 43.9489 563.793 43.9489C564.56 43.9489 565.251 44.0909 565.867 44.375C566.482 44.6591 566.987 45.0568 567.38 45.5682C567.773 46.0795 568.016 46.6761 568.111 47.358H566.435C566.307 46.8608 566.023 46.4205 565.583 46.0369C565.147 45.6487 564.56 45.4545 563.821 45.4545C563.168 45.4545 562.595 45.625 562.103 45.9659C561.615 46.3021 561.234 46.7779 560.959 47.3935C560.689 48.0043 560.554 48.7216 560.554 49.5455C560.554 50.3883 560.687 51.1222 560.952 51.7472C561.222 52.3722 561.601 52.8575 562.088 53.2031C562.581 53.5488 563.158 53.7216 563.821 53.7216C564.257 53.7216 564.652 53.6458 565.007 53.4943C565.363 53.3428 565.663 53.125 565.909 52.8409C566.156 52.5568 566.331 52.2159 566.435 51.8182H568.111C568.016 52.4621 567.782 53.0421 567.408 53.5582C567.039 54.0696 566.549 54.4768 565.938 54.7798C565.332 55.0781 564.626 55.2273 563.821 55.2273ZM575.135 55.2273C574.084 55.2273 573.177 54.9953 572.415 54.5312C571.658 54.0625 571.073 53.4091 570.661 52.571C570.254 51.7282 570.05 50.7481 570.05 49.6307C570.05 48.5133 570.254 47.5284 570.661 46.6761C571.073 45.8191 571.646 45.1515 572.38 44.6733C573.118 44.1903 573.98 43.9489 574.965 43.9489C575.533 43.9489 576.094 44.0436 576.648 44.233C577.202 44.4223 577.706 44.7301 578.161 45.1562C578.615 45.5777 578.978 46.1364 579.248 46.8324C579.517 47.5284 579.652 48.3854 579.652 49.4034V50.1136H571.243V48.6648H577.948C577.948 48.0492 577.825 47.5 577.578 47.017C577.337 46.5341 576.991 46.1529 576.542 45.8736C576.096 45.5942 575.571 45.4545 574.965 45.4545C574.297 45.4545 573.72 45.6203 573.232 45.9517C572.749 46.2784 572.377 46.7045 572.117 47.2301C571.856 47.7557 571.726 48.3191 571.726 48.9205V49.8864C571.726 50.7102 571.868 51.4086 572.152 51.9815C572.441 52.5497 572.841 52.983 573.353 53.2812C573.864 53.5748 574.458 53.7216 575.135 53.7216C575.576 53.7216 575.973 53.66 576.328 53.5369C576.688 53.4091 576.998 53.2197 577.259 52.9688C577.519 52.7131 577.721 52.3958 577.863 52.017L579.482 52.4716C579.311 53.0208 579.025 53.5038 578.623 53.9205C578.22 54.3324 577.723 54.6544 577.131 54.8864C576.539 55.1136 575.874 55.2273 575.135 55.2273ZM589.929 46.5341L588.424 46.9602C588.329 46.7093 588.189 46.4654 588.005 46.2287C587.825 45.9872 587.578 45.7884 587.266 45.6321C586.953 45.4759 586.553 45.3977 586.066 45.3977C585.398 45.3977 584.842 45.5516 584.397 45.8594C583.956 46.1624 583.736 46.5483 583.736 47.017C583.736 47.4337 583.888 47.7628 584.191 48.0043C584.494 48.2457 584.967 48.447 585.611 48.608L587.23 49.0057C588.206 49.2424 588.933 49.6046 589.411 50.0923C589.889 50.5753 590.128 51.1979 590.128 51.9602C590.128 52.5852 589.948 53.1439 589.588 53.6364C589.233 54.1288 588.736 54.517 588.097 54.8011C587.458 55.0852 586.714 55.2273 585.867 55.2273C584.754 55.2273 583.833 54.9858 583.104 54.5028C582.375 54.0199 581.913 53.3144 581.719 52.3864L583.31 51.9886C583.462 52.5758 583.748 53.0161 584.169 53.3097C584.596 53.6032 585.152 53.75 585.838 53.75C586.62 53.75 587.24 53.5843 587.699 53.2528C588.163 52.9167 588.395 52.5142 588.395 52.0455C588.395 51.6667 588.263 51.3494 587.998 51.0938C587.732 50.8333 587.325 50.6392 586.776 50.5114L584.958 50.0852C583.959 49.8485 583.225 49.4815 582.756 48.9844C582.292 48.4825 582.06 47.8551 582.06 47.1023C582.06 46.4867 582.233 45.9422 582.578 45.4688C582.929 44.9953 583.405 44.6236 584.006 44.3537C584.612 44.0838 585.299 43.9489 586.066 43.9489C587.145 43.9489 587.993 44.1856 588.608 44.6591C589.229 45.1326 589.669 45.7576 589.929 46.5341ZM600.379 46.5341L598.873 46.9602C598.778 46.7093 598.638 46.4654 598.454 46.2287C598.274 45.9872 598.028 45.7884 597.715 45.6321C597.403 45.4759 597.003 45.3977 596.515 45.3977C595.847 45.3977 595.291 45.5516 594.846 45.8594C594.406 46.1624 594.185 46.5483 594.185 47.017C594.185 47.4337 594.337 47.7628 594.64 48.0043C594.943 48.2457 595.416 48.447 596.06 48.608L597.68 49.0057C598.655 49.2424 599.382 49.6046 599.86 50.0923C600.338 50.5753 600.577 51.1979 600.577 51.9602C600.577 52.5852 600.397 53.1439 600.038 53.6364C599.683 54.1288 599.185 54.517 598.546 54.8011C597.907 55.0852 597.164 55.2273 596.316 55.2273C595.203 55.2273 594.282 54.9858 593.553 54.5028C592.824 54.0199 592.362 53.3144 592.168 52.3864L593.759 51.9886C593.911 52.5758 594.197 53.0161 594.619 53.3097C595.045 53.6032 595.601 53.75 596.288 53.75C597.069 53.75 597.689 53.5843 598.148 53.2528C598.612 52.9167 598.844 52.5142 598.844 52.0455C598.844 51.6667 598.712 51.3494 598.447 51.0938C598.182 50.8333 597.774 50.6392 597.225 50.5114L595.407 50.0852C594.408 49.8485 593.674 49.4815 593.205 48.9844C592.741 48.4825 592.509 47.8551 592.509 47.1023C592.509 46.4867 592.682 45.9422 593.028 45.4688C593.378 44.9953 593.854 44.6236 594.455 44.3537C595.061 44.0838 595.748 43.9489 596.515 43.9489C597.594 43.9489 598.442 44.1856 599.058 44.6591C599.678 45.1326 600.118 45.7576 600.379 46.5341Z" fill="black"/>
<path d="M16.5341 43V32.0909H18.1534V33.7955H18.2955C18.5227 33.2131 18.8897 32.7609 19.3963 32.4389C19.9029 32.1122 20.5114 31.9489 21.2216 31.9489C21.9413 31.9489 22.5402 32.1122 23.0185 32.4389C23.5014 32.7609 23.8778 33.2131 24.1477 33.7955H24.2614C24.5407 33.232 24.9598 32.7846 25.5185 32.4531C26.0772 32.117 26.7472 31.9489 27.5284 31.9489C28.5038 31.9489 29.3016 32.2543 29.9219 32.8651C30.5421 33.4711 30.8523 34.4157 30.8523 35.6989V43H29.1761V35.6989C29.1761 34.8939 28.956 34.3187 28.5156 33.973C28.0753 33.6274 27.5568 33.4545 26.9602 33.4545C26.1932 33.4545 25.599 33.6866 25.1776 34.1506C24.7562 34.6098 24.5455 35.1922 24.5455 35.8977V43H22.8409V35.5284C22.8409 34.9081 22.6397 34.4086 22.2372 34.0298C21.8348 33.6463 21.3163 33.4545 20.6818 33.4545C20.2462 33.4545 19.839 33.5705 19.4602 33.8026C19.0862 34.0346 18.7831 34.3565 18.5511 34.7685C18.3239 35.1757 18.2102 35.6468 18.2102 36.1818V43H16.5341ZM37.1271 43.2557C36.4358 43.2557 35.8085 43.1255 35.245 42.8651C34.6816 42.5999 34.2341 42.2188 33.9027 41.7216C33.5713 41.2197 33.4055 40.6136 33.4055 39.9034C33.4055 39.2784 33.5286 38.7718 33.7749 38.3835C34.0211 37.9905 34.3501 37.6828 34.7621 37.4602C35.174 37.2377 35.6286 37.072 36.1257 36.9631C36.6276 36.8494 37.1319 36.7595 37.6385 36.6932C38.3014 36.608 38.8388 36.544 39.2507 36.5014C39.6674 36.4541 39.9704 36.3759 40.1598 36.267C40.3539 36.1581 40.451 35.9687 40.451 35.6989V35.642C40.451 34.9413 40.2592 34.3968 39.8757 34.0085C39.4969 33.6203 38.9216 33.4261 38.1499 33.4261C37.3497 33.4261 36.7223 33.6013 36.2678 33.9517C35.8132 34.3021 35.4936 34.6761 35.3089 35.0739L33.718 34.5057C34.0021 33.8428 34.3809 33.3267 34.8544 32.9574C35.3326 32.5833 35.8535 32.3229 36.4169 32.1761C36.9851 32.0246 37.5438 31.9489 38.093 31.9489C38.4434 31.9489 38.8459 31.9915 39.3004 32.0767C39.7597 32.1572 40.2024 32.3253 40.6286 32.581C41.0594 32.8366 41.4169 33.2225 41.701 33.7386C41.9851 34.2547 42.1271 34.946 42.1271 35.8125V43H40.451V41.5227H40.3658C40.2521 41.7595 40.0627 42.0128 39.7976 42.2827C39.5324 42.5526 39.1797 42.7822 38.7393 42.9716C38.299 43.161 37.7616 43.2557 37.1271 43.2557ZM37.3828 41.75C38.0457 41.75 38.6044 41.6198 39.0589 41.3594C39.5182 41.099 39.8639 40.7628 40.0959 40.3509C40.3326 39.9389 40.451 39.5057 40.451 39.0511V37.517C40.38 37.6023 40.2237 37.6804 39.9822 37.7514C39.7455 37.8177 39.4709 37.8769 39.1584 37.929C38.8506 37.9763 38.55 38.0189 38.2564 38.0568C37.9676 38.09 37.7332 38.1184 37.5533 38.142C37.1177 38.1989 36.7105 38.2912 36.3317 38.419C35.9576 38.5421 35.6546 38.7292 35.4226 38.9801C35.1953 39.2263 35.0817 39.5625 35.0817 39.9886C35.0817 40.571 35.2971 41.0114 35.728 41.3097C36.1636 41.6032 36.7152 41.75 37.3828 41.75ZM45.1864 43V32.0909H46.8626V43H45.1864ZM46.0387 30.2727C45.712 30.2727 45.4303 30.1615 45.1935 29.9389C44.9615 29.7164 44.8455 29.4489 44.8455 29.1364C44.8455 28.8239 44.9615 28.5563 45.1935 28.3338C45.4303 28.1113 45.712 28 46.0387 28C46.3654 28 46.6448 28.1113 46.8768 28.3338C47.1135 28.5563 47.2319 28.8239 47.2319 29.1364C47.2319 29.4489 47.1135 29.7164 46.8768 29.9389C46.6448 30.1615 46.3654 30.2727 46.0387 30.2727ZM51.6087 36.4375V43H49.9325V32.0909H51.5518V33.7955H51.6939C51.9496 33.2415 52.3378 32.7964 52.8587 32.4602C53.3795 32.1193 54.0518 31.9489 54.8757 31.9489C55.6143 31.9489 56.2607 32.1004 56.8146 32.4034C57.3686 32.7017 57.7995 33.1562 58.1072 33.767C58.415 34.3731 58.5689 35.1402 58.5689 36.0682V43H56.8928V36.1818C56.8928 35.3248 56.6702 34.6572 56.2251 34.179C55.7801 33.696 55.1693 33.4545 54.3928 33.4545C53.8577 33.4545 53.3795 33.5705 52.9581 33.8026C52.5414 34.0346 52.2124 34.3731 51.9709 34.8182C51.7294 35.2633 51.6087 35.803 51.6087 36.4375ZM67.2567 47.0909V32.0909H68.8761V33.8239H69.0749C69.198 33.6345 69.3685 33.393 69.5863 33.0994C69.8088 32.8011 70.1261 32.536 70.538 32.304C70.9547 32.0672 71.5181 31.9489 72.2283 31.9489C73.1469 31.9489 73.9566 32.1785 74.6573 32.6378C75.3581 33.0971 75.9049 33.7481 76.2979 34.5909C76.6909 35.4337 76.8874 36.428 76.8874 37.5739C76.8874 38.7292 76.6909 39.7306 76.2979 40.5781C75.9049 41.4209 75.3604 42.0743 74.6644 42.5384C73.9684 42.9976 73.1658 43.2273 72.2567 43.2273C71.556 43.2273 70.9949 43.1113 70.5735 42.8793C70.1521 42.6425 69.8278 42.375 69.6005 42.0767C69.3732 41.7737 69.198 41.5227 69.0749 41.3239H68.9329V47.0909H67.2567ZM68.9045 37.5455C68.9045 38.3693 69.0252 39.0961 69.2667 39.7259C69.5082 40.3509 69.8609 40.8409 70.3249 41.196C70.7889 41.5464 71.3571 41.7216 72.0295 41.7216C72.7302 41.7216 73.315 41.5369 73.7837 41.1676C74.2572 40.7936 74.6123 40.2917 74.8491 39.6619C75.0906 39.0275 75.2113 38.322 75.2113 37.5455C75.2113 36.7784 75.0929 36.0871 74.8562 35.4716C74.6242 34.8513 74.2714 34.3613 73.7979 34.0014C73.3292 33.6368 72.7397 33.4545 72.0295 33.4545C71.3477 33.4545 70.7747 33.6274 70.3107 33.973C69.8467 34.3139 69.4963 34.7921 69.2596 35.4077C69.0228 36.0185 68.9045 36.7311 68.9045 37.5455ZM79.4442 43V32.0909H81.0636V33.7386H81.1772C81.3761 33.1989 81.7359 32.7609 82.2567 32.4247C82.7776 32.0885 83.3647 31.9205 84.0181 31.9205C84.1412 31.9205 84.2951 31.9228 84.4798 31.9276C84.6644 31.9323 84.8041 31.9394 84.8988 31.9489V33.6534C84.842 33.6392 84.7118 33.6179 84.5082 33.5895C84.3093 33.5563 84.0986 33.5398 83.8761 33.5398C83.3458 33.5398 82.8723 33.651 82.4556 33.8736C82.0437 34.0914 81.717 34.3944 81.4755 34.7827C81.2388 35.1662 81.1204 35.6042 81.1204 36.0966V43H79.4442ZM90.9854 43.2273C90.0006 43.2273 89.1365 42.9929 88.3931 42.5241C87.6545 42.0554 87.0768 41.3996 86.6602 40.5568C86.2482 39.714 86.0423 38.7292 86.0423 37.6023C86.0423 36.4659 86.2482 35.474 86.6602 34.6264C87.0768 33.7789 87.6545 33.1207 88.3931 32.652C89.1365 32.1832 90.0006 31.9489 90.9854 31.9489C91.9703 31.9489 92.832 32.1832 93.5707 32.652C94.314 33.1207 94.8917 33.7789 95.3036 34.6264C95.7203 35.474 95.9286 36.4659 95.9286 37.6023C95.9286 38.7292 95.7203 39.714 95.3036 40.5568C94.8917 41.3996 94.314 42.0554 93.5707 42.5241C92.832 42.9929 91.9703 43.2273 90.9854 43.2273ZM90.9854 41.7216C91.7335 41.7216 92.3491 41.5298 92.832 41.1463C93.315 40.7628 93.6725 40.2585 93.9045 39.6335C94.1365 39.0085 94.2525 38.3314 94.2525 37.6023C94.2525 36.8731 94.1365 36.1937 93.9045 35.5639C93.6725 34.9342 93.315 34.4252 92.832 34.0369C92.3491 33.6487 91.7335 33.4545 90.9854 33.4545C90.2373 33.4545 89.6218 33.6487 89.1388 34.0369C88.6559 34.4252 88.2984 34.9342 88.0664 35.5639C87.8344 36.1937 87.7184 36.8731 87.7184 37.6023C87.7184 38.3314 87.8344 39.0085 88.0664 39.6335C88.2984 40.2585 88.6559 40.7628 89.1388 41.1463C89.6218 41.5298 90.2373 41.7216 90.9854 41.7216ZM102.919 43.2273C101.896 43.2273 101.016 42.9858 100.277 42.5028C99.5384 42.0199 98.9702 41.3546 98.5724 40.5071C98.1747 39.6596 97.9759 38.6913 97.9759 37.6023C97.9759 36.4943 98.1795 35.5166 98.5866 34.669C98.9986 33.8168 99.5715 33.1515 100.305 32.6733C101.044 32.1903 101.906 31.9489 102.891 31.9489C103.658 31.9489 104.349 32.0909 104.964 32.375C105.58 32.6591 106.084 33.0568 106.477 33.5682C106.87 34.0795 107.114 34.6761 107.209 35.358H105.533C105.405 34.8608 105.121 34.4205 104.68 34.0369C104.245 33.6487 103.658 33.4545 102.919 33.4545C102.266 33.4545 101.693 33.625 101.2 33.9659C100.713 34.3021 100.331 34.7779 100.057 35.3935C99.7869 36.0043 99.652 36.7216 99.652 37.5455C99.652 38.3883 99.7846 39.1222 100.05 39.7472C100.32 40.3722 100.698 40.8575 101.186 41.2031C101.679 41.5488 102.256 41.7216 102.919 41.7216C103.355 41.7216 103.75 41.6458 104.105 41.4943C104.46 41.3428 104.761 41.125 105.007 40.8409C105.253 40.5568 105.429 40.2159 105.533 39.8182H107.209C107.114 40.4621 106.88 41.0421 106.506 41.5582C106.136 42.0696 105.646 42.4768 105.036 42.7798C104.429 43.0781 103.724 43.2273 102.919 43.2273ZM114.233 43.2273C113.182 43.2273 112.275 42.9953 111.513 42.5312C110.755 42.0625 110.17 41.4091 109.759 40.571C109.351 39.7282 109.148 38.7481 109.148 37.6307C109.148 36.5133 109.351 35.5284 109.759 34.6761C110.17 33.8191 110.743 33.1515 111.477 32.6733C112.216 32.1903 113.078 31.9489 114.062 31.9489C114.631 31.9489 115.192 32.0436 115.746 32.233C116.3 32.4223 116.804 32.7301 117.259 33.1562C117.713 33.5777 118.075 34.1364 118.345 34.8324C118.615 35.5284 118.75 36.3854 118.75 37.4034V38.1136H110.341V36.6648H117.045C117.045 36.0492 116.922 35.5 116.676 35.017C116.435 34.5341 116.089 34.1529 115.639 33.8736C115.194 33.5942 114.669 33.4545 114.062 33.4545C113.395 33.4545 112.817 33.6203 112.33 33.9517C111.847 34.2784 111.475 34.7045 111.214 35.2301C110.954 35.7557 110.824 36.3191 110.824 36.9205V37.8864C110.824 38.7102 110.966 39.4086 111.25 39.9815C111.539 40.5497 111.939 40.983 112.45 41.2812C112.962 41.5748 113.556 41.7216 114.233 41.7216C114.673 41.7216 115.071 41.66 115.426 41.5369C115.786 41.4091 116.096 41.2197 116.357 40.9688C116.617 40.7131 116.818 40.3958 116.96 40.017L118.58 40.4716C118.409 41.0208 118.123 41.5038 117.72 41.9205C117.318 42.3324 116.821 42.6544 116.229 42.8864C115.637 43.1136 114.972 43.2273 114.233 43.2273ZM129.027 34.5341L127.521 34.9602C127.427 34.7093 127.287 34.4654 127.102 34.2287C126.922 33.9872 126.676 33.7884 126.364 33.6321C126.051 33.4759 125.651 33.3977 125.163 33.3977C124.496 33.3977 123.939 33.5516 123.494 33.8594C123.054 34.1624 122.834 34.5483 122.834 35.017C122.834 35.4337 122.985 35.7628 123.288 36.0043C123.591 36.2457 124.065 36.447 124.709 36.608L126.328 37.0057C127.304 37.2424 128.03 37.6046 128.509 38.0923C128.987 38.5753 129.226 39.1979 129.226 39.9602C129.226 40.5852 129.046 41.1439 128.686 41.6364C128.331 42.1288 127.834 42.517 127.195 42.8011C126.555 43.0852 125.812 43.2273 124.964 43.2273C123.852 43.2273 122.931 42.9858 122.202 42.5028C121.473 42.0199 121.011 41.3144 120.817 40.3864L122.408 39.9886C122.559 40.5758 122.846 41.0161 123.267 41.3097C123.693 41.6032 124.25 41.75 124.936 41.75C125.717 41.75 126.338 41.5843 126.797 41.2528C127.261 40.9167 127.493 40.5142 127.493 40.0455C127.493 39.6667 127.36 39.3494 127.095 39.0938C126.83 38.8333 126.423 38.6392 125.874 38.5114L124.055 38.0852C123.056 37.8485 122.322 37.4815 121.854 36.9844C121.39 36.4825 121.158 35.8551 121.158 35.1023C121.158 34.4867 121.33 33.9422 121.676 33.4688C122.027 32.9953 122.502 32.6236 123.104 32.3537C123.71 32.0838 124.396 31.9489 125.163 31.9489C126.243 31.9489 127.09 32.1856 127.706 32.6591C128.326 33.1326 128.767 33.7576 129.027 34.5341ZM139.476 34.5341L137.971 34.9602C137.876 34.7093 137.736 34.4654 137.551 34.2287C137.372 33.9872 137.125 33.7884 136.813 33.6321C136.5 33.4759 136.1 33.3977 135.613 33.3977C134.945 33.3977 134.389 33.5516 133.944 33.8594C133.503 34.1624 133.283 34.5483 133.283 35.017C133.283 35.4337 133.435 35.7628 133.738 36.0043C134.041 36.2457 134.514 36.447 135.158 36.608L136.777 37.0057C137.753 37.2424 138.48 37.6046 138.958 38.0923C139.436 38.5753 139.675 39.1979 139.675 39.9602C139.675 40.5852 139.495 41.1439 139.135 41.6364C138.78 42.1288 138.283 42.517 137.644 42.8011C137.005 43.0852 136.261 43.2273 135.414 43.2273C134.301 43.2273 133.38 42.9858 132.651 42.5028C131.922 42.0199 131.46 41.3144 131.266 40.3864L132.857 39.9886C133.008 40.5758 133.295 41.0161 133.716 41.3097C134.142 41.6032 134.699 41.75 135.385 41.75C136.167 41.75 136.787 41.5843 137.246 41.2528C137.71 40.9167 137.942 40.5142 137.942 40.0455C137.942 39.6667 137.81 39.3494 137.544 39.0938C137.279 38.8333 136.872 38.6392 136.323 38.5114L134.505 38.0852C133.506 37.8485 132.772 37.4815 132.303 36.9844C131.839 36.4825 131.607 35.8551 131.607 35.1023C131.607 34.4867 131.78 33.9422 132.125 33.4688C132.476 32.9953 132.952 32.6236 133.553 32.3537C134.159 32.0838 134.846 31.9489 135.613 31.9489C136.692 31.9489 137.54 32.1856 138.155 32.6591C138.775 33.1326 139.216 33.7576 139.476 34.5341Z" fill="black"/>
<path d="M321.534 47.0909V32.0909H323.153V33.8239H323.352C323.475 33.6345 323.646 33.393 323.864 33.0994C324.086 32.8011 324.403 32.536 324.815 32.304C325.232 32.0672 325.795 31.9489 326.506 31.9489C327.424 31.9489 328.234 32.1785 328.935 32.6378C329.635 33.0971 330.182 33.7481 330.575 34.5909C330.968 35.4337 331.165 36.428 331.165 37.5739C331.165 38.7292 330.968 39.7306 330.575 40.5781C330.182 41.4209 329.638 42.0743 328.942 42.5384C328.246 42.9976 327.443 43.2273 326.534 43.2273C325.833 43.2273 325.272 43.1113 324.851 42.8793C324.429 42.6425 324.105 42.375 323.878 42.0767C323.651 41.7737 323.475 41.5227 323.352 41.3239H323.21V47.0909H321.534ZM323.182 37.5455C323.182 38.3693 323.303 39.0961 323.544 39.7259C323.786 40.3509 324.138 40.8409 324.602 41.196C325.066 41.5464 325.634 41.7216 326.307 41.7216C327.008 41.7216 327.592 41.5369 328.061 41.1676C328.535 40.7936 328.89 40.2917 329.126 39.6619C329.368 39.0275 329.489 38.322 329.489 37.5455C329.489 36.7784 329.37 36.0871 329.134 35.4716C328.902 34.8513 328.549 34.3613 328.075 34.0014C327.607 33.6368 327.017 33.4545 326.307 33.4545C325.625 33.4545 325.052 33.6274 324.588 33.973C324.124 34.3139 323.774 34.7921 323.537 35.4077C323.3 36.0185 323.182 36.7311 323.182 37.5455ZM333.722 43V32.0909H335.341V33.7386H335.455C335.653 33.1989 336.013 32.7609 336.534 32.4247C337.055 32.0885 337.642 31.9205 338.295 31.9205C338.419 31.9205 338.572 31.9228 338.757 31.9276C338.942 31.9323 339.081 31.9394 339.176 31.9489V33.6534C339.119 33.6392 338.989 33.6179 338.786 33.5895C338.587 33.5563 338.376 33.5398 338.153 33.5398C337.623 33.5398 337.15 33.651 336.733 33.8736C336.321 34.0914 335.994 34.3944 335.753 34.7827C335.516 35.1662 335.398 35.6042 335.398 36.0966V43H333.722ZM345.405 43.2273C344.354 43.2273 343.447 42.9953 342.685 42.5312C341.927 42.0625 341.342 41.4091 340.93 40.571C340.523 39.7282 340.32 38.7481 340.32 37.6307C340.32 36.5133 340.523 35.5284 340.93 34.6761C341.342 33.8191 341.915 33.1515 342.649 32.6733C343.388 32.1903 344.25 31.9489 345.234 31.9489C345.803 31.9489 346.364 32.0436 346.918 32.233C347.472 32.4223 347.976 32.7301 348.43 33.1562C348.885 33.5777 349.247 34.1364 349.517 34.8324C349.787 35.5284 349.922 36.3854 349.922 37.4034V38.1136H341.513V36.6648H348.217C348.217 36.0492 348.094 35.5 347.848 35.017C347.607 34.5341 347.261 34.1529 346.811 33.8736C346.366 33.5942 345.84 33.4545 345.234 33.4545C344.567 33.4545 343.989 33.6203 343.501 33.9517C343.018 34.2784 342.647 34.7045 342.386 35.2301C342.126 35.7557 341.996 36.3191 341.996 36.9205V37.8864C341.996 38.7102 342.138 39.4086 342.422 39.9815C342.711 40.5497 343.111 40.983 343.622 41.2812C344.134 41.5748 344.728 41.7216 345.405 41.7216C345.845 41.7216 346.243 41.66 346.598 41.5369C346.958 41.4091 347.268 41.2197 347.528 40.9688C347.789 40.7131 347.99 40.3958 348.132 40.017L349.751 40.4716C349.581 41.0208 349.295 41.5038 348.892 41.9205C348.49 42.3324 347.992 42.6544 347.401 42.8864C346.809 43.1136 346.143 43.2273 345.405 43.2273ZM354.148 28.4545V43H352.472V28.4545H354.148ZM361.65 43.2273C360.665 43.2273 359.801 42.9929 359.057 42.5241C358.319 42.0554 357.741 41.3996 357.324 40.5568C356.912 39.714 356.706 38.7292 356.706 37.6023C356.706 36.4659 356.912 35.474 357.324 34.6264C357.741 33.7789 358.319 33.1207 359.057 32.652C359.801 32.1832 360.665 31.9489 361.65 31.9489C362.634 31.9489 363.496 32.1832 364.235 32.652C364.978 33.1207 365.556 33.7789 365.968 34.6264C366.384 35.474 366.593 36.4659 366.593 37.6023C366.593 38.7292 366.384 39.714 365.968 40.5568C365.556 41.3996 364.978 42.0554 364.235 42.5241C363.496 42.9929 362.634 43.2273 361.65 43.2273ZM361.65 41.7216C362.398 41.7216 363.013 41.5298 363.496 41.1463C363.979 40.7628 364.337 40.2585 364.569 39.6335C364.801 39.0085 364.917 38.3314 364.917 37.6023C364.917 36.8731 364.801 36.1937 364.569 35.5639C364.337 34.9342 363.979 34.4252 363.496 34.0369C363.013 33.6487 362.398 33.4545 361.65 33.4545C360.901 33.4545 360.286 33.6487 359.803 34.0369C359.32 34.4252 358.962 34.9342 358.73 35.5639C358.498 36.1937 358.382 36.8731 358.382 37.6023C358.382 38.3314 358.498 39.0085 358.73 39.6335C358.962 40.2585 359.32 40.7628 359.803 41.1463C360.286 41.5298 360.901 41.7216 361.65 41.7216ZM372.362 43.2557C371.67 43.2557 371.043 43.1255 370.479 42.8651C369.916 42.5999 369.469 42.2188 369.137 41.7216C368.806 41.2197 368.64 40.6136 368.64 39.9034C368.64 39.2784 368.763 38.7718 369.009 38.3835C369.255 37.9905 369.585 37.6828 369.996 37.4602C370.408 37.2377 370.863 37.072 371.36 36.9631C371.862 36.8494 372.366 36.7595 372.873 36.6932C373.536 36.608 374.073 36.544 374.485 36.5014C374.902 36.4541 375.205 36.3759 375.394 36.267C375.588 36.1581 375.685 35.9687 375.685 35.6989V35.642C375.685 34.9413 375.494 34.3968 375.11 34.0085C374.731 33.6203 374.156 33.4261 373.384 33.4261C372.584 33.4261 371.957 33.6013 371.502 33.9517C371.048 34.3021 370.728 34.6761 370.543 35.0739L368.952 34.5057C369.237 33.8428 369.615 33.3267 370.089 32.9574C370.567 32.5833 371.088 32.3229 371.651 32.1761C372.219 32.0246 372.778 31.9489 373.327 31.9489C373.678 31.9489 374.08 31.9915 374.535 32.0767C374.994 32.1572 375.437 32.3253 375.863 32.581C376.294 32.8366 376.651 33.2225 376.935 33.7386C377.219 34.2547 377.362 34.946 377.362 35.8125V43H375.685V41.5227H375.6C375.487 41.7595 375.297 42.0128 375.032 42.2827C374.767 42.5526 374.414 42.7822 373.974 42.9716C373.533 43.161 372.996 43.2557 372.362 43.2557ZM372.617 41.75C373.28 41.75 373.839 41.6198 374.293 41.3594C374.753 41.099 375.098 40.7628 375.33 40.3509C375.567 39.9389 375.685 39.5057 375.685 39.0511V37.517C375.614 37.6023 375.458 37.6804 375.217 37.7514C374.98 37.8177 374.705 37.8769 374.393 37.929C374.085 37.9763 373.784 38.0189 373.491 38.0568C373.202 38.09 372.968 38.1184 372.788 38.142C372.352 38.1989 371.945 38.2912 371.566 38.419C371.192 38.5421 370.889 38.7292 370.657 38.9801C370.43 39.2263 370.316 39.5625 370.316 39.9886C370.316 40.571 370.531 41.0114 370.962 41.3097C371.398 41.6032 371.95 41.75 372.617 41.75ZM384.54 43.2273C383.631 43.2273 382.828 42.9976 382.132 42.5384C381.436 42.0743 380.892 41.4209 380.499 40.5781C380.106 39.7306 379.909 38.7292 379.909 37.5739C379.909 36.428 380.106 35.4337 380.499 34.5909C380.892 33.7481 381.439 33.0971 382.14 32.6378C382.84 32.1785 383.65 31.9489 384.569 31.9489C385.279 31.9489 385.84 32.0672 386.252 32.304C386.668 32.536 386.986 32.8011 387.203 33.0994C387.426 33.393 387.599 33.6345 387.722 33.8239H387.864V28.4545H389.54V43H387.921V41.3239H387.722C387.599 41.5227 387.424 41.7737 387.196 42.0767C386.969 42.375 386.645 42.6425 386.223 42.8793C385.802 43.1113 385.241 43.2273 384.54 43.2273ZM384.767 41.7216C385.44 41.7216 386.008 41.5464 386.472 41.196C386.936 40.8409 387.289 40.3509 387.53 39.7259C387.772 39.0961 387.892 38.3693 387.892 37.5455C387.892 36.7311 387.774 36.0185 387.537 35.4077C387.301 34.7921 386.95 34.3139 386.486 33.973C386.022 33.6274 385.449 33.4545 384.767 33.4545C384.057 33.4545 383.465 33.6368 382.992 34.0014C382.523 34.3613 382.17 34.8513 381.934 35.4716C381.702 36.0871 381.586 36.7784 381.586 37.5455C381.586 38.322 381.704 39.0275 381.941 39.6619C382.182 40.2917 382.537 40.7936 383.006 41.1676C383.48 41.5369 384.067 41.7216 384.767 41.7216Z" fill="black"/>
<path d="M404.534 131V120.091H406.21V131H404.534ZM405.386 118.273C405.06 118.273 404.778 118.161 404.541 117.939C404.309 117.716 404.193 117.449 404.193 117.136C404.193 116.824 404.309 116.556 404.541 116.334C404.778 116.111 405.06 116 405.386 116C405.713 116 405.992 116.111 406.224 116.334C406.461 116.556 406.58 116.824 406.58 117.136C406.58 117.449 406.461 117.716 406.224 117.939C405.992 118.161 405.713 118.273 405.386 118.273ZM409.28 135.091V120.091H410.9V121.824H411.098C411.221 121.634 411.392 121.393 411.61 121.099C411.832 120.801 412.15 120.536 412.561 120.304C412.978 120.067 413.542 119.949 414.252 119.949C415.17 119.949 415.98 120.179 416.681 120.638C417.382 121.097 417.928 121.748 418.321 122.591C418.714 123.434 418.911 124.428 418.911 125.574C418.911 126.729 418.714 127.731 418.321 128.578C417.928 129.421 417.384 130.074 416.688 130.538C415.992 130.998 415.189 131.227 414.28 131.227C413.579 131.227 413.018 131.111 412.597 130.879C412.176 130.643 411.851 130.375 411.624 130.077C411.397 129.774 411.221 129.523 411.098 129.324H410.956V135.091H409.28ZM410.928 125.545C410.928 126.369 411.049 127.096 411.29 127.726C411.532 128.351 411.884 128.841 412.348 129.196C412.812 129.546 413.381 129.722 414.053 129.722C414.754 129.722 415.338 129.537 415.807 129.168C416.281 128.794 416.636 128.292 416.873 127.662C417.114 127.027 417.235 126.322 417.235 125.545C417.235 124.778 417.116 124.087 416.88 123.472C416.648 122.851 416.295 122.361 415.821 122.001C415.353 121.637 414.763 121.455 414.053 121.455C413.371 121.455 412.798 121.627 412.334 121.973C411.87 122.314 411.52 122.792 411.283 123.408C411.046 124.018 410.928 124.731 410.928 125.545ZM425.9 131.227C424.877 131.227 423.996 130.986 423.257 130.503C422.519 130.02 421.951 129.355 421.553 128.507C421.155 127.66 420.956 126.691 420.956 125.602C420.956 124.494 421.16 123.517 421.567 122.669C421.979 121.817 422.552 121.152 423.286 120.673C424.025 120.19 424.886 119.949 425.871 119.949C426.638 119.949 427.329 120.091 427.945 120.375C428.56 120.659 429.065 121.057 429.458 121.568C429.851 122.08 430.095 122.676 430.189 123.358H428.513C428.385 122.861 428.101 122.42 427.661 122.037C427.225 121.649 426.638 121.455 425.9 121.455C425.246 121.455 424.673 121.625 424.181 121.966C423.693 122.302 423.312 122.778 423.037 123.393C422.767 124.004 422.632 124.722 422.632 125.545C422.632 126.388 422.765 127.122 423.03 127.747C423.3 128.372 423.679 128.857 424.167 129.203C424.659 129.549 425.237 129.722 425.9 129.722C426.335 129.722 426.73 129.646 427.086 129.494C427.441 129.343 427.741 129.125 427.988 128.841C428.234 128.557 428.409 128.216 428.513 127.818H430.189C430.095 128.462 429.86 129.042 429.486 129.558C429.117 130.07 428.627 130.477 428.016 130.78C427.41 131.078 426.704 131.227 425.9 131.227ZM432.867 131V116.455H437.782C438.918 116.455 439.851 116.649 440.58 117.037C441.309 117.42 441.849 117.948 442.199 118.621C442.55 119.293 442.725 120.058 442.725 120.915C442.725 121.772 442.55 122.532 442.199 123.195C441.849 123.857 441.311 124.378 440.587 124.757C439.863 125.131 438.937 125.318 437.81 125.318H433.833V123.727H437.753C438.53 123.727 439.155 123.614 439.628 123.386C440.106 123.159 440.452 122.837 440.665 122.42C440.883 121.999 440.992 121.497 440.992 120.915C440.992 120.332 440.883 119.823 440.665 119.388C440.447 118.952 440.099 118.616 439.621 118.379C439.143 118.138 438.511 118.017 437.725 118.017H434.628V131H432.867ZM439.713 124.466L443.293 131H441.248L437.725 124.466H439.713ZM449.889 131.227C448.838 131.227 447.931 130.995 447.169 130.531C446.411 130.062 445.827 129.409 445.415 128.571C445.008 127.728 444.804 126.748 444.804 125.631C444.804 124.513 445.008 123.528 445.415 122.676C445.827 121.819 446.4 121.152 447.134 120.673C447.872 120.19 448.734 119.949 449.719 119.949C450.287 119.949 450.848 120.044 451.402 120.233C451.956 120.422 452.46 120.73 452.915 121.156C453.369 121.578 453.732 122.136 454.001 122.832C454.271 123.528 454.406 124.385 454.406 125.403V126.114H445.997V124.665H452.702C452.702 124.049 452.579 123.5 452.332 123.017C452.091 122.534 451.745 122.153 451.295 121.874C450.85 121.594 450.325 121.455 449.719 121.455C449.051 121.455 448.473 121.62 447.986 121.952C447.503 122.278 447.131 122.705 446.871 123.23C446.61 123.756 446.48 124.319 446.48 124.92V125.886C446.48 126.71 446.622 127.409 446.906 127.982C447.195 128.55 447.595 128.983 448.107 129.281C448.618 129.575 449.212 129.722 449.889 129.722C450.33 129.722 450.727 129.66 451.082 129.537C451.442 129.409 451.752 129.22 452.013 128.969C452.273 128.713 452.474 128.396 452.616 128.017L454.236 128.472C454.065 129.021 453.779 129.504 453.376 129.92C452.974 130.332 452.477 130.654 451.885 130.886C451.293 131.114 450.628 131.227 449.889 131.227ZM458.632 124.438V131H456.956V120.091H458.575V121.795H458.717C458.973 121.241 459.361 120.796 459.882 120.46C460.403 120.119 461.075 119.949 461.899 119.949C462.638 119.949 463.284 120.1 463.838 120.403C464.392 120.702 464.823 121.156 465.131 121.767C465.438 122.373 465.592 123.14 465.592 124.068V131H463.916V124.182C463.916 123.325 463.694 122.657 463.249 122.179C462.804 121.696 462.193 121.455 461.416 121.455C460.881 121.455 460.403 121.571 459.982 121.803C459.565 122.035 459.236 122.373 458.994 122.818C458.753 123.263 458.632 123.803 458.632 124.438ZM472.775 131.227C471.865 131.227 471.063 130.998 470.367 130.538C469.671 130.074 469.126 129.421 468.733 128.578C468.34 127.731 468.144 126.729 468.144 125.574C468.144 124.428 468.34 123.434 468.733 122.591C469.126 121.748 469.673 121.097 470.374 120.638C471.075 120.179 471.884 119.949 472.803 119.949C473.513 119.949 474.074 120.067 474.486 120.304C474.903 120.536 475.22 120.801 475.438 121.099C475.66 121.393 475.833 121.634 475.956 121.824H476.098V116.455H477.775V131H476.155V129.324H475.956C475.833 129.523 475.658 129.774 475.431 130.077C475.203 130.375 474.879 130.643 474.458 130.879C474.036 131.111 473.475 131.227 472.775 131.227ZM473.002 129.722C473.674 129.722 474.242 129.546 474.706 129.196C475.17 128.841 475.523 128.351 475.765 127.726C476.006 127.096 476.127 126.369 476.127 125.545C476.127 124.731 476.008 124.018 475.772 123.408C475.535 122.792 475.185 122.314 474.721 121.973C474.257 121.627 473.684 121.455 473.002 121.455C472.292 121.455 471.7 121.637 471.226 122.001C470.757 122.361 470.405 122.851 470.168 123.472C469.936 124.087 469.82 124.778 469.82 125.545C469.82 126.322 469.938 127.027 470.175 127.662C470.417 128.292 470.772 128.794 471.24 129.168C471.714 129.537 472.301 129.722 473.002 129.722ZM485.651 131.227C484.6 131.227 483.693 130.995 482.931 130.531C482.173 130.062 481.588 129.409 481.176 128.571C480.769 127.728 480.566 126.748 480.566 125.631C480.566 124.513 480.769 123.528 481.176 122.676C481.588 121.819 482.161 121.152 482.895 120.673C483.634 120.19 484.496 119.949 485.48 119.949C486.049 119.949 486.61 120.044 487.164 120.233C487.718 120.422 488.222 120.73 488.676 121.156C489.131 121.578 489.493 122.136 489.763 122.832C490.033 123.528 490.168 124.385 490.168 125.403V126.114H481.759V124.665H488.463C488.463 124.049 488.34 123.5 488.094 123.017C487.853 122.534 487.507 122.153 487.057 121.874C486.612 121.594 486.087 121.455 485.48 121.455C484.813 121.455 484.235 121.62 483.748 121.952C483.265 122.278 482.893 122.705 482.632 123.23C482.372 123.756 482.242 124.319 482.242 124.92V125.886C482.242 126.71 482.384 127.409 482.668 127.982C482.957 128.55 483.357 128.983 483.868 129.281C484.38 129.575 484.974 129.722 485.651 129.722C486.091 129.722 486.489 129.66 486.844 129.537C487.204 129.409 487.514 129.22 487.775 128.969C488.035 128.713 488.236 128.396 488.378 128.017L489.998 128.472C489.827 129.021 489.541 129.504 489.138 129.92C488.736 130.332 488.239 130.654 487.647 130.886C487.055 131.114 486.39 131.227 485.651 131.227ZM492.718 131V120.091H494.337V121.739H494.451C494.65 121.199 495.009 120.761 495.53 120.425C496.051 120.089 496.638 119.92 497.292 119.92C497.415 119.92 497.569 119.923 497.753 119.928C497.938 119.932 498.078 119.939 498.172 119.949V121.653C498.115 121.639 497.985 121.618 497.782 121.589C497.583 121.556 497.372 121.54 497.15 121.54C496.619 121.54 496.146 121.651 495.729 121.874C495.317 122.091 494.99 122.394 494.749 122.783C494.512 123.166 494.394 123.604 494.394 124.097V131H492.718ZM504.401 131.227C503.35 131.227 502.443 130.995 501.681 130.531C500.923 130.062 500.338 129.409 499.926 128.571C499.519 127.728 499.316 126.748 499.316 125.631C499.316 124.513 499.519 123.528 499.926 122.676C500.338 121.819 500.911 121.152 501.645 120.673C502.384 120.19 503.246 119.949 504.23 119.949C504.799 119.949 505.36 120.044 505.914 120.233C506.468 120.422 506.972 120.73 507.426 121.156C507.881 121.578 508.243 122.136 508.513 122.832C508.783 123.528 508.918 124.385 508.918 125.403V126.114H500.509V124.665H507.213C507.213 124.049 507.09 123.5 506.844 123.017C506.603 122.534 506.257 122.153 505.807 121.874C505.362 121.594 504.837 121.455 504.23 121.455C503.563 121.455 502.985 121.62 502.498 121.952C502.015 122.278 501.643 122.705 501.382 123.23C501.122 123.756 500.992 124.319 500.992 124.92V125.886C500.992 126.71 501.134 127.409 501.418 127.982C501.707 128.55 502.107 128.983 502.618 129.281C503.13 129.575 503.724 129.722 504.401 129.722C504.841 129.722 505.239 129.66 505.594 129.537C505.954 129.409 506.264 129.22 506.525 128.969C506.785 128.713 506.986 128.396 507.128 128.017L508.748 128.472C508.577 129.021 508.291 129.504 507.888 129.92C507.486 130.332 506.989 130.654 506.397 130.886C505.805 131.114 505.14 131.227 504.401 131.227ZM511.468 131V120.091H513.087V121.739H513.201C513.4 121.199 513.759 120.761 514.28 120.425C514.801 120.089 515.388 119.92 516.042 119.92C516.165 119.92 516.319 119.923 516.503 119.928C516.688 119.932 516.828 119.939 516.922 119.949V121.653C516.865 121.639 516.735 121.618 516.532 121.589C516.333 121.556 516.122 121.54 515.9 121.54C515.369 121.54 514.896 121.651 514.479 121.874C514.067 122.091 513.74 122.394 513.499 122.783C513.262 123.166 513.144 123.604 513.144 124.097V131H511.468ZM518.881 131.114C518.53 131.114 518.23 130.988 517.979 130.737C517.728 130.486 517.602 130.186 517.602 129.835C517.602 129.485 517.728 129.184 517.979 128.933C518.23 128.682 518.53 128.557 518.881 128.557C519.231 128.557 519.532 128.682 519.783 128.933C520.034 129.184 520.159 129.485 520.159 129.835C520.159 130.067 520.1 130.28 519.982 130.474C519.868 130.669 519.714 130.825 519.52 130.943C519.33 131.057 519.117 131.114 518.881 131.114ZM527.599 131.227C526.614 131.227 525.75 130.993 525.006 130.524C524.268 130.055 523.69 129.4 523.273 128.557C522.862 127.714 522.656 126.729 522.656 125.602C522.656 124.466 522.862 123.474 523.273 122.626C523.69 121.779 524.268 121.121 525.006 120.652C525.75 120.183 526.614 119.949 527.599 119.949C528.584 119.949 529.445 120.183 530.184 120.652C530.927 121.121 531.505 121.779 531.917 122.626C532.334 123.474 532.542 124.466 532.542 125.602C532.542 126.729 532.334 127.714 531.917 128.557C531.505 129.4 530.927 130.055 530.184 130.524C529.445 130.993 528.584 131.227 527.599 131.227ZM527.599 129.722C528.347 129.722 528.962 129.53 529.445 129.146C529.928 128.763 530.286 128.259 530.518 127.634C530.75 127.009 530.866 126.331 530.866 125.602C530.866 124.873 530.75 124.194 530.518 123.564C530.286 122.934 529.928 122.425 529.445 122.037C528.962 121.649 528.347 121.455 527.599 121.455C526.851 121.455 526.235 121.649 525.752 122.037C525.269 122.425 524.912 122.934 524.68 123.564C524.448 124.194 524.332 124.873 524.332 125.602C524.332 126.331 524.448 127.009 524.68 127.634C524.912 128.259 525.269 128.763 525.752 129.146C526.235 129.53 526.851 129.722 527.599 129.722ZM536.777 124.438V131H535.1V120.091H536.72V121.795H536.862C537.118 121.241 537.506 120.796 538.027 120.46C538.547 120.119 539.22 119.949 540.044 119.949C540.782 119.949 541.429 120.1 541.983 120.403C542.537 120.702 542.967 121.156 543.275 121.767C543.583 122.373 543.737 123.14 543.737 124.068V131H542.061V124.182C542.061 123.325 541.838 122.657 541.393 122.179C540.948 121.696 540.337 121.455 539.561 121.455C539.026 121.455 538.547 121.571 538.126 121.803C537.709 122.035 537.38 122.373 537.139 122.818C536.897 123.263 536.777 123.803 536.777 124.438Z" fill="#D9D9D9"/>
<line x1="357.5" y1="72" x2="357.5" y2="172" stroke="#71D3E9" stroke-width="3"/>
<line x1="80.5" y1="72" x2="80.5" y2="172" stroke="#71D3E9" stroke-width="3"/>
<path d="M563.055 137.066C563.644 136.483 563.649 135.533 563.066 134.945L553.566 125.352C552.983 124.764 552.034 124.759 551.445 125.342C550.856 125.925 550.852 126.875 551.435 127.463L559.879 135.99L551.352 144.434C550.764 145.017 550.759 145.966 551.342 146.555C551.925 147.144 552.875 147.148 553.463 146.565L563.055 137.066ZM355.993 136.5L561.993 137.5L562.007 134.5L356.007 133.5L355.993 136.5Z" fill="#71D3E9"/>
<path d="M357.057 105.064C357.645 104.481 357.648 103.531 357.064 102.943L347.553 93.3628C346.969 92.7749 346.02 92.7715 345.432 93.3552C344.844 93.9388 344.84 94.8886 345.424 95.4765L353.879 103.992L345.363 112.447C344.775 113.031 344.772 113.98 345.355 114.568C345.939 115.156 346.889 115.16 347.476 114.576L357.057 105.064ZM78.9946 104.5L355.995 105.5L356.005 102.5L79.0054 101.5L78.9946 104.5Z" fill="#71D3E9"/>
<line x1="560.5" y1="172" x2="560.5" y2="72" stroke="#71D3E9" stroke-width="3"/>
<path d="M88.6307 98L85.3068 87.0909H87.0682L89.4261 95.4432H89.5398L91.8693 87.0909H93.6591L95.9602 95.4148H96.0739L98.4318 87.0909H100.193L96.8693 98H95.2216L92.8352 89.6193H92.6648L90.2784 98H88.6307ZM102.409 98V87.0909H104.085V98H102.409ZM103.261 85.2727C102.935 85.2727 102.653 85.1615 102.416 84.9389C102.184 84.7164 102.068 84.4489 102.068 84.1364C102.068 83.8239 102.184 83.5563 102.416 83.3338C102.653 83.1113 102.935 83 103.261 83C103.588 83 103.867 83.1113 104.099 83.3338C104.336 83.5563 104.455 83.8239 104.455 84.1364C104.455 84.4489 104.336 84.7164 104.099 84.9389C103.867 85.1615 103.588 85.2727 103.261 85.2727ZM108.831 91.4375V98H107.155V87.0909H108.775V88.7955H108.917C109.172 88.2415 109.56 87.7964 110.081 87.4602C110.602 87.1193 111.275 86.9489 112.098 86.9489C112.837 86.9489 113.483 87.1004 114.037 87.4034C114.591 87.7017 115.022 88.1562 115.33 88.767C115.638 89.3731 115.792 90.1402 115.792 91.0682V98H114.115V91.1818C114.115 90.3248 113.893 89.6572 113.448 89.179C113.003 88.696 112.392 88.4545 111.615 88.4545C111.08 88.4545 110.602 88.5705 110.181 88.8026C109.764 89.0346 109.435 89.3731 109.194 89.8182C108.952 90.2633 108.831 90.803 108.831 91.4375ZM122.974 98.2273C122.065 98.2273 121.262 97.9976 120.566 97.5384C119.87 97.0743 119.326 96.4209 118.933 95.5781C118.54 94.7306 118.343 93.7292 118.343 92.5739C118.343 91.428 118.54 90.4337 118.933 89.5909C119.326 88.7481 119.872 88.0971 120.573 87.6378C121.274 87.1785 122.084 86.9489 123.002 86.9489C123.712 86.9489 124.273 87.0672 124.685 87.304C125.102 87.536 125.419 87.8011 125.637 88.0994C125.86 88.393 126.032 88.6345 126.156 88.8239H126.298V83.4545H127.974V98H126.354V96.3239H126.156C126.032 96.5227 125.857 96.7737 125.63 97.0767C125.403 97.375 125.078 97.6425 124.657 97.8793C124.236 98.1113 123.674 98.2273 122.974 98.2273ZM123.201 96.7216C123.873 96.7216 124.442 96.5464 124.906 96.196C125.37 95.8409 125.722 95.3509 125.964 94.7259C126.205 94.0961 126.326 93.3693 126.326 92.5455C126.326 91.7311 126.208 91.0185 125.971 90.4077C125.734 89.7921 125.384 89.3139 124.92 88.973C124.456 88.6274 123.883 88.4545 123.201 88.4545C122.491 88.4545 121.899 88.6368 121.425 89.0014C120.957 89.3613 120.604 89.8513 120.367 90.4716C120.135 91.0871 120.019 91.7784 120.019 92.5455C120.019 93.322 120.138 94.0275 120.374 94.6619C120.616 95.2917 120.971 95.7936 121.44 96.1676C121.913 96.5369 122.5 96.7216 123.201 96.7216ZM135.708 98.2273C134.723 98.2273 133.859 97.9929 133.116 97.5241C132.377 97.0554 131.799 96.3996 131.383 95.5568C130.971 94.714 130.765 93.7292 130.765 92.6023C130.765 91.4659 130.971 90.474 131.383 89.6264C131.799 88.7789 132.377 88.1207 133.116 87.652C133.859 87.1832 134.723 86.9489 135.708 86.9489C136.693 86.9489 137.555 87.1832 138.293 87.652C139.037 88.1207 139.614 88.7789 140.026 89.6264C140.443 90.474 140.651 91.4659 140.651 92.6023C140.651 93.7292 140.443 94.714 140.026 95.5568C139.614 96.3996 139.037 97.0554 138.293 97.5241C137.555 97.9929 136.693 98.2273 135.708 98.2273ZM135.708 96.7216C136.456 96.7216 137.072 96.5298 137.555 96.1463C138.038 95.7628 138.395 95.2585 138.627 94.6335C138.859 94.0085 138.975 93.3314 138.975 92.6023C138.975 91.8731 138.859 91.1937 138.627 90.5639C138.395 89.9342 138.038 89.4252 137.555 89.0369C137.072 88.6487 136.456 88.4545 135.708 88.4545C134.96 88.4545 134.344 88.6487 133.862 89.0369C133.379 89.4252 133.021 89.9342 132.789 90.5639C132.557 91.1937 132.441 91.8731 132.441 92.6023C132.441 93.3314 132.557 94.0085 132.789 94.6335C133.021 95.2585 133.379 95.7628 133.862 96.1463C134.344 96.5298 134.96 96.7216 135.708 96.7216ZM145.31 98L141.987 87.0909H143.748L146.106 95.4432H146.219L148.549 87.0909H150.339L152.64 95.4148H152.754L155.112 87.0909H156.873L153.549 98H151.901L149.515 89.6193H149.344L146.958 98H145.31ZM158.826 98.1136C158.476 98.1136 158.175 97.9882 157.924 97.7372C157.673 97.4863 157.548 97.1856 157.548 96.8352C157.548 96.4848 157.673 96.1842 157.924 95.9332C158.175 95.6823 158.476 95.5568 158.826 95.5568C159.176 95.5568 159.477 95.6823 159.728 95.9332C159.979 96.1842 160.104 96.4848 160.104 96.8352C160.104 97.0672 160.045 97.2803 159.927 97.4744C159.813 97.6686 159.659 97.8248 159.465 97.9432C159.276 98.0568 159.063 98.1136 158.826 98.1136ZM165.584 98L162.26 87.0909H164.021L166.379 95.4432H166.493L168.822 87.0909H170.612L172.913 95.4148H173.027L175.385 87.0909H177.146L173.822 98H172.175L169.788 89.6193H169.618L167.232 98H165.584ZM183.565 98.2273C182.514 98.2273 181.607 97.9953 180.845 97.5312C180.087 97.0625 179.502 96.4091 179.091 95.571C178.683 94.7282 178.48 93.7481 178.48 92.6307C178.48 91.5133 178.683 90.5284 179.091 89.6761C179.502 88.8191 180.075 88.1515 180.809 87.6733C181.548 87.1903 182.41 86.9489 183.395 86.9489C183.963 86.9489 184.524 87.0436 185.078 87.233C185.632 87.4223 186.136 87.7301 186.591 88.1562C187.045 88.5777 187.407 89.1364 187.677 89.8324C187.947 90.5284 188.082 91.3854 188.082 92.4034V93.1136H179.673V91.6648H186.377C186.377 91.0492 186.254 90.5 186.008 90.017C185.767 89.5341 185.421 89.1529 184.971 88.8736C184.526 88.5942 184.001 88.4545 183.395 88.4545C182.727 88.4545 182.149 88.6203 181.662 88.9517C181.179 89.2784 180.807 89.7045 180.547 90.2301C180.286 90.7557 180.156 91.3191 180.156 91.9205V92.8864C180.156 93.7102 180.298 94.4086 180.582 94.9815C180.871 95.5497 181.271 95.983 181.782 96.2812C182.294 96.5748 182.888 96.7216 183.565 96.7216C184.005 96.7216 184.403 96.66 184.758 96.5369C185.118 96.4091 185.428 96.2197 185.689 95.9688C185.949 95.7131 186.15 95.3958 186.292 95.017L187.912 95.4716C187.741 96.0208 187.455 96.5038 187.052 96.9205C186.65 97.3324 186.153 97.6544 185.561 97.8864C184.969 98.1136 184.304 98.2273 183.565 98.2273ZM190.859 98V83.4545H192.535V88.8239H192.677C192.8 88.6345 192.971 88.393 193.189 88.0994C193.411 87.8011 193.728 87.536 194.14 87.304C194.557 87.0672 195.12 86.9489 195.831 86.9489C196.749 86.9489 197.559 87.1785 198.26 87.6378C198.96 88.0971 199.507 88.7481 199.9 89.5909C200.293 90.4337 200.49 91.428 200.49 92.5739C200.49 93.7292 200.293 94.7306 199.9 95.5781C199.507 96.4209 198.963 97.0743 198.267 97.5384C197.571 97.9976 196.768 98.2273 195.859 98.2273C195.158 98.2273 194.597 98.1113 194.176 97.8793C193.754 97.6425 193.43 97.375 193.203 97.0767C192.975 96.7737 192.8 96.5227 192.677 96.3239H192.478V98H190.859ZM192.507 92.5455C192.507 93.3693 192.627 94.0961 192.869 94.7259C193.11 95.3509 193.463 95.8409 193.927 96.196C194.391 96.5464 194.959 96.7216 195.632 96.7216C196.333 96.7216 196.917 96.5369 197.386 96.1676C197.859 95.7936 198.215 95.2917 198.451 94.6619C198.693 94.0275 198.814 93.322 198.814 92.5455C198.814 91.7784 198.695 91.0871 198.458 90.4716C198.226 89.8513 197.874 89.3613 197.4 89.0014C196.931 88.6368 196.342 88.4545 195.632 88.4545C194.95 88.4545 194.377 88.6274 193.913 88.973C193.449 89.3139 193.099 89.7921 192.862 90.4077C192.625 91.0185 192.507 91.7311 192.507 92.5455ZM214.985 88H213.224C213.12 87.4934 212.938 87.0483 212.677 86.6648C212.422 86.2812 212.109 85.9593 211.74 85.6989C211.375 85.4337 210.97 85.2348 210.525 85.1023C210.08 84.9697 209.616 84.9034 209.133 84.9034C208.252 84.9034 207.455 85.1259 206.74 85.571C206.029 86.0161 205.464 86.6719 205.042 87.5384C204.626 88.4048 204.417 89.4678 204.417 90.7273C204.417 91.9867 204.626 93.0497 205.042 93.9162C205.464 94.7827 206.029 95.4384 206.74 95.8835C207.455 96.3286 208.252 96.5511 209.133 96.5511C209.616 96.5511 210.08 96.4848 210.525 96.3523C210.97 96.2197 211.375 96.0232 211.74 95.7628C212.109 95.4976 212.422 95.1733 212.677 94.7898C212.938 94.4015 213.12 93.9564 213.224 93.4545H214.985C214.853 94.1979 214.611 94.8632 214.261 95.4503C213.911 96.0374 213.475 96.5369 212.954 96.9489C212.433 97.3561 211.849 97.6662 211.2 97.8793C210.556 98.0923 209.867 98.1989 209.133 98.1989C207.893 98.1989 206.789 97.8958 205.824 97.2898C204.858 96.6837 204.098 95.822 203.544 94.7045C202.99 93.5871 202.713 92.2614 202.713 90.7273C202.713 89.1932 202.99 87.8674 203.544 86.75C204.098 85.6326 204.858 84.7708 205.824 84.1648C206.789 83.5587 207.893 83.2557 209.133 83.2557C209.867 83.2557 210.556 83.3622 211.2 83.5753C211.849 83.7884 212.433 84.1009 212.954 84.5128C213.475 84.92 213.911 85.4171 214.261 86.0043C214.611 86.5866 214.853 87.2519 214.985 88ZM222.036 98.2273C221.051 98.2273 220.187 97.9929 219.444 97.5241C218.705 97.0554 218.128 96.3996 217.711 95.5568C217.299 94.714 217.093 93.7292 217.093 92.6023C217.093 91.4659 217.299 90.474 217.711 89.6264C218.128 88.7789 218.705 88.1207 219.444 87.652C220.187 87.1832 221.051 86.9489 222.036 86.9489C223.021 86.9489 223.883 87.1832 224.621 87.652C225.365 88.1207 225.942 88.7789 226.354 89.6264C226.771 90.474 226.979 91.4659 226.979 92.6023C226.979 93.7292 226.771 94.714 226.354 95.5568C225.942 96.3996 225.365 97.0554 224.621 97.5241C223.883 97.9929 223.021 98.2273 222.036 98.2273ZM222.036 96.7216C222.784 96.7216 223.4 96.5298 223.883 96.1463C224.366 95.7628 224.723 95.2585 224.955 94.6335C225.187 94.0085 225.303 93.3314 225.303 92.6023C225.303 91.8731 225.187 91.1937 224.955 90.5639C224.723 89.9342 224.366 89.4252 223.883 89.0369C223.4 88.6487 222.784 88.4545 222.036 88.4545C221.288 88.4545 220.673 88.6487 220.19 89.0369C219.707 89.4252 219.349 89.9342 219.117 90.5639C218.885 91.1937 218.769 91.8731 218.769 92.6023C218.769 93.3314 218.885 94.0085 219.117 94.6335C219.349 95.2585 219.707 95.7628 220.19 96.1463C220.673 96.5298 221.288 96.7216 222.036 96.7216ZM231.214 91.4375V98H229.538V87.0909H231.157V88.7955H231.299C231.555 88.2415 231.943 87.7964 232.464 87.4602C232.985 87.1193 233.657 86.9489 234.481 86.9489C235.22 86.9489 235.866 87.1004 236.42 87.4034C236.974 87.7017 237.405 88.1562 237.713 88.767C238.02 89.3731 238.174 90.1402 238.174 91.0682V98H236.498V91.1818C236.498 90.3248 236.276 89.6572 235.831 89.179C235.386 88.696 234.775 88.4545 233.998 88.4545C233.463 88.4545 232.985 88.5705 232.564 88.8026C232.147 89.0346 231.818 89.3731 231.576 89.8182C231.335 90.2633 231.214 90.803 231.214 91.4375ZM245.982 87.0909V88.5114H240.328V87.0909H245.982ZM241.976 84.4773H243.652V94.875C243.652 95.3485 243.721 95.7036 243.858 95.9403C244 96.1723 244.18 96.3286 244.398 96.4091C244.62 96.4848 244.855 96.5227 245.101 96.5227C245.286 96.5227 245.437 96.5133 245.555 96.4943C245.674 96.4706 245.768 96.4517 245.839 96.4375L246.18 97.9432C246.067 97.9858 245.908 98.0284 245.705 98.071C245.501 98.1184 245.243 98.142 244.93 98.142C244.457 98.142 243.993 98.0402 243.538 97.8366C243.089 97.633 242.714 97.3229 242.416 96.9062C242.123 96.4896 241.976 95.964 241.976 95.3295V84.4773ZM252.96 98.2273C251.908 98.2273 251.002 97.9953 250.239 97.5312C249.482 97.0625 248.897 96.4091 248.485 95.571C248.078 94.7282 247.874 93.7481 247.874 92.6307C247.874 91.5133 248.078 90.5284 248.485 89.6761C248.897 88.8191 249.47 88.1515 250.204 87.6733C250.942 87.1903 251.804 86.9489 252.789 86.9489C253.357 86.9489 253.918 87.0436 254.472 87.233C255.026 87.4223 255.531 87.7301 255.985 88.1562C256.44 88.5777 256.802 89.1364 257.072 89.8324C257.342 90.5284 257.477 91.3854 257.477 92.4034V93.1136H249.067V91.6648H255.772C255.772 91.0492 255.649 90.5 255.403 90.017C255.161 89.5341 254.816 89.1529 254.366 88.8736C253.921 88.5942 253.395 88.4545 252.789 88.4545C252.121 88.4545 251.544 88.6203 251.056 88.9517C250.573 89.2784 250.201 89.7045 249.941 90.2301C249.681 90.7557 249.55 91.3191 249.55 91.9205V92.8864C249.55 93.7102 249.692 94.4086 249.977 94.9815C250.265 95.5497 250.665 95.983 251.177 96.2812C251.688 96.5748 252.282 96.7216 252.96 96.7216C253.4 96.7216 253.798 96.66 254.153 96.5369C254.513 96.4091 254.823 96.2197 255.083 95.9688C255.344 95.7131 255.545 95.3958 255.687 95.017L257.306 95.4716C257.136 96.0208 256.849 96.5038 256.447 96.9205C256.044 97.3324 255.547 97.6544 254.955 97.8864C254.363 98.1136 253.698 98.2273 252.96 98.2273ZM261.702 91.4375V98H260.026V87.0909H261.646V88.7955H261.788C262.043 88.2415 262.432 87.7964 262.952 87.4602C263.473 87.1193 264.146 86.9489 264.969 86.9489C265.708 86.9489 266.354 87.1004 266.908 87.4034C267.462 87.7017 267.893 88.1562 268.201 88.767C268.509 89.3731 268.663 90.1402 268.663 91.0682V98H266.987V91.1818C266.987 90.3248 266.764 89.6572 266.319 89.179C265.874 88.696 265.263 88.4545 264.487 88.4545C263.951 88.4545 263.473 88.5705 263.052 88.8026C262.635 89.0346 262.306 89.3731 262.065 89.8182C261.823 90.2633 261.702 90.803 261.702 91.4375ZM276.47 87.0909V88.5114H270.816V87.0909H276.47ZM272.464 84.4773H274.14V94.875C274.14 95.3485 274.209 95.7036 274.346 95.9403C274.488 96.1723 274.668 96.3286 274.886 96.4091C275.109 96.4848 275.343 96.5227 275.589 96.5227C275.774 96.5227 275.925 96.5133 276.044 96.4943C276.162 96.4706 276.257 96.4517 276.328 96.4375L276.669 97.9432C276.555 97.9858 276.396 98.0284 276.193 98.071C275.989 98.1184 275.731 98.142 275.419 98.142C274.945 98.142 274.481 98.0402 274.027 97.8366C273.577 97.633 273.203 97.3229 272.904 96.9062C272.611 96.4896 272.464 95.964 272.464 95.3295V84.4773ZM286.523 89.5341L285.017 89.9602C284.923 89.7093 284.783 89.4654 284.598 89.2287C284.418 88.9872 284.172 88.7884 283.86 88.6321C283.547 88.4759 283.147 88.3977 282.659 88.3977C281.992 88.3977 281.435 88.5516 280.99 88.8594C280.55 89.1624 280.33 89.5483 280.33 90.017C280.33 90.4337 280.481 90.7628 280.784 91.0043C281.087 91.2457 281.561 91.447 282.205 91.608L283.824 92.0057C284.8 92.2424 285.526 92.6046 286.005 93.0923C286.483 93.5753 286.722 94.1979 286.722 94.9602C286.722 95.5852 286.542 96.1439 286.182 96.6364C285.827 97.1288 285.33 97.517 284.691 97.8011C284.051 98.0852 283.308 98.2273 282.461 98.2273C281.348 98.2273 280.427 97.9858 279.698 97.5028C278.969 97.0199 278.507 96.3144 278.313 95.3864L279.904 94.9886C280.055 95.5758 280.342 96.0161 280.763 96.3097C281.189 96.6032 281.746 96.75 282.432 96.75C283.213 96.75 283.834 96.5843 284.293 96.2528C284.757 95.9167 284.989 95.5142 284.989 95.0455C284.989 94.6667 284.856 94.3494 284.591 94.0938C284.326 93.8333 283.919 93.6392 283.37 93.5114L281.551 93.0852C280.552 92.8485 279.819 92.4815 279.35 91.9844C278.886 91.4825 278.654 90.8551 278.654 90.1023C278.654 89.4867 278.827 88.9422 279.172 88.4688C279.523 87.9953 279.998 87.6236 280.6 87.3537C281.206 87.0838 281.892 86.9489 282.659 86.9489C283.739 86.9489 284.587 87.1856 285.202 87.6591C285.822 88.1326 286.263 88.7576 286.523 89.5341ZM290.467 98.1136C290.116 98.1136 289.816 97.9882 289.565 97.7372C289.314 97.4863 289.188 97.1856 289.188 96.8352C289.188 96.4848 289.314 96.1842 289.565 95.9332C289.816 95.6823 290.116 95.5568 290.467 95.5568C290.817 95.5568 291.118 95.6823 291.369 95.9332C291.62 96.1842 291.745 96.4848 291.745 96.8352C291.745 97.0672 291.686 97.2803 291.567 97.4744C291.454 97.6686 291.3 97.8248 291.106 97.9432C290.916 98.0568 290.703 98.1136 290.467 98.1136ZM302.48 89.5341L300.974 89.9602C300.88 89.7093 300.74 89.4654 300.555 89.2287C300.375 88.9872 300.129 88.7884 299.817 88.6321C299.504 88.4759 299.104 88.3977 298.616 88.3977C297.949 88.3977 297.393 88.5516 296.947 88.8594C296.507 89.1624 296.287 89.5483 296.287 90.017C296.287 90.4337 296.438 90.7628 296.741 91.0043C297.045 91.2457 297.518 91.447 298.162 91.608L299.781 92.0057C300.757 92.2424 301.483 92.6046 301.962 93.0923C302.44 93.5753 302.679 94.1979 302.679 94.9602C302.679 95.5852 302.499 96.1439 302.139 96.6364C301.784 97.1288 301.287 97.517 300.648 97.8011C300.009 98.0852 299.265 98.2273 298.418 98.2273C297.305 98.2273 296.384 97.9858 295.655 97.5028C294.926 97.0199 294.464 96.3144 294.27 95.3864L295.861 94.9886C296.012 95.5758 296.299 96.0161 296.72 96.3097C297.146 96.6032 297.703 96.75 298.389 96.75C299.17 96.75 299.791 96.5843 300.25 96.2528C300.714 95.9167 300.946 95.5142 300.946 95.0455C300.946 94.6667 300.813 94.3494 300.548 94.0938C300.283 93.8333 299.876 93.6392 299.327 93.5114L297.509 93.0852C296.509 92.8485 295.776 92.4815 295.307 91.9844C294.843 91.4825 294.611 90.8551 294.611 90.1023C294.611 89.4867 294.784 88.9422 295.129 88.4688C295.48 87.9953 295.955 87.6236 296.557 87.3537C297.163 87.0838 297.849 86.9489 298.616 86.9489C299.696 86.9489 300.544 87.1856 301.159 87.6591C301.779 88.1326 302.22 88.7576 302.48 89.5341ZM309.776 98.2273C308.725 98.2273 307.818 97.9953 307.056 97.5312C306.298 97.0625 305.713 96.4091 305.301 95.571C304.894 94.7282 304.691 93.7481 304.691 92.6307C304.691 91.5133 304.894 90.5284 305.301 89.6761C305.713 88.8191 306.286 88.1515 307.02 87.6733C307.759 87.1903 308.621 86.9489 309.605 86.9489C310.174 86.9489 310.735 87.0436 311.289 87.233C311.843 87.4223 312.347 87.7301 312.801 88.1562C313.256 88.5777 313.618 89.1364 313.888 89.8324C314.158 90.5284 314.293 91.3854 314.293 92.4034V93.1136H305.884V91.6648H312.588C312.588 91.0492 312.465 90.5 312.219 90.017C311.978 89.5341 311.632 89.1529 311.182 88.8736C310.737 88.5942 310.212 88.4545 309.605 88.4545C308.938 88.4545 308.36 88.6203 307.873 88.9517C307.39 89.2784 307.018 89.7045 306.757 90.2301C306.497 90.7557 306.367 91.3191 306.367 91.9205V92.8864C306.367 93.7102 306.509 94.4086 306.793 94.9815C307.082 95.5497 307.482 95.983 307.993 96.2812C308.505 96.5748 309.099 96.7216 309.776 96.7216C310.216 96.7216 310.614 96.66 310.969 96.5369C311.329 96.4091 311.639 96.2197 311.9 95.9688C312.16 95.7131 312.361 95.3958 312.503 95.017L314.123 95.4716C313.952 96.0208 313.666 96.5038 313.263 96.9205C312.861 97.3324 312.364 97.6544 311.772 97.8864C311.18 98.1136 310.515 98.2273 309.776 98.2273ZM318.519 91.4375V98H316.843V87.0909H318.462V88.7955H318.604C318.86 88.2415 319.248 87.7964 319.769 87.4602C320.29 87.1193 320.962 86.9489 321.786 86.9489C322.525 86.9489 323.171 87.1004 323.725 87.4034C324.279 87.7017 324.71 88.1562 325.017 88.767C325.325 89.3731 325.479 90.1402 325.479 91.0682V98H323.803V91.1818C323.803 90.3248 323.58 89.6572 323.135 89.179C322.69 88.696 322.079 88.4545 321.303 88.4545C320.768 88.4545 320.29 88.5705 319.868 88.8026C319.452 89.0346 319.123 89.3731 318.881 89.8182C318.64 90.2633 318.519 90.803 318.519 91.4375ZM332.661 98.2273C331.752 98.2273 330.95 97.9976 330.254 97.5384C329.558 97.0743 329.013 96.4209 328.62 95.5781C328.227 94.7306 328.031 93.7292 328.031 92.5739C328.031 91.428 328.227 90.4337 328.62 89.5909C329.013 88.7481 329.56 88.0971 330.261 87.6378C330.961 87.1785 331.771 86.9489 332.69 86.9489C333.4 86.9489 333.961 87.0672 334.373 87.304C334.79 87.536 335.107 87.8011 335.325 88.0994C335.547 88.393 335.72 88.6345 335.843 88.8239H335.985V83.4545H337.661V98H336.042V96.3239H335.843C335.72 96.5227 335.545 96.7737 335.317 97.0767C335.09 97.375 334.766 97.6425 334.344 97.8793C333.923 98.1113 333.362 98.2273 332.661 98.2273ZM332.888 96.7216C333.561 96.7216 334.129 96.5464 334.593 96.196C335.057 95.8409 335.41 95.3509 335.651 94.7259C335.893 94.0961 336.013 93.3693 336.013 92.5455C336.013 91.7311 335.895 91.0185 335.658 90.4077C335.422 89.7921 335.071 89.3139 334.607 88.973C334.143 88.6274 333.57 88.4545 332.888 88.4545C332.178 88.4545 331.586 88.6368 331.113 89.0014C330.644 89.3613 330.291 89.8513 330.055 90.4716C329.823 91.0871 329.707 91.7784 329.707 92.5455C329.707 93.322 329.825 94.0275 330.062 94.6619C330.303 95.2917 330.658 95.7936 331.127 96.1676C331.601 96.5369 332.188 96.7216 332.888 96.7216Z" fill="#D9D9D9"/>
</svg>
